<svg width="37" height="36" viewBox="0 0 37 36" fill="none" xmlns="http://www.w3.org/2000/svg">
<path d="M18.1666 36C28.1078 36 36.1666 27.9411 36.1666 18C36.1666 8.05887 28.1078 0 18.1666 0C8.2255 0 0.166626 8.05887 0.166626 18C0.166626 27.9411 8.2255 36 18.1666 36Z" fill="#FFE81B"/>
<path d="M28.4743 24.1988L28.4743 24.1989C28.7483 24.0019 28.9124 23.6864 28.9166 23.3491C28.9147 22.9975 28.7064 22.68 28.3849 22.5385L28.3794 22.536L28.3794 22.536C28.2015 22.4551 28.0182 22.3866 27.831 22.3312L27.8211 22.3283L27.8211 22.3282L27.8045 22.3229C27.373 22.1856 26.7632 21.9914 26.1753 21.5314C25.5707 21.0583 25.0217 20.3324 24.646 19.1776L24.5001 18.7292L24.9392 18.5573L25.9844 18.1482L25.9928 18.1449L25.9928 18.145C26.6514 17.9009 27.0273 17.2066 26.8716 16.5217L26.8712 16.5199C26.8094 16.2436 26.6531 15.9977 26.4293 15.8245L26.4269 15.8226C26.1341 15.5932 25.7526 15.5099 25.3909 15.5963L25.3881 15.5969L25.0362 15.6788L24.4591 15.813L24.4238 15.2216C24.3984 14.7955 24.3984 14.3534 24.3984 13.9172V13.9102C24.3969 13.0797 24.2271 12.2582 23.8993 11.4952L28.4743 24.1988ZM28.4743 24.1988L28.469 24.2028M28.4743 24.1988L28.469 24.2028M28.469 24.2028C28.2719 24.3484 28.0528 24.4615 27.82 24.5378C27.396 24.6707 26.9633 24.7736 26.5249 24.8458L26.1555 24.9066M28.469 24.2028L26.1555 24.9066M26.1555 24.9066L26.1099 25.2782M26.1555 24.9066L26.1099 25.2782M26.1099 25.2782C26.0929 25.4164 26.0652 25.5531 26.0271 25.6871L26.0251 25.694M26.1099 25.2782L26.0251 25.694M26.0251 25.694L26.0234 25.7009M26.0251 25.694L26.0234 25.7009M26.0234 25.7009C25.9327 26.0579 25.6832 26.3533 25.3467 26.5025C25.1411 26.5804 24.9221 26.6171 24.7021 26.6107L24.6948 26.6105M26.0234 25.7009L24.6948 26.6105M24.6948 26.6105H24.6875M24.6948 26.6105H24.6875M24.6875 26.6105C24.5093 26.6105 24.3082 26.5966 24.0757 26.5804L24.0554 26.579C24.0554 26.579 24.0553 26.579 24.0553 26.579C24.027 26.5771 23.9976 26.575 23.9672 26.5728C23.758 26.5578 23.5021 26.5395 23.2591 26.539C22.8848 26.5229 22.5113 26.5835 22.1612 26.717L22.1447 26.7233M24.6875 26.6105L22.1447 26.7233M22.1447 26.7233L22.1286 26.7307M22.1447 26.7233L22.1286 26.7307M22.1286 26.7307C21.8268 26.871 21.5093 27.0557 21.2019 27.2345L21.1594 27.2592L21.1571 27.2606M22.1286 26.7307L21.1571 27.2606M21.1571 27.2606C20.2324 27.805 19.314 28.341 18.1667 28.341C17.0219 28.341 16.1059 27.8078 15.1818 27.2699L15.1741 27.2654L15.1738 27.2652M21.1571 27.2606L15.1738 27.2652M15.1738 27.2652L15.1264 27.2377C14.8207 27.0599 14.5049 26.8764 14.2047 26.7368L14.1887 26.7294M15.1738 27.2652L14.1887 26.7294M14.1887 26.7294L14.1721 26.7231M14.1887 26.7294L14.1721 26.7231M14.1721 26.7231C13.8222 26.5896 13.4486 26.529 13.0743 26.5451C12.7968 26.5456 12.524 26.5653 12.2725 26.5856C12.0237 26.6056 11.8346 26.6166 11.6458 26.6166H11.6386M14.1721 26.7231L11.6386 26.6166M11.6386 26.6166L11.6314 26.6168C11.4113 26.6232 11.1922 26.5864 10.9862 26.5085M11.6386 26.6166L10.9862 26.5085M10.9862 26.5085C10.6498 26.3599 10.4003 26.0646 10.3101 25.7076L10.3083 25.7004L10.3063 25.6932C10.2681 25.5592 10.2404 25.4225 10.2235 25.2844L10.1779 24.9125L9.8082 24.8519C9.36989 24.7799 8.93719 24.677 8.51337 24.5439C8.28059 24.4677 8.06148 24.3545 7.86439 24.2089L7.86441 24.2088L7.85909 24.205C7.58426 24.0074 7.42006 23.6908 7.41677 23.3525C7.42246 23.0033 7.63142 22.6892 7.95169 22.5491L7.95172 22.5491L7.95906 22.5458C8.13633 22.4648 8.31906 22.3965 8.50593 22.3416L8.50598 22.3418L8.51796 22.3379L8.53706 22.3318C8.96987 22.1926 9.57961 21.9967 10.1659 21.5357C10.7701 21.0606 11.3169 20.3327 11.6883 19.1756L11.8318 18.7284L11.3944 18.5572L10.3492 18.1481L10.3493 18.1481L10.3415 18.1452C9.68699 17.9015 9.31213 17.2128 9.46275 16.5309L9.46311 16.5293C9.52276 16.2548 9.67584 16.0095 9.89619 15.8351C10.1127 15.6677 10.3784 15.5763 10.6521 15.5751C10.7467 15.5754 10.8408 15.5866 10.9326 15.6085L10.9353 15.6092L11.2872 15.691L11.8758 15.8279L11.9 15.224C11.9167 14.8078 11.925 14.3697 11.925 13.922M10.9862 26.5085L11.925 13.9224C11.925 13.9223 11.925 13.9221 11.925 13.922M11.925 13.922C11.9266 13.0914 12.0958 12.2698 12.4226 11.5062L12.4231 11.5051M11.925 13.922L12.4231 11.5051M12.4231 11.5051C13.0602 10.0068 14.2496 8.81134 15.7446 8.16655L15.7451 8.16634M12.4231 11.5051L15.7451 8.16634M15.7451 8.16634C16.509 7.83591 17.3328 7.66674 18.1651 7.66947L18.1661 7.66947M15.7451 8.16634L18.1661 7.66947M18.1661 7.66947C18.993 7.67051 19.8111 7.83963 20.5706 8.16656M18.1661 7.66947L20.5706 8.16656M20.5706 8.16656C22.0641 8.81057 23.2549 10.0012 23.899 11.4947L20.5706 8.16656Z" fill="white" stroke="black"/>
</svg>
