<svg width="120" height="40" fill="none" xmlns="http://www.w3.org/2000/svg"><rect x=".5" y=".5" width="119" height="39" rx="6.5" fill="#fff"/><path d="M24.769 19.864a4.947 4.947 0 0 1 2.357-4.153 5.066 5.066 0 0 0-3.992-2.157c-1.679-.176-3.307 1.005-4.163 1.005-.872 0-2.19-.988-3.608-.958a5.315 5.315 0 0 0-4.473 2.727c-1.934 3.349-.491 8.27 1.361 10.977.927 1.325 2.01 2.805 3.428 2.753 1.387-.058 1.905-.885 3.58-.885 1.658 0 2.144.885 3.59.851 1.489-.024 2.426-1.33 3.32-2.669a10.957 10.957 0 0 0 1.52-3.092 4.782 4.782 0 0 1-2.92-4.4Zm-2.731-8.09a4.873 4.873 0 0 0 1.114-3.49 4.958 4.958 0 0 0-3.207 1.659 4.638 4.638 0 0 0-1.144 3.361 4.099 4.099 0 0 0 3.237-1.53Zm20.264 14.929H37.57l-1.137 3.356h-2.005l4.484-12.418h2.083l4.483 12.418h-2.039l-1.136-3.356Zm-4.243-1.55h3.752l-1.85-5.446h-.051l-1.85 5.447Zm17.101.38c0 2.813-1.506 4.62-3.779 4.62a3.069 3.069 0 0 1-2.848-1.583h-.043v4.484h-1.86V21.005h1.8v1.506h.033a3.21 3.21 0 0 1 2.883-1.6c2.298 0 3.813 1.816 3.813 4.622Zm-1.91 0c0-1.833-.948-3.038-2.393-3.038-1.42 0-2.375 1.23-2.375 3.038 0 1.824.955 3.046 2.375 3.046 1.445 0 2.392-1.197 2.392-3.046Zm11.874 0c0 2.813-1.505 4.62-3.778 4.62a3.069 3.069 0 0 1-2.848-1.583h-.043v4.484h-1.859V21.005h1.799v1.506h.034a3.21 3.21 0 0 1 2.883-1.6c2.298 0 3.813 1.816 3.813 4.622Zm-1.91 0c0-1.833-.947-3.038-2.392-3.038-1.42 0-2.375 1.23-2.375 3.038 0 1.824.955 3.046 2.375 3.046 1.445 0 2.392-1.197 2.392-3.046ZM71.71 26.6c.138 1.23 1.335 2.04 2.97 2.04 1.566 0 2.693-.81 2.693-1.92 0-.964-.68-1.54-2.29-1.936l-1.609-.388c-2.28-.55-3.339-1.617-3.339-3.348 0-2.142 1.867-3.614 4.519-3.614 2.624 0 4.423 1.472 4.483 3.614h-1.876c-.112-1.239-1.136-1.987-2.634-1.987-1.497 0-2.521.757-2.521 1.858 0 .878.654 1.395 2.255 1.79l1.368.336c2.548.603 3.606 1.626 3.606 3.443 0 2.323-1.85 3.778-4.793 3.778-2.754 0-4.614-1.42-4.734-3.667h1.902Zm11.636-7.737v2.142h1.722v1.472h-1.722v4.991c0 .776.345 1.137 1.102 1.137.204-.004.408-.018.611-.043v1.463c-.34.064-.686.092-1.032.086-1.833 0-2.548-.689-2.548-2.445v-5.189h-1.316v-1.472h1.316v-2.142h1.867Zm2.719 6.67c0-2.849 1.678-4.639 4.294-4.639 2.625 0 4.295 1.79 4.295 4.639 0 2.856-1.661 4.638-4.295 4.638-2.633 0-4.294-1.782-4.294-4.638Zm6.695 0c0-1.954-.895-3.108-2.401-3.108-1.506 0-2.4 1.162-2.4 3.108 0 1.962.894 3.106 2.4 3.106 1.506 0 2.401-1.144 2.401-3.106Zm3.426-4.527h1.772v1.54h.043a2.16 2.16 0 0 1 2.178-1.635c.214-.001.428.022.637.07v1.737a2.594 2.594 0 0 0-.835-.112 1.872 1.872 0 0 0-1.937 2.083v5.37h-1.858v-9.053Zm13.198 6.394c-.25 1.644-1.85 2.771-3.898 2.771-2.634 0-4.269-1.764-4.269-4.595 0-2.84 1.644-4.682 4.191-4.682 2.505 0 4.08 1.72 4.08 4.466v.637h-6.395v.112a2.353 2.353 0 0 0 .639 1.832 2.364 2.364 0 0 0 1.797.732 2.045 2.045 0 0 0 2.091-1.273h1.764Zm-6.282-2.702h4.526a2.166 2.166 0 0 0-.608-1.634 2.168 2.168 0 0 0-1.612-.664 2.291 2.291 0 0 0-2.306 2.298ZM37.826 8.294a2.64 2.64 0 0 1 2.808 2.965c0 1.906-1.03 3.002-2.808 3.002h-2.155V8.294h2.155Zm-1.228 5.123h1.125a1.877 1.877 0 0 0 1.967-2.146 1.881 1.881 0 0 0-1.967-2.134h-1.125v4.28Zm5.082-1.41a2.133 2.133 0 1 1 4.248 0 2.132 2.132 0 1 1-4.247 0Zm3.334 0c0-.976-.439-1.547-1.209-1.547-.772 0-1.206.571-1.206 1.547 0 .984.434 1.55 1.207 1.55.769 0 1.208-.57 1.208-1.55Zm6.559 2.253h-.922l-.93-3.316h-.07l-.927 3.317h-.913l-1.242-4.503h.902l.806 3.436h.067l.925-3.436h.853l.926 3.436h.07l.803-3.436h.889l-1.237 4.503Zm2.28-4.502h.856v.715h.066a1.348 1.348 0 0 1 1.344-.802 1.464 1.464 0 0 1 1.559 1.675v2.915h-.889v-2.692c0-.724-.314-1.084-.972-1.084a1.034 1.034 0 0 0-1.075 1.142v2.634h-.889V9.758ZM59.094 8h.888v6.26h-.888V8Zm2.124 4.007a2.134 2.134 0 1 1 4.247 0 2.134 2.134 0 1 1-4.248 0Zm3.332 0c0-.976-.438-1.546-1.207-1.546-.773 0-1.208.57-1.208 1.546 0 .984.435 1.55 1.208 1.55.77 0 1.207-.57 1.207-1.55Zm1.85.98c0-.81.604-1.277 1.676-1.344l1.22-.07v-.389c0-.475-.315-.744-.922-.744-.497 0-.84.182-.939.5h-.86c.09-.773.818-1.27 1.84-1.27 1.128 0 1.765.563 1.765 1.514v3.077h-.855v-.633h-.07a1.515 1.515 0 0 1-1.353.707 1.36 1.36 0 0 1-1.501-1.348Zm2.895-.385v-.376l-1.1.07c-.62.042-.9.253-.9.65 0 .405.351.64.834.64a1.062 1.062 0 0 0 1.166-.984Zm2.053-.595c0-1.422.732-2.324 1.87-2.324a1.484 1.484 0 0 1 1.38.79h.067V8h.888v6.26h-.851v-.71h-.07a1.564 1.564 0 0 1-1.415.785c-1.145 0-1.869-.901-1.869-2.328Zm.918 0c0 .955.45 1.53 1.203 1.53.75 0 1.212-.583 1.212-1.526 0-.938-.468-1.53-1.212-1.53-.748 0-1.203.58-1.203 1.526Zm6.964 0a2.133 2.133 0 1 1 4.247 0 2.132 2.132 0 1 1-4.247 0Zm3.333 0c0-.976-.439-1.547-1.208-1.547-.773 0-1.207.571-1.207 1.547 0 .984.434 1.55 1.207 1.55.77 0 1.208-.57 1.208-1.55Zm2.107-2.249h.855v.715h.066a1.349 1.349 0 0 1 1.344-.802 1.464 1.464 0 0 1 1.559 1.675v2.915h-.889v-2.692c0-.724-.315-1.084-.972-1.084a1.034 1.034 0 0 0-1.075 1.142v2.634h-.889V9.758Zm8.845-1.121v1.141h.976v.749h-.976v2.315c0 .472.195.678.637.678.113 0 .226-.007.339-.02v.74c-.16.029-.322.044-.484.046-.988 0-1.382-.348-1.382-1.216v-2.543h-.714v-.749h.715V8.637h.89ZM95.705 8h.88v2.482h.07a1.385 1.385 0 0 1 1.374-.807 1.483 1.483 0 0 1 1.55 1.678v2.908h-.889v-2.688c0-.72-.335-1.084-.963-1.084a1.05 1.05 0 0 0-1.134 1.142v2.63h-.888V8Zm9.056 5.045a1.823 1.823 0 0 1-1.951 1.303 2.048 2.048 0 0 1-2.01-1.447 2.05 2.05 0 0 1-.07-.877 2.093 2.093 0 0 1 .071-.88 2.078 2.078 0 0 1 2.005-1.473c1.253 0 2.009.856 2.009 2.27v.31h-3.18v.05a1.19 1.19 0 0 0 1.2 1.29 1.077 1.077 0 0 0 1.071-.546h.855Zm-3.126-1.451h2.275a1.094 1.094 0 0 0-.667-1.083 1.086 1.086 0 0 0-.442-.084 1.151 1.151 0 0 0-1.166 1.167Z" fill="#202020"/><rect x=".5" y=".5" width="119" height="39" rx="6.5" stroke="#202020"/></svg>