<svg width="135" height="41" viewBox="0 0 135 41" fill="none" xmlns="http://www.w3.org/2000/svg">
<rect x="0.5" y="1" width="134" height="39" rx="6.5" fill="#202020"/>
<path d="M45.9801 13.11C45.6501 13.23 45.0101 13.42 44.2501 13.42C43.4001 13.42 42.6901 13.2 42.1401 12.67C41.6501 12.2 41.3501 11.45 41.3501 10.57C41.3501 8.89002 42.5101 7.65002 44.4101 7.65002C45.0601 7.65002 45.5701 7.79002 45.8201 7.91002L45.6401 8.50002C45.3401 8.37002 44.9601 8.26002 44.3901 8.26002C43.0201 8.26002 42.1201 9.11002 42.1201 10.53C42.1201 11.95 42.9801 12.81 44.3001 12.81C44.7801 12.81 45.1001 12.74 45.2701 12.66V10.98H44.1201V10.39H45.9801V13.1V13.11Z" fill="white" stroke="white" stroke-width="0.2" stroke-miterlimit="10"/>
<path d="M50.18 10.71H47.98V12.75H50.43V13.36H47.26V7.70996H50.31V8.31996H47.99V10.1H50.19V10.7L50.18 10.71Z" fill="white" stroke="white" stroke-width="0.2" stroke-miterlimit="10"/>
<path d="M52.76 8.32996H51.04V7.70996H55.22V8.32996H53.49V13.36H52.75V8.32996H52.76Z" fill="white" stroke="white" stroke-width="0.2" stroke-miterlimit="10"/>
<path d="M58.6902 7.70996V13.36H57.9602V7.70996H58.6902Z" fill="white" stroke="white" stroke-width="0.2" stroke-miterlimit="10"/>
<path d="M61.2 8.32996H59.48V7.70996H63.66V8.32996H61.93V13.36H61.19V8.32996H61.2Z" fill="white" stroke="white" stroke-width="0.2" stroke-miterlimit="10"/>
<path d="M71.2301 10.48C71.2301 12.42 70.0501 13.45 68.6101 13.45C67.1701 13.45 66.0701 12.29 66.0701 10.59C66.0701 8.79999 67.1801 7.62 68.6901 7.62C70.2001 7.62 71.2301 8.79999 71.2301 10.48ZM66.8501 10.57C66.8501 11.78 67.5001 12.86 68.6501 12.86C69.8001 12.86 70.4601 11.8 70.4601 10.51C70.4601 9.38999 69.8701 8.20999 68.6601 8.20999C67.4501 8.20999 66.8501 9.31999 66.8501 10.56V10.57Z" fill="white" stroke="white" stroke-width="0.2" stroke-miterlimit="10"/>
<path d="M72.3501 13.36V7.70996H73.1501L74.9601 10.57C75.3801 11.23 75.7101 11.83 75.9701 12.4H75.9901C75.9201 11.64 75.9101 10.95 75.9101 10.07V7.70996H76.6001V13.36H75.8601L74.0701 10.49C73.6801 9.85996 73.3001 9.21996 73.0101 8.60996H72.9801C73.0201 9.32996 73.0401 10.01 73.0401 10.95V13.36H72.3501Z" fill="white" stroke="white" stroke-width="0.2" stroke-miterlimit="10"/>
<path d="M68.14 22.11C65.79 22.11 63.87 23.9 63.87 26.36C63.87 28.82 65.79 30.61 68.14 30.61C70.49 30.61 72.4101 28.81 72.4101 26.36C72.4101 23.91 70.49 22.11 68.14 22.11ZM68.14 28.94C66.85 28.94 65.74 27.88 65.74 26.36C65.74 24.84 66.85 23.78 68.14 23.78C69.43 23.78 70.5401 24.83 70.5401 26.36C70.5401 27.89 69.43 28.94 68.14 28.94ZM58.8301 22.11C56.4801 22.11 54.5601 23.9 54.5601 26.36C54.5601 28.82 56.4801 30.61 58.8301 30.61C61.1801 30.61 63.1 28.81 63.1 26.36C63.1 23.91 61.1801 22.11 58.8301 22.11ZM58.8301 28.94C57.5401 28.94 56.43 27.88 56.43 26.36C56.43 24.84 57.5401 23.78 58.8301 23.78C60.1201 23.78 61.23 24.83 61.23 26.36C61.23 27.89 60.1201 28.94 58.8301 28.94ZM47.75 23.41V25.21H52.07C51.94 26.22 51.6 26.97 51.09 27.48C50.46 28.11 49.48 28.8 47.76 28.8C45.1 28.8 43.0201 26.66 43.0201 24C43.0201 21.34 45.1 19.2 47.76 19.2C49.19 19.2 50.24 19.76 51.01 20.49L52.28 19.22C51.2 18.19 49.7701 17.4 47.75 17.4C44.11 17.4 41.05 20.36 41.05 24.01C41.05 27.66 44.11 30.62 47.75 30.62C49.72 30.62 51.2001 29.98 52.3601 28.77C53.5501 27.58 53.92 25.9 53.92 24.55C53.92 24.13 53.89 23.74 53.82 23.42H47.75V23.41ZM93.06 24.81C92.71 23.86 91.63 22.1 89.42 22.1C87.21 22.1 85.4101 23.82 85.4101 26.35C85.4101 28.73 87.21 30.6 89.63 30.6C91.58 30.6 92.71 29.41 93.17 28.72L91.7201 27.75C91.2401 28.46 90.58 28.93 89.63 28.93C88.68 28.93 88 28.5 87.57 27.64L93.2601 25.29L93.07 24.81H93.06ZM87.2601 26.23C87.2101 24.59 88.5301 23.75 89.4801 23.75C90.2201 23.75 90.85 24.12 91.06 24.65L87.2601 26.23ZM82.64 30.35H84.5101V17.85H82.64V30.35ZM79.5801 23.05H79.52C79.1 22.55 78.3 22.1 77.28 22.1C75.15 22.1 73.2 23.97 73.2 26.37C73.2 28.77 75.15 30.61 77.28 30.61C78.29 30.61 79.1 30.16 79.52 29.64H79.5801V30.25C79.5801 31.88 78.71 32.75 77.31 32.75C76.17 32.75 75.46 31.93 75.17 31.24L73.5401 31.92C74.0101 33.05 75.25 34.43 77.31 34.43C79.5 34.43 81.35 33.14 81.35 30V22.36H79.5801V23.05ZM77.4401 28.93C76.1501 28.93 75.07 27.85 75.07 26.37C75.07 24.89 76.1501 23.78 77.4401 23.78C78.7301 23.78 79.71 24.88 79.71 26.37C79.71 27.86 78.7101 28.93 77.4401 28.93ZM101.82 17.85H97.35V30.35H99.2201V25.61H101.83C103.9 25.61 105.93 24.11 105.93 21.73C105.93 19.35 103.9 17.85 101.83 17.85H101.82ZM101.87 23.88H99.2201V19.59H101.87C103.27 19.59 104.06 20.75 104.06 21.73C104.06 22.71 103.27 23.87 101.87 23.87V23.88ZM113.4 22.08C112.05 22.08 110.65 22.68 110.07 23.99L111.73 24.68C112.08 23.99 112.74 23.76 113.43 23.76C114.39 23.76 115.38 24.34 115.39 25.37V25.5C115.05 25.31 114.33 25.02 113.44 25.02C111.65 25.02 109.84 26 109.84 27.83C109.84 29.5 111.3 30.58 112.94 30.58C114.19 30.58 114.89 30.02 115.32 29.36H115.38V30.32H117.18V25.53C117.18 23.31 115.52 22.07 113.38 22.07L113.4 22.08ZM113.17 28.93C112.56 28.93 111.71 28.62 111.71 27.87C111.71 26.91 112.77 26.54 113.69 26.54C114.51 26.54 114.9 26.72 115.39 26.96C115.25 28.12 114.25 28.94 113.17 28.94V28.93ZM123.75 22.35L121.61 27.77H121.55L119.33 22.35H117.32L120.65 29.93L118.75 34.14H120.7L125.83 22.35H123.76H123.75ZM106.94 30.35H108.81V17.85H106.94V30.35Z" fill="white"/>
<path d="M20.8412 19.9186L10.071 31.346C10.4048 32.5899 11.5374 33.5 12.8824 33.5C13.4184 33.5 13.924 33.3585 14.3589 33.0955L14.3892 33.0753L26.5043 26.0874L20.8311 19.9084L20.8412 19.9186Z" fill="#EA4335"/>
<path d="M31.7328 17.9768H31.7227L26.4944 14.9329L20.5986 20.1814L26.5146 26.0974L31.7227 23.0939C32.6329 22.5984 33.2497 21.6376 33.2497 20.5354C33.2497 19.4331 32.643 18.4723 31.7328 17.9869V17.9768Z" fill="#FBBC04"/>
<path d="M10.0711 9.66418C10.0104 9.90689 9.96997 10.1496 9.96997 10.4125V30.5977C9.96997 30.8606 10.0003 31.1033 10.0711 31.346L21.2053 20.2118L10.0711 9.66418Z" fill="#4285F4"/>
<path d="M20.9221 20.5051L26.4942 14.9329L14.3892 7.91463C13.9544 7.65169 13.4386 7.5 12.8824 7.5C11.5374 7.5 10.4048 8.42027 10.071 9.65403L20.9221 20.4949V20.5051Z" fill="#34A853"/>
<rect x="0.5" y="1" width="134" height="39" rx="6.5" stroke="#A6A6A6"/>
</svg>
