<svg width="1051" height="1050" viewBox="0 0 1051 1050" fill="none" xmlns="http://www.w3.org/2000/svg">
<g clip-path="url(#clip0_7_678)">
<path d="M289.928 289.429C248.595 330.762 218.871 382.247 203.742 438.709C188.613 495.171 188.613 554.62 203.742 611.082L235.907 602.463C222.291 551.648 222.291 498.143 235.907 447.327C249.523 396.511 276.275 350.175 313.475 312.975L289.928 289.429Z" fill="#F5F5FC"/>
<path opacity="0.14" d="M896.552 624.346C914.009 559.195 914.009 490.595 896.552 425.444C879.095 360.292 844.795 300.884 797.101 253.189L769.93 280.36C812.855 323.285 843.725 376.753 859.436 435.389C875.148 494.025 875.148 555.765 859.436 614.401L896.552 624.346Z" fill="#F5F5FC"/>
<path d="M691.895 813.282C739.32 785.901 779.261 747.246 808.179 700.742C837.097 654.238 854.1 601.319 857.682 546.675C861.264 492.03 851.313 437.345 828.713 387.464C806.112 337.583 771.558 294.046 728.113 260.709C684.667 227.372 633.67 205.264 579.639 196.343C525.609 187.423 470.212 191.965 418.356 209.568C366.5 227.17 319.785 257.29 282.35 297.259C244.915 337.228 217.915 385.812 203.742 438.708L216.916 442.238C230.509 391.509 256.403 344.914 292.305 306.583C328.207 268.251 373.008 239.364 422.74 222.483C472.472 205.601 525.6 201.245 577.418 209.8C629.235 218.355 678.143 239.558 719.81 271.529C761.476 303.501 794.614 345.255 816.289 393.093C837.964 440.931 847.507 493.376 844.072 545.783C840.637 598.189 824.331 648.94 796.597 693.54C768.863 738.139 730.558 775.21 685.075 801.47L691.895 813.282Z" fill="#F5F5FC"/>
<path opacity="0.14" d="M237.009 691.395C264.39 738.821 303.044 778.761 349.548 807.68C396.053 836.598 448.971 853.601 503.616 857.182C558.261 860.764 612.945 850.814 662.826 828.213C712.707 805.612 756.245 771.059 789.582 727.613C822.919 684.167 845.027 633.17 853.947 579.14C862.868 525.109 858.325 469.712 840.723 417.856C823.12 366 793 319.286 753.031 281.851C713.062 244.416 664.478 217.415 611.582 203.242L610.156 208.565C662.176 222.504 709.957 249.057 749.264 285.873C788.572 322.688 818.193 368.63 835.505 419.627C852.816 470.625 857.283 525.105 848.51 578.242C839.737 631.378 817.995 681.531 785.21 724.258C752.424 766.985 709.608 800.967 660.552 823.193C611.497 845.42 557.717 855.206 503.976 851.683C450.236 848.161 398.193 831.439 352.458 803C306.724 774.56 268.709 735.28 241.781 688.64L237.009 691.395Z" fill="#F5F5FC"/>
<path d="M339.895 203.6C297.702 227.96 260.72 260.392 231.061 299.045C201.402 337.697 179.646 381.813 167.037 428.873L172.967 430.462C185.368 384.181 206.763 340.795 235.932 302.782C265.1 264.769 301.47 232.874 342.965 208.917L339.895 203.6Z" fill="#F9BB19"/>
</g>
<defs>
<clipPath id="clip0_7_678">
<rect width="1049.79" height="1049.79" fill="white" transform="translate(0.5)"/>
</clipPath>
</defs>
</svg>
