<svg width="37" height="36" fill="none" xmlns="http://www.w3.org/2000/svg"><rect x=".5" width="36" height="36" rx="18" fill="url(#a)"/><path d="M24.238 9.321c-2.161 0-3.85 1.628-5.38 3.696-2.102-2.676-3.86-3.696-5.963-3.696-4.288 0-7.573 5.581-7.573 11.488 0 3.696 1.788 6.027 4.783 6.027 2.156 0 3.706-1.016 6.462-5.834l1.94-3.426c.277.447.568.928.875 1.445l1.292 2.174c2.518 4.214 3.92 5.641 6.463 5.641 2.918 0 4.542-2.363 4.542-6.136 0-6.184-3.36-11.379-7.441-11.379Zm-9.772 10.377c-2.235 3.503-3.008 4.288-4.252 4.288-1.28 0-2.042-1.124-2.042-3.129 0-4.288 2.138-8.673 4.687-8.673 1.38 0 2.534.797 4.3 3.327-1.677 2.573-2.693 4.187-2.693 4.187Zm8.434-.441-1.546-2.578a52.817 52.817 0 0 0-1.205-1.878c1.392-2.15 2.541-3.22 3.908-3.22 2.838 0 5.11 4.179 5.11 9.312 0 1.957-.642 3.093-1.97 3.093-1.273 0-1.88-.84-4.297-4.73Z" fill="#fff"/><defs><linearGradient id="a" x1="32.8" y1="33.519" x2="8.038" y2="-4.775" gradientUnits="userSpaceOnUse"><stop offset=".13" stop-color="#0869E1"/><stop offset=".87" stop-color="#0064E0"/></linearGradient></defs></svg>