<svg width="36" height="36" fill="none" xmlns="http://www.w3.org/2000/svg"><g clip-path="url(#a)"><path d="M36 18c0-9.941-8.059-18-18-18S0 8.059 0 18s8.059 18 18 18 18-8.059 18-18Z" fill="url(#b)"/><path opacity=".1" d="M31.547 6.158c-2.624 4.817-6.335 9.786-10.973 14.424-4.637 4.637-9.606 8.341-14.416 10.965a17.186 17.186 0 0 1-.879-.82A18 18 0 1 1 30.728 5.273c.284.284.557.58.82.886Z" fill="#fff"/><path d="M22.263 8.526h-8.526a5.21 5.21 0 0 0-5.21 5.21v8.527a5.21 5.21 0 0 0 5.21 5.21h8.526a5.21 5.21 0 0 0 5.21-5.21v-8.526a5.21 5.21 0 0 0-5.21-5.21Zm3.553 12.989a4.301 4.301 0 0 1-4.301 4.3h-7.03a4.301 4.301 0 0 1-4.3-4.3v-7.03a4.301 4.301 0 0 1 4.3-4.3h7.03a4.301 4.301 0 0 1 4.3 4.3v7.03Z" fill="#fff"/><path d="m21.456 14.58-.045-.045-.038-.038A4.775 4.775 0 0 0 18 13.104 4.859 4.859 0 0 0 13.173 18c0 1.296.51 2.54 1.421 3.46a4.783 4.783 0 0 0 3.415 1.421 4.909 4.909 0 0 0 3.447-8.301ZM18 21.212A3.212 3.212 0 1 1 21.167 18 3.186 3.186 0 0 1 18 21.212Zm6.26-8.332a1.157 1.157 0 0 1-1.149 1.165 1.14 1.14 0 0 1-.81-.339 1.168 1.168 0 0 1 .813-1.987c.267 0 .526.094.731.265l.024.024a.723.723 0 0 1 .104.104l.026.029c.17.208.262.47.26.739Z" fill="#fff"/></g><defs><linearGradient id="b" x1="5.272" y1="5.272" x2="30.728" y2="30.728" gradientUnits="userSpaceOnUse"><stop stop-color="#FAE100"/><stop offset=".15" stop-color="#FCB720"/><stop offset=".3" stop-color="#FF7950"/><stop offset=".5" stop-color="#FF1C74"/><stop offset="1" stop-color="#6C1CD1"/></linearGradient><clipPath id="a"><path fill="#fff" d="M0 0h36v36H0z"/></clipPath></defs></svg>