<svg xmlns="http://www.w3.org/2000/svg" viewBox="0 0 21 19"><path d="M19.334 1.977a5.647 5.647 0 0 0-4.2-1.829 5.283 5.283 0 0 0-3.3 1.14A6.75 6.75 0 0 0 10.5 2.68a6.747 6.747 0 0 0-1.334-1.393 5.282 5.282 0 0 0-3.3-1.139c-1.621 0-3.113.65-4.2 1.829C.592 3.142 0 4.734 0 6.46c0 1.776.662 3.401 2.083 5.116 1.271 1.534 3.098 3.09 5.214 4.894.722.615 1.54 1.313 2.391 2.057a1.231 1.231 0 0 0 1.623 0c.85-.744 1.67-1.442 2.393-2.058 2.115-1.803 3.942-3.36 5.213-4.893C20.338 9.86 21 8.236 21 6.459c0-1.725-.592-3.317-1.666-4.482Z" fill="#fff"/></svg>