<svg width="36" height="36" fill="none" xmlns="http://www.w3.org/2000/svg"><g clip-path="url(#a)"><path d="M18 0c9.942 0 18 8.06 18 18s-8.058 18-18 18S0 27.94 0 18 8.058 0 18 0Z" fill="#0E76A8"/><path d="M10.143 24.732h3.37V13.498h-3.37v11.234Zm13.131-11.623c-1.636 0-3.1.597-4.138 1.915v-1.563h-3.382v11.271h3.382v-6.095c0-1.288 1.18-2.545 2.659-2.545 1.478 0 1.842 1.257 1.842 2.513v6.126h3.371v-6.377c0-4.429-2.097-5.245-3.734-5.245Zm-11.461-.734a1.688 1.688 0 1 0-.002-3.376 1.688 1.688 0 0 0 .002 3.376Z" fill="#fff"/></g><defs><clipPath id="a"><path fill="#fff" d="M0 0h36v36H0z"/></clipPath></defs></svg>