<svg width="1595" height="540" fill="none" xmlns="http://www.w3.org/2000/svg"><path opacity=".3" d="M17.693 43.753C9.933 24.006 26.101 3.14 47.16 5.721l886.405 108.674c3.265.4 6.433 1.372 9.36 2.872l555.505 284.589c25.28 12.953 17.44 50.974-10.91 52.859L232.93 538.141a27.997 27.997 0 0 1-27.918-17.697L17.693 43.754Z" fill="#F7BE2C"/><path opacity=".3" d="M13.383 41.99C7.377 22.416 23.724 3.226 44.003 6.043L1241.73 172.421c5.08.706 9.87 2.793 13.85 6.033l201.47 164.276c19.34 15.771 9.94 47.056-14.89 49.559L183.343 519.197c-13.282 1.339-25.662-6.884-29.577-19.646L13.383 41.99Z" fill="#F7BE2C"/><path d="M22.559 47.593c-9.416-20.315 7.64-42.916 29.76-39.433L1549.71 243.948c20.57 3.239 30.54 26.998 18.43 43.939l-102.19 142.984a27.993 27.993 0 0 1-21.62 11.696L247.696 492.224a28 28 0 0 1-26.565-16.201L22.559 47.593Z" fill="#F7BE2C"/></svg>