<svg width="37" height="36" fill="none" xmlns="http://www.w3.org/2000/svg"><g clip-path="url(#a)"><path d="M18.334 36.001c9.94 0 18-8.059 18-18 0-9.94-8.06-18-18-18-9.941 0-18 8.06-18 18 0 9.941 8.059 18 18 18Z" fill="#CB2027"/><path d="M19.786 24.104c-1.36-.105-1.933-.78-3-1.428-.586 3.077-1.303 6.027-3.426 7.568-.656-4.65.962-8.144 1.713-11.852-1.28-2.157.154-6.497 2.856-5.427 3.325 1.315-2.879 8.017 1.286 8.854 4.348.874 6.123-7.544 3.426-10.282-3.895-3.954-11.34-.09-10.424 5.57.223 1.383 1.652 1.803.57 3.712-2.493-.552-3.236-2.519-3.14-5.14.154-4.292 3.855-7.297 7.568-7.713 4.696-.526 9.104 1.724 9.712 6.141.684 4.986-2.12 10.384-7.14 9.997Z" fill="#F1F2F2"/></g><defs><clipPath id="a"><path fill="#fff" transform="translate(.333)" d="M0 0h36v36H0z"/></clipPath></defs></svg>