<svg width="291" height="165" fill="none" xmlns="http://www.w3.org/2000/svg"><path d="M15.28 10.166c-1.748 0-2.803-1.055-2.803-2.588V2.954h.88V7.52c0 1.084.703 1.835 1.923 1.835 1.221 0 1.914-.751 1.914-1.835V2.954h.88v4.624c0 1.533-1.046 2.588-2.794 2.588Zm6.28-.073c-1.172 0-1.978-.567-2.076-1.436h.87c.141.44.561.728 1.235.728.708 0 1.21-.337 1.21-.816v-.01c0-.356-.268-.605-.917-.761l-.816-.195c-.986-.235-1.43-.665-1.43-1.421v-.005c0-.874.84-1.533 1.958-1.533 1.103 0 1.87.551 1.987 1.41h-.835c-.112-.414-.522-.702-1.157-.702-.625 0-1.084.322-1.084.786v.01c0 .356.264.58.884.732l.81.195c.991.24 1.47.67 1.47 1.421v.01c0 .937-.913 1.587-2.11 1.587Zm5.576 0c-1.504 0-2.412-1.055-2.412-2.705v-.005c0-1.626.927-2.74 2.358-2.74 1.43 0 2.3 1.065 2.3 2.637v.332h-3.79c.025 1.09.626 1.724 1.563 1.724.713 0 1.153-.337 1.294-.654l.02-.044h.85l-.01.039c-.181.713-.933 1.416-2.173 1.416ZM27.077 5.4c-.781 0-1.377.533-1.47 1.534h2.91c-.087-1.04-.663-1.534-1.44-1.534ZM30.7 10V4.736h.85v.782h.078c.2-.552.693-.874 1.406-.874.161 0 .342.02.425.034v.825a3.057 3.057 0 0 0-.523-.049c-.81 0-1.386.513-1.386 1.284V10h-.85Zm8.77.093c-1.504 0-2.412-1.055-2.412-2.705v-.005c0-1.626.927-2.74 2.358-2.74 1.43 0 2.3 1.065 2.3 2.637v.332h-3.79c.025 1.09.626 1.724 1.563 1.724.713 0 1.153-.337 1.294-.654l.02-.044h.85l-.01.039c-.181.713-.933 1.416-2.173 1.416ZM39.41 5.4c-.781 0-1.377.533-1.47 1.534h2.91c-.087-1.04-.663-1.534-1.44-1.534Zm3.623 4.6V4.736h.85v.791h.078c.264-.556.757-.883 1.533-.883 1.182 0 1.84.698 1.84 1.948V10h-.849V6.797c0-.947-.39-1.401-1.23-1.401s-1.372.566-1.372 1.489V10h-.85Zm7.71.04c-1.084 0-1.538-.401-1.538-1.407V5.439h-.83v-.703h.83V3.374h.879v1.362h1.152v.703h-1.152v2.979c0 .62.215.87.762.87.151 0 .234-.006.39-.02v.722c-.166.03-.327.05-.493.05Zm3.833.053c-1.504 0-2.412-1.055-2.412-2.705v-.005c0-1.626.928-2.74 2.358-2.74 1.431 0 2.3 1.065 2.3 2.637v.332h-3.789c.025 1.09.625 1.724 1.563 1.724.713 0 1.152-.337 1.294-.654l.02-.044h.849l-.01.039c-.18.713-.933 1.416-2.173 1.416ZM54.52 5.4c-.782 0-1.377.533-1.47 1.534h2.91c-.088-1.04-.664-1.534-1.44-1.534Zm3.623 4.6V4.736h.85v.782h.077c.2-.552.694-.874 1.407-.874.16 0 .341.02.424.034v.825a3.057 3.057 0 0 0-.522-.049c-.81 0-1.387.513-1.387 1.284V10h-.85Zm5.81.093c-1.504 0-2.412-1.055-2.412-2.705v-.005c0-1.626.928-2.74 2.358-2.74 1.431 0 2.3 1.065 2.3 2.637v.332H62.41c.025 1.09.625 1.724 1.563 1.724.713 0 1.152-.337 1.294-.654l.02-.044h.849l-.01.039c-.18.713-.933 1.416-2.173 1.416ZM63.894 5.4c-.782 0-1.377.533-1.47 1.534h2.91c-.088-1.04-.664-1.534-1.44-1.534Zm5.566 4.693c-1.333 0-2.207-1.08-2.207-2.72v-.01c0-1.65.87-2.72 2.207-2.72.723 0 1.353.362 1.64.923h.079v-2.92h.85V10h-.85v-.84H71.1c-.323.586-.909.933-1.641.933Zm.195-.752c.957 0 1.543-.752 1.543-1.968v-.01c0-1.216-.586-1.967-1.543-1.967-.962 0-1.533.742-1.533 1.967v.01c0 1.226.571 1.968 1.533 1.968ZM76.52 10V2.646h.85v4.39h.078l2.276-2.3h1.03l-2.295 2.212L80.905 10h-1.07l-1.972-2.476-.493.479V10h-.85Zm7.286.093c-1.504 0-2.412-1.055-2.412-2.705v-.005c0-1.626.927-2.74 2.358-2.74 1.43 0 2.3 1.065 2.3 2.637v.332h-3.79c.025 1.09.626 1.724 1.563 1.724.713 0 1.153-.337 1.294-.654l.02-.044h.85l-.01.039c-.181.713-.933 1.416-2.173 1.416ZM83.747 5.4c-.781 0-1.377.533-1.47 1.534h2.91c-.087-1.04-.664-1.534-1.44-1.534Zm3.975 6.446a2.49 2.49 0 0 1-.376-.03v-.698c.102.02.234.025.351.025.484 0 .777-.22.967-.826l.098-.312-1.948-5.269h.908l1.445 4.331h.078l1.44-4.33h.894l-2.056 5.585c-.434 1.182-.869 1.524-1.801 1.524ZM0 16h103.5v1H0zm5.47 15 2.598-7.046h.87L11.534 31h-.923l-.708-2.017H7.102L6.394 31H5.47Zm2.994-5.908L7.36 28.236h2.286l-1.104-3.144h-.078ZM13.469 31l-1.948-5.264h.898l1.44 4.336h.079l1.44-4.336h.898L14.328 31h-.86Zm5.883.093c-1.503 0-2.412-1.055-2.412-2.705v-.005c0-1.626.928-2.74 2.359-2.74 1.43 0 2.3 1.065 2.3 2.637v.332h-3.79c.025 1.09.626 1.724 1.563 1.724.713 0 1.152-.337 1.294-.654l.02-.044h.85l-.01.039c-.181.713-.933 1.416-2.174 1.416Zm-.058-4.693c-.781 0-1.377.533-1.47 1.534h2.91c-.088-1.04-.664-1.534-1.44-1.534Zm3.623 4.6v-5.264h.85v.782h.078c.2-.552.693-.874 1.406-.874.161 0 .342.02.425.034v.825a3.057 3.057 0 0 0-.523-.049c-.81 0-1.386.513-1.386 1.284V31h-.85Zm5.254.093c-1.001 0-1.758-.606-1.758-1.563v-.01c0-.937.693-1.479 1.919-1.552l1.509-.093v-.479c0-.649-.396-1-1.182-1-.63 0-1.045.234-1.181.644l-.005.015h-.85l.005-.03c.137-.825.937-1.381 2.06-1.381 1.285 0 2.002.659 2.002 1.753V31h-.85v-.776h-.077c-.332.561-.884.869-1.592.869Zm-.889-1.582c0 .532.454.845 1.065.845.864 0 1.494-.567 1.494-1.319v-.478l-1.406.087c-.801.05-1.153.332-1.153.855v.01ZM32.243 31v-5.264h.85v.791h.078c.264-.556.757-.883 1.533-.883 1.182 0 1.84.698 1.84 1.948V31h-.849v-3.203c0-.947-.39-1.402-1.23-1.402s-1.372.567-1.372 1.49V31h-.85Zm8.008 1.855c-1.27 0-2.08-.57-2.212-1.435l.01-.005h.879l.005.005c.092.4.561.683 1.318.683.942 0 1.504-.444 1.504-1.22v-1.065h-.078c-.332.581-.928.909-1.65.909-1.363 0-2.208-1.055-2.208-2.53v-.01c0-1.474.85-2.543 2.227-2.543.742 0 1.318.366 1.64.962h.06v-.87h.849v5.19c0 1.177-.908 1.93-2.344 1.93Zm-.04-2.88c.977 0 1.563-.733 1.563-1.778v-.01c0-1.044-.59-1.792-1.562-1.792-.977 0-1.524.748-1.524 1.793v.01c0 1.044.547 1.777 1.524 1.777Zm6.114 1.118c-1.504 0-2.412-1.055-2.412-2.705v-.005c0-1.626.928-2.74 2.359-2.74 1.43 0 2.3 1.065 2.3 2.637v.332h-3.79c.025 1.09.625 1.724 1.563 1.724.713 0 1.152-.337 1.294-.654l.02-.044h.849l-.01.039c-.18.713-.933 1.416-2.173 1.416Zm-.058-4.693c-.782 0-1.377.533-1.47 1.534h2.91c-.088-1.04-.664-1.534-1.44-1.534Zm8.305 4.64c-1.084 0-1.538-.401-1.538-1.407v-3.194h-.83v-.703h.83v-1.362h.88v1.362h1.151v.703h-1.152v2.979c0 .62.215.87.762.87.151 0 .234-.006.39-.02v.722c-.166.03-.327.05-.493.05Zm3.208.053c-1 0-1.758-.606-1.758-1.563v-.01c0-.937.694-1.479 1.92-1.552l1.508-.093v-.479c0-.649-.395-1-1.181-1-.63 0-1.045.234-1.182.644l-.005.015h-.85l.005-.03c.137-.825.938-1.381 2.06-1.381 1.285 0 2.003.659 2.003 1.753V31h-.85v-.776h-.078c-.332.561-.884.869-1.592.869Zm-.888-1.582c0 .532.454.845 1.064.845.864 0 1.494-.567 1.494-1.319v-.478l-1.406.087c-.8.05-1.152.332-1.152.855v.01Zm7.128 3.345c-1.269 0-2.08-.572-2.211-1.436l.01-.005h.878l.005.005c.093.4.562.683 1.319.683.942 0 1.503-.444 1.503-1.22v-1.065h-.078c-.332.581-.927.909-1.65.909-1.362 0-2.207-1.055-2.207-2.53v-.01c0-1.474.85-2.543 2.226-2.543.743 0 1.319.366 1.641.962h.059v-.87h.85v5.19c0 1.177-.909 1.93-2.344 1.93Zm-.039-2.881c.977 0 1.563-.733 1.563-1.778v-.01c0-1.044-.59-1.792-1.563-1.792-.976 0-1.523.748-1.523 1.793v.01c0 1.044.547 1.777 1.523 1.777Zm8.54 1.118c-1.196 0-1.811-.703-1.811-1.948v-3.409h.85v3.203c0 .948.341 1.402 1.181 1.402.928 0 1.421-.567 1.421-1.49v-3.115h.85V31h-.85v-.786h-.078c-.259.561-.791.879-1.563.879Zm5.884 0c-1.172 0-1.977-.567-2.075-1.436h.87c.14.44.56.728 1.235.728.708 0 1.21-.337 1.21-.816v-.01c0-.356-.268-.605-.917-.761l-.816-.195c-.986-.235-1.43-.665-1.43-1.421v-.005c0-.874.84-1.533 1.957-1.533 1.104 0 1.87.551 1.988 1.41h-.835c-.112-.414-.523-.702-1.157-.702-.625 0-1.084.322-1.084.786v.01c0 .356.263.58.883.732l.81.195c.992.24 1.47.67 1.47 1.421v.01c0 .937-.912 1.587-2.109 1.587Zm4.873 0c-1 0-1.758-.606-1.758-1.563v-.01c0-.937.694-1.479 1.92-1.552l1.508-.093v-.479c0-.649-.395-1-1.181-1-.63 0-1.045.234-1.182.644l-.005.015h-.85l.005-.03c.137-.825.938-1.381 2.06-1.381 1.285 0 2.003.659 2.003 1.753V31h-.85v-.776h-.078c-.332.561-.884.869-1.592.869Zm-.888-1.582c0 .532.454.845 1.064.845.864 0 1.494-.567 1.494-1.319v-.478l-1.406.087c-.8.05-1.152.332-1.152.855v.01Zm7.129 3.345c-1.27 0-2.08-.572-2.212-1.436l.01-.005h.878l.005.005c.093.4.562.683 1.319.683.942 0 1.503-.444 1.503-1.22v-1.065h-.078c-.332.581-.927.909-1.65.909-1.362 0-2.207-1.055-2.207-2.53v-.01c0-1.474.85-2.543 2.227-2.543.742 0 1.318.366 1.64.962h.059v-.87h.85v5.19c0 1.177-.909 1.93-2.344 1.93Zm-.04-2.881c.977 0 1.563-.733 1.563-1.778v-.01c0-1.044-.59-1.792-1.563-1.792-.976 0-1.523.748-1.523 1.793v.01c0 1.044.547 1.777 1.523 1.777Zm6.114 1.118c-1.504 0-2.412-1.055-2.412-2.705v-.005c0-1.626.927-2.74 2.358-2.74 1.43 0 2.3 1.065 2.3 2.637v.332h-3.79c.025 1.09.626 1.724 1.563 1.724.713 0 1.153-.337 1.294-.654l.02-.044h.85l-.01.039c-.181.713-.933 1.416-2.173 1.416Zm-.059-4.693c-.781 0-1.377.533-1.47 1.534h2.91c-.087-1.04-.663-1.534-1.44-1.534ZM33.547 44.758c-.952-1.265-1.387-2.74-1.387-4.556 0-1.811.43-3.29 1.387-4.555h.713c-.708.903-1.236 2.86-1.236 4.555 0 1.71.528 3.653 1.236 4.556h-.713Zm3.486-1.665c-1 0-1.758-.606-1.758-1.563v-.01c0-.937.694-1.479 1.92-1.552l1.508-.093v-.478c0-.65-.395-1.002-1.181-1.002-.63 0-1.045.235-1.182.645l-.005.015h-.85l.005-.03c.137-.825.938-1.381 2.06-1.381 1.285 0 2.003.659 2.003 1.753V43h-.85v-.776h-.078c-.332.561-.884.869-1.592.869Zm-.889-1.582c0 .532.455.844 1.065.844.864 0 1.494-.566 1.494-1.318v-.478l-1.406.088c-.8.048-1.152.331-1.152.854v.01ZM41.154 43v-7.353h.85V43h-.85Zm2.53 0v-7.353h.85V43h-.85Zm7.163.04c-1.084 0-1.538-.401-1.538-1.407v-3.194h-.83v-.703h.83v-1.362h.879v1.362h1.152v.704h-1.153v2.978c0 .62.215.87.762.87.152 0 .235-.006.39-.02v.722c-.165.03-.326.05-.492.05Zm2.212-6.32a.588.588 0 0 1-.586-.585c0-.322.263-.586.586-.586.322 0 .586.264.586.586a.588.588 0 0 1-.586.586Zm-.43 6.28v-5.264h.85V43h-.85Zm2.451 0v-5.264h.85v.801h.078c.234-.566.732-.893 1.42-.893.714 0 1.212.376 1.456.922h.078c.283-.556.884-.922 1.611-.922 1.075 0 1.675.615 1.675 1.718V43h-.85v-3.442c0-.777-.356-1.163-1.098-1.163-.733 0-1.216.552-1.216 1.221V43h-.85v-3.574c0-.625-.43-1.03-1.093-1.03-.689 0-1.211.6-1.211 1.342V43h-.85Zm10.85.093c-1.504 0-2.412-1.055-2.412-2.705v-.005c0-1.626.927-2.74 2.358-2.74 1.43 0 2.3 1.065 2.3 2.637v.332h-3.79c.025 1.09.626 1.724 1.563 1.724.713 0 1.153-.337 1.294-.654l.02-.044h.85l-.01.039c-.181.713-.933 1.416-2.173 1.416Zm-.06-4.693c-.781 0-1.377.533-1.47 1.534h2.91c-.087-1.04-.664-1.534-1.44-1.534Zm4.082 6.358h-.713c.708-.904 1.236-2.847 1.236-4.556 0-1.694-.528-3.652-1.236-4.555h.713c.957 1.264 1.387 2.744 1.387 4.555 0 1.817-.435 3.291-1.387 4.556Z" fill="#202020"/><path d="m120.429 29.571 14.142-14.142m-14.142 0 14.142 14.142" stroke="#202020" stroke-linecap="round"/><path d="M165.047 10V2.954h.879v3.423h.078l3.086-3.423h1.103l-2.817 3.042L170.452 10h-1.138l-2.543-3.394-.845.933V10h-.879Zm8.242.093c-1.504 0-2.412-1.055-2.412-2.705v-.005c0-1.626.928-2.74 2.358-2.74 1.431 0 2.3 1.065 2.3 2.637v.332h-3.789c.025 1.09.625 1.724 1.563 1.724.712 0 1.152-.337 1.294-.654l.019-.044h.85l-.01.039c-.181.713-.933 1.416-2.173 1.416ZM173.23 5.4c-.781 0-1.376.533-1.469 1.534h2.91c-.088-1.04-.664-1.534-1.441-1.534Zm3.975 6.446a2.43 2.43 0 0 1-.376-.03v-.698c.103.02.234.025.352.025.483 0 .776-.22.966-.826l.098-.312-1.948-5.269h.908l1.445 4.331h.079l1.44-4.33h.893l-2.055 5.585c-.435 1.182-.869 1.524-1.802 1.524Zm9.941-1.753c-1.503 0-2.412-1.055-2.412-2.705v-.005c0-1.626.928-2.74 2.359-2.74 1.43 0 2.3 1.065 2.3 2.637v.332h-3.789c.024 1.09.625 1.724 1.562 1.724.713 0 1.152-.337 1.294-.654l.019-.044h.85l-.01.039c-.18.713-.932 1.416-2.173 1.416Zm-.058-4.693c-.781 0-1.377.533-1.47 1.534h2.91c-.088-1.04-.664-1.534-1.44-1.534Zm3.974 4.6V5.44h-.874v-.704h.874V4.15c0-1.05.528-1.552 1.529-1.552.205 0 .39.014.566.048v.68a2.303 2.303 0 0 0-.395-.025c-.606 0-.85.298-.85.874v.561h1.196v.703h-1.196V10h-.85Zm3.624 0V5.44h-.874v-.704h.874V4.15c0-1.05.527-1.552 1.528-1.552.205 0 .39.014.566.048v.68a2.303 2.303 0 0 0-.395-.025c-.606 0-.85.298-.85.874v.561h1.196v.703h-1.196V10h-.849Zm3.72-6.28a.588.588 0 0 1-.586-.585.587.587 0 0 1 1.172 0 .587.587 0 0 1-.586.586Zm-.429 6.28V4.736h.849V10h-.849Zm4.604.093c-1.475 0-2.417-1.07-2.417-2.74v-.01c0-1.635.938-2.7 2.412-2.7 1.279 0 2.046.738 2.202 1.675l.005.03h-.845l-.004-.015c-.132-.518-.601-.937-1.358-.937-.947 0-1.543.761-1.543 1.948v.01c0 1.21.606 1.987 1.543 1.987.708 0 1.157-.313 1.353-.899l.009-.029.84-.005-.009.054c-.215.952-.923 1.63-2.188 1.63Zm3.892-6.372a.587.587 0 0 1-.586-.586.587.587 0 0 1 1.172 0 .588.588 0 0 1-.586.586Zm-.43 6.279V4.736h.85V10h-.85Zm4.6.093c-1.504 0-2.413-1.055-2.413-2.705v-.005c0-1.626.928-2.74 2.359-2.74s2.3 1.065 2.3 2.637v.332H209.1c.024 1.09.625 1.724 1.562 1.724.713 0 1.152-.337 1.294-.654l.02-.044h.849l-.01.039c-.18.713-.932 1.416-2.172 1.416Zm-.059-4.693c-.781 0-1.377.533-1.47 1.534h2.91c-.087-1.04-.664-1.534-1.44-1.534Zm3.623 4.6V4.736h.85v.791h.078c.263-.556.757-.883 1.533-.883 1.182 0 1.841.698 1.841 1.948V10h-.85V6.797c0-.947-.39-1.401-1.23-1.401s-1.372.566-1.372 1.489V10h-.85Zm7.993.093c-1.474 0-2.417-1.07-2.417-2.74v-.01c0-1.635.938-2.7 2.412-2.7 1.28 0 2.046.738 2.202 1.675l.005.03h-.844l-.005-.015c-.132-.518-.601-.937-1.358-.937-.947 0-1.543.761-1.543 1.948v.01c0 1.21.606 1.987 1.543 1.987.708 0 1.158-.313 1.353-.899l.01-.029.839-.005-.009.054c-.215.952-.923 1.63-2.188 1.63Zm3.892 1.753a2.42 2.42 0 0 1-.376-.03v-.698c.102.02.234.025.351.025.484 0 .777-.22.967-.826l.098-.312-1.948-5.269h.908l1.445 4.331h.078l1.441-4.33h.893l-2.055 5.585c-.435 1.182-.87 1.524-1.802 1.524Zm9.101-5.186c-.898 0-1.44-.732-1.44-1.9v-.004c0-1.167.542-1.895 1.44-1.895.899 0 1.446.728 1.446 1.895v.005c0 1.167-.547 1.9-1.446 1.9Zm.528 3.34h-.791l4.795-7.046h.791L235.721 10Zm-.528-3.92c.484 0 .767-.494.767-1.32v-.004c0-.825-.283-1.314-.767-1.314-.483 0-.761.489-.761 1.314v.005c0 .825.278 1.318.761 1.318Zm5.049 4.013c-.898 0-1.44-.733-1.44-1.9v-.005c0-1.167.542-1.894 1.44-1.894.899 0 1.446.727 1.446 1.894v.005c0 1.167-.547 1.9-1.446 1.9Zm0-.581c.484 0 .767-.493.767-1.319v-.005c0-.825-.283-1.313-.767-1.313-.483 0-.762.488-.762 1.313v.005c0 .826.279 1.319.762 1.319ZM151.5 16H255v1H151.5zm16.433 15v-7.046h2.417c2.089 0 3.325 1.304 3.325 3.516v.01c0 2.216-1.231 3.52-3.325 3.52h-2.417Zm.879-.791h1.479c1.572 0 2.485-1.006 2.485-2.72v-.01c0-1.718-.922-2.734-2.485-2.734h-1.479v5.464Zm7.724.884c-1.001 0-1.758-.606-1.758-1.563v-.01c0-.937.694-1.479 1.919-1.552l1.509-.093v-.479c0-.649-.395-1-1.182-1-.629 0-1.045.234-1.181.644l-.005.015h-.85l.005-.03c.137-.825.938-1.381 2.061-1.381 1.284 0 2.002.659 2.002 1.753V31h-.85v-.776h-.078c-.332.561-.884.869-1.592.869Zm-.889-1.582c0 .532.455.845 1.065.845.864 0 1.494-.567 1.494-1.319v-.478l-1.406.087c-.801.05-1.153.332-1.153.855v.01Zm5.411-4.79a.587.587 0 0 1-.586-.586.587.587 0 0 1 1.172 0 .588.588 0 0 1-.586.586Zm-.43 6.279v-5.264h.85V31h-.85Zm2.5 0v-7.354h.85V31h-.85Zm2.93 1.846a2.42 2.42 0 0 1-.376-.03v-.698c.102.02.234.025.351.025.484 0 .777-.22.967-.826l.098-.312-1.949-5.269h.909l1.445 4.331h.078l1.44-4.33h.894l-2.056 5.585c-.434 1.182-.869 1.524-1.801 1.524ZM193.899 31v-7.354h.85v4.39h.078l2.276-2.3h1.03l-2.295 2.212L198.284 31h-1.069l-1.973-2.476-.493.479V31h-.85Zm7.286.093c-1.504 0-2.413-1.055-2.413-2.705v-.005c0-1.626.928-2.74 2.359-2.74s2.3 1.065 2.3 2.637v.332h-3.789c.024 1.09.625 1.724 1.562 1.724.713 0 1.152-.337 1.294-.654l.02-.044h.849l-.01.039c-.18.713-.932 1.416-2.172 1.416Zm-.059-4.693c-.781 0-1.377.533-1.47 1.534h2.91c-.087-1.04-.664-1.534-1.44-1.534Zm3.975 6.446a2.42 2.42 0 0 1-.376-.03v-.698c.102.02.234.025.351.025.484 0 .777-.22.967-.826l.098-.312-1.949-5.269h.909l1.445 4.331h.078l1.44-4.33h.894l-2.056 5.585c-.434 1.182-.869 1.524-1.801 1.524ZM212.894 31v-5.264h.849v.782h.078c.2-.552.694-.874 1.407-.874.161 0 .341.02.424.034v.825a3.049 3.049 0 0 0-.522-.049c-.811 0-1.387.513-1.387 1.284V31h-.849Zm5.253.093c-1.001 0-1.757-.606-1.757-1.563v-.01c0-.937.693-1.479 1.919-1.552l1.508-.093v-.479c0-.649-.395-1-1.181-1-.63 0-1.045.234-1.182.644l-.005.015h-.849l.004-.03c.137-.825.938-1.381 2.061-1.381 1.284 0 2.002.659 2.002 1.753V31h-.85v-.776h-.078c-.332.561-.884.869-1.592.869Zm-.888-1.582c0 .532.454.845 1.064.845.865 0 1.494-.567 1.494-1.319v-.478l-1.406.087c-.801.05-1.152.332-1.152.855v.01Zm6.831 1.528c-1.084 0-1.538-.4-1.538-1.406v-3.194h-.83v-.703h.83v-1.362h.879v1.362h1.152v.703h-1.152v2.979c0 .62.215.87.761.87.152 0 .235-.006.391-.02v.722c-.166.03-.327.05-.493.05Zm2.212-6.318a.587.587 0 0 1-.586-.586.587.587 0 0 1 1.172 0 .588.588 0 0 1-.586.586Zm-.43 6.279v-5.264h.85V31h-.85Zm2.451 0v-5.264h.85v.791h.078c.264-.556.757-.883 1.533-.883 1.182 0 1.841.698 1.841 1.948V31h-.85v-3.203c0-.947-.39-1.402-1.23-1.402s-1.372.567-1.372 1.49V31h-.85Zm8.008 1.855c-1.269 0-2.08-.57-2.212-1.435l.01-.005h.879l.005.005c.092.4.561.683 1.318.683.942 0 1.504-.444 1.504-1.22v-1.065h-.078c-.332.581-.928.909-1.651.909-1.362 0-2.207-1.055-2.207-2.53v-.01c0-1.474.85-2.543 2.227-2.543.742 0 1.318.366 1.641.962h.058v-.87h.85v5.19c0 1.177-.908 1.93-2.344 1.93Zm-.039-2.88c.977 0 1.562-.733 1.562-1.778v-.01c0-1.044-.59-1.792-1.562-1.792-.977 0-1.523.748-1.523 1.793v.01c0 1.044.546 1.777 1.523 1.777Zm-48.657 14.783c-.952-1.265-1.387-2.74-1.387-4.556 0-1.811.43-3.29 1.387-4.555h.713c-.708.903-1.236 2.86-1.236 4.555 0 1.71.528 3.653 1.236 4.556h-.713Zm3.486-1.665c-1.001 0-1.758-.606-1.758-1.563v-.01c0-.937.694-1.479 1.919-1.552l1.509-.093v-.478c0-.65-.395-1.002-1.182-1.002-.63 0-1.045.235-1.181.645l-.005.015h-.85l.005-.03c.137-.825.938-1.381 2.061-1.381 1.284 0 2.002.659 2.002 1.753V43h-.85v-.776h-.078c-.332.561-.884.869-1.592.869Zm-.889-1.582c0 .532.455.844 1.065.844.864 0 1.494-.566 1.494-1.318v-.478l-1.406.088c-.801.048-1.153.331-1.153.854v.01Zm7.115 1.582c-1.475 0-2.417-1.07-2.417-2.74v-.01c0-1.635.937-2.7 2.412-2.7 1.279 0 2.046.738 2.202 1.675l.005.03h-.845l-.005-.015c-.132-.518-.6-.938-1.357-.938-.947 0-1.543.762-1.543 1.949v.01c0 1.21.605 1.987 1.543 1.987.708 0 1.157-.313 1.352-.899l.01-.029.84-.005-.01.054c-.215.952-.923 1.63-2.187 1.63Zm5.41-.054c-1.084 0-1.538-.4-1.538-1.406v-3.194h-.83v-.703h.83v-1.362h.879v1.362h1.152v.704h-1.152v2.978c0 .62.214.87.761.87.152 0 .235-.006.391-.02v.722c-.166.03-.327.05-.493.05Zm3.525.054c-1.196 0-1.811-.703-1.811-1.949v-3.408h.849v3.204c0 .947.342 1.4 1.182 1.4.928 0 1.421-.566 1.421-1.488v-3.116h.849V43h-.849v-.786h-.078c-.259.561-.791.879-1.563.879Zm5.523 0c-1.001 0-1.758-.606-1.758-1.563v-.01c0-.937.693-1.479 1.919-1.552l1.509-.093v-.478c0-.65-.396-1.002-1.182-1.002-.63 0-1.045.235-1.182.645l-.005.015h-.849l.005-.03c.136-.825.937-1.381 2.06-1.381 1.284 0 2.002.659 2.002 1.753V43h-.849v-.776h-.079c-.332.561-.883.869-1.591.869Zm-.889-1.582c0 .532.454.844 1.064.844.865 0 1.495-.566 1.495-1.318v-.478l-1.407.088c-.8.048-1.152.331-1.152.854v.01Zm5.01 1.489v-7.353h.849V43h-.849Zm2.939 1.758h-.713c.708-.904 1.236-2.847 1.236-4.556 0-1.694-.528-3.652-1.236-4.555h.713c.957 1.264 1.387 2.744 1.387 4.555 0 1.817-.435 3.291-1.387 4.556Z" fill="#202020"/><path d="m271.929 29.571 14.142-14.142m-14.142 0 14.142 14.142M4.929 76.071 19.071 61.93m-14.142-.001L19.071 76.07" stroke="#202020" stroke-linecap="round"/><path d="M39.419 67v-7.046h1.02l2.413 5.879h.078l2.412-5.879h1.02V67h-.82v-5.38h-.054L43.262 67h-.742l-2.227-5.38h-.054V67h-.82Zm8.179 0 2.597-7.046h.87L53.662 67h-.923l-.708-2.017h-2.803L48.52 67h-.922Zm2.993-5.908-1.104 3.144h2.285l-1.103-3.144h-.078ZM54.434 67l2.402-3.54v-.02l-2.373-3.486h1.06l1.884 2.837h.03l1.904-2.837h1l-2.436 3.53v.02L60.288 67h-1.055l-1.875-2.813h-.029L55.43 67h-.995Zm12.104.093c-1.504 0-2.412-1.055-2.412-2.705v-.005c0-1.626.928-2.74 2.358-2.74 1.431 0 2.3 1.065 2.3 2.637v.332h-3.789c.024 1.09.625 1.724 1.563 1.724.712 0 1.152-.337 1.294-.654l.02-.044h.849l-.01.039c-.18.713-.933 1.416-2.173 1.416ZM66.48 62.4c-.782 0-1.377.533-1.47 1.534h2.91c-.088-1.04-.664-1.534-1.44-1.534Zm3.623 4.6v-5.264h.85v.791h.077c.264-.556.757-.883 1.534-.883 1.181 0 1.84.698 1.84 1.948V67h-.85v-3.203c0-.947-.39-1.401-1.23-1.401s-1.372.566-1.372 1.489V67h-.85Zm7.71.04c-1.085 0-1.539-.401-1.539-1.407V62.44h-.83v-.704h.83v-1.362h.88v1.362h1.152v.704h-1.153v2.978c0 .62.215.87.762.87.151 0 .234-.006.39-.02v.722c-.165.03-.327.05-.493.05Zm3.832.053c-1.503 0-2.412-1.055-2.412-2.705v-.005c0-1.626.928-2.74 2.359-2.74 1.43 0 2.3 1.065 2.3 2.637v.332h-3.79c.025 1.09.626 1.724 1.563 1.724.713 0 1.152-.337 1.294-.654l.02-.044h.85l-.01.039c-.181.713-.933 1.416-2.174 1.416Zm-.058-4.693c-.781 0-1.377.533-1.47 1.534h2.91c-.088-1.04-.664-1.534-1.44-1.534ZM85.21 67v-5.264h.85v.782h.078c.2-.552.693-.874 1.406-.874.161 0 .342.02.425.034v.825a3.058 3.058 0 0 0-.523-.049c-.81 0-1.386.513-1.386 1.284V67h-.85Zm5.81.093c-1.503 0-2.412-1.055-2.412-2.705v-.005c0-1.626.928-2.74 2.359-2.74 1.43 0 2.3 1.065 2.3 2.637v.332h-3.79c.025 1.09.626 1.724 1.563 1.724.713 0 1.152-.337 1.294-.654l.02-.044h.85l-.01.039c-.181.713-.933 1.416-2.174 1.416Zm-.058-4.693c-.781 0-1.377.533-1.47 1.534h2.91c-.088-1.04-.664-1.534-1.44-1.534Zm5.566 4.693c-1.333 0-2.207-1.08-2.207-2.72v-.01c0-1.65.87-2.72 2.207-2.72.723 0 1.353.362 1.64.923h.08v-2.92h.849V67h-.85v-.84h-.078c-.322.586-.908.933-1.64.933Zm.196-.752c.957 0 1.543-.752 1.543-1.968v-.01c0-1.215-.586-1.968-1.543-1.968-.962 0-1.534.743-1.534 1.968v.01c0 1.226.572 1.968 1.534 1.968Zm6.865.659v-7.353h.849v4.39h.079l2.275-2.3h1.03l-2.295 2.211L107.974 67h-1.07l-1.972-2.476-.494.479V67h-.849Zm7.285.093c-1.504 0-2.412-1.055-2.412-2.705v-.005c0-1.626.928-2.74 2.358-2.74 1.431 0 2.3 1.065 2.3 2.637v.332h-3.789c.024 1.09.625 1.724 1.563 1.724.712 0 1.152-.337 1.294-.654l.019-.044h.85l-.01.039c-.181.713-.933 1.416-2.173 1.416Zm-.059-4.693c-.781 0-1.377.533-1.469 1.534h2.91c-.088-1.04-.664-1.534-1.441-1.534Zm3.975 6.446a2.43 2.43 0 0 1-.376-.03v-.698c.103.02.234.025.352.025.483 0 .776-.22.966-.826l.098-.312-1.948-5.269h.908l1.445 4.331h.078l1.441-4.33h.893l-2.055 5.585c-.435 1.182-.869 1.524-1.802 1.524Zm-47.9 10.247c-1.001 0-1.758-.606-1.758-1.563v-.01c0-.937.693-1.479 1.919-1.552l1.509-.093v-.478c0-.65-.396-1.002-1.182-1.002-.63 0-1.045.235-1.182.645l-.005.015h-.85l.006-.03c.136-.825.937-1.381 2.06-1.381 1.284 0 2.002.659 2.002 1.752V79h-.85v-.776h-.078c-.332.561-.883.869-1.591.869ZM66 77.51c0 .532.454.845 1.064.845.865 0 1.495-.567 1.495-1.319v-.478l-1.407.088c-.8.048-1.152.331-1.152.854v.01Zm7.578 1.582c-.732 0-1.318-.347-1.64-.933h-.079V79h-.85v-7.353h.85v2.92h.079c.288-.562.917-.923 1.64-.923 1.338 0 2.207 1.069 2.207 2.72v.009c0 1.64-.874 2.72-2.207 2.72Zm-.195-.752c.962 0 1.533-.742 1.533-1.968v-.01c0-1.225-.571-1.968-1.533-1.968-.957 0-1.543.752-1.543 1.968v.01c0 1.216.586 1.968 1.543 1.968Zm4.17-5.62a.588.588 0 0 1-.586-.586.587.587 0 0 1 1.172 0 .588.588 0 0 1-.586.586ZM77.124 79v-5.264h.85V79h-.85Zm2.5 0v-7.353h.85V79h-.85Zm2.93-6.28a.588.588 0 0 1-.586-.585.587.587 0 0 1 1.172 0 .588.588 0 0 1-.586.586Zm-.43 6.28v-5.264h.85V79h-.85Zm4.321.04c-1.084 0-1.538-.401-1.538-1.407v-3.194h-.83v-.703h.83v-1.362h.88v1.362h1.151v.703h-1.152v2.979c0 .62.215.87.762.87.151 0 .234-.006.39-.02v.722c-.166.03-.327.05-.493.05Zm2.212 1.806a2.49 2.49 0 0 1-.376-.03v-.698c.103.02.235.025.352.025.483 0 .776-.22.967-.826l.097-.312-1.948-5.269h.908l1.446 4.331h.078l1.44-4.33h.894l-2.056 5.585c-.435 1.182-.87 1.524-1.802 1.524Z" fill="#202020"/><path d="m138.429 76.071 14.142-14.142m-14.142 0 14.142 14.142" stroke="#202020" stroke-linecap="round"/><path d="M172.724 68.758c-.953-1.265-1.387-2.74-1.387-4.556 0-1.811.43-3.29 1.387-4.555h.713c-.708.903-1.236 2.86-1.236 4.555 0 1.71.528 3.653 1.236 4.556h-.713Zm3.886-1.665c-1.333 0-2.207-1.08-2.207-2.72v-.01c0-1.65.869-2.72 2.207-2.72.723 0 1.353.362 1.641.923h.078v-2.92h.85V67h-.85v-.84h-.078c-.322.586-.908.933-1.641.933Zm.196-.752c.957 0 1.543-.752 1.543-1.968v-.01c0-1.215-.586-1.968-1.543-1.968-.962 0-1.534.743-1.534 1.968v.01c0 1.226.572 1.968 1.534 1.968Zm5.449.752c-1.001 0-1.758-.606-1.758-1.563v-.01c0-.937.693-1.479 1.919-1.552l1.509-.093v-.478c0-.65-.396-1.002-1.182-1.002-.63 0-1.045.235-1.181.645l-.005.015h-.85l.005-.03c.137-.825.937-1.381 2.06-1.381 1.285 0 2.002.659 2.002 1.753V67h-.849v-.776h-.078c-.332.561-.884.869-1.592.869Zm-.889-1.582c0 .532.454.845 1.065.845.864 0 1.494-.567 1.494-1.319v-.478l-1.406.088c-.801.048-1.153.331-1.153.854v.01Zm5.41-4.79a.588.588 0 0 1-.586-.586c0-.322.264-.586.586-.586.323 0 .586.264.586.586a.587.587 0 0 1-.586.586ZM186.347 67v-5.264h.849V67h-.849Zm2.5 0v-7.353h.849V67h-.849Zm2.929 1.846a2.44 2.44 0 0 1-.376-.03v-.698c.103.02.235.025.352.025.483 0 .776-.22.967-.826l.097-.312-1.948-5.269h.908l1.446 4.331h.078l1.44-4.33h.894l-2.056 5.585c-.434 1.182-.869 1.524-1.802 1.524Zm9.663-1.807c-1.084 0-1.538-.4-1.538-1.406V62.44h-.83v-.704h.83v-1.362h.879v1.362h1.153v.704h-1.153v2.978c0 .62.215.87.762.87.151 0 .234-.006.391-.02v.722c-.166.03-.328.05-.494.05Zm3.208.054c-1.001 0-1.757-.606-1.757-1.563v-.01c0-.937.693-1.479 1.919-1.552l1.508-.093v-.478c0-.65-.395-1.002-1.181-1.002-.63 0-1.045.235-1.182.645l-.005.015h-.849l.004-.03c.137-.825.938-1.381 2.061-1.381 1.284 0 2.002.659 2.002 1.753V67h-.85v-.776h-.078c-.332.561-.884.869-1.592.869Zm-.888-1.582c0 .532.454.845 1.064.845.865 0 1.494-.567 1.494-1.319v-.478l-1.406.088c-.801.048-1.152.331-1.152.854v.01Zm7.129 3.345c-1.27 0-2.08-.572-2.212-1.436l.01-.005h.878l.005.005c.093.4.562.683 1.319.683.942 0 1.504-.444 1.504-1.22v-1.065h-.079c-.332.581-.927.909-1.65.909-1.362 0-2.207-1.055-2.207-2.53v-.01c0-1.474.85-2.543 2.227-2.543.742 0 1.318.366 1.64.962h.059v-.87h.849v5.19c0 1.177-.908 1.93-2.343 1.93Zm-.039-2.881c.976 0 1.562-.733 1.562-1.778v-.01c0-1.044-.591-1.791-1.562-1.791-.977 0-1.524.747-1.524 1.791v.01c0 1.045.547 1.778 1.524 1.778Zm8.54 1.118c-1.197 0-1.812-.703-1.812-1.949v-3.408h.85v3.203c0 .948.342 1.402 1.181 1.402.928 0 1.421-.567 1.421-1.49v-3.115h.85V67h-.85v-.786h-.078c-.259.561-.791.879-1.562.879Zm5.883 0c-1.171 0-1.977-.567-2.075-1.436h.869c.142.44.562.728 1.236.728.708 0 1.211-.337 1.211-.816v-.01c0-.356-.269-.605-.918-.761l-.816-.195c-.986-.235-1.43-.664-1.43-1.421v-.005c0-.874.839-1.533 1.958-1.533 1.103 0 1.87.551 1.987 1.41h-.835c-.112-.414-.522-.702-1.157-.702-.625 0-1.084.322-1.084.786v.01c0 .356.263.58.884.732l.81.195c.991.24 1.47.67 1.47 1.421v.01c0 .937-.913 1.587-2.11 1.587Zm4.874 0c-1.001 0-1.758-.606-1.758-1.563v-.01c0-.937.693-1.479 1.919-1.552l1.508-.093v-.478c0-.65-.395-1.002-1.181-1.002-.63 0-1.045.235-1.182.645l-.005.015h-.849l.005-.03c.136-.825.937-1.381 2.06-1.381 1.284 0 2.002.659 2.002 1.753V67h-.85v-.776h-.078c-.332.561-.883.869-1.591.869Zm-.889-1.582c0 .532.454.845 1.064.845.865 0 1.494-.567 1.494-1.319v-.478l-1.406.088c-.801.048-1.152.331-1.152.854v.01Zm7.129 3.345c-1.27 0-2.08-.572-2.212-1.436l.01-.005h.878l.005.005c.093.4.562.683 1.319.683.942 0 1.504-.444 1.504-1.22v-1.065h-.078c-.333.581-.928.909-1.651.909-1.362 0-2.207-1.055-2.207-2.53v-.01c0-1.474.85-2.543 2.227-2.543.742 0 1.318.366 1.64.962h.059v-.87h.849v5.19c0 1.177-.908 1.93-2.343 1.93Zm-.039-2.881c.976 0 1.562-.733 1.562-1.778v-.01c0-1.044-.591-1.791-1.562-1.791-.977 0-1.524.747-1.524 1.791v.01c0 1.045.547 1.778 1.524 1.778Zm6.113 1.118c-1.504 0-2.412-1.055-2.412-2.705v-.005c0-1.626.928-2.74 2.358-2.74 1.431 0 2.3 1.065 2.3 2.637v.332h-3.789c.024 1.09.625 1.724 1.562 1.724.713 0 1.153-.337 1.294-.654l.02-.044h.85l-.01.039c-.181.713-.933 1.416-2.173 1.416Zm-.059-4.693c-.781 0-1.377.533-1.469 1.534h2.91c-.088-1.04-.664-1.534-1.441-1.534Zm6.46-.078.533-.522 1.801 1.83 1.797-1.83.532.522-1.806 1.841 1.806 1.846-.532.522-1.797-1.83-1.801 1.83-.533-.522 1.807-1.846-1.807-1.84Zm-70.913 12 .532-.522 1.802 1.83 1.797-1.83.532.522-1.806 1.841 1.806 1.846-.532.522-1.797-1.83-1.802 1.83-.532-.522 1.807-1.846-1.807-1.84ZM188.974 79v-6.255h-2.271v-.79h5.42v.79h-2.27V79h-.879Zm4.819.093c-1.001 0-1.758-.606-1.758-1.563v-.01c0-.937.694-1.479 1.919-1.552l1.509-.093v-.478c0-.65-.396-1.002-1.182-1.002-.63 0-1.045.235-1.181.645l-.005.015h-.85l.005-.03c.137-.825.938-1.381 2.061-1.381 1.284 0 2.001.659 2.001 1.752V79h-.849v-.776h-.078c-.332.561-.884.869-1.592.869Zm-.889-1.582c0 .532.454.845 1.065.845.864 0 1.494-.567 1.494-1.319v-.478l-1.406.088c-.801.048-1.153.331-1.153.854v.01Zm7.129 3.345c-1.269 0-2.08-.572-2.212-1.436l.01-.005h.879l.005.005c.093.4.561.683 1.318.683.943 0 1.504-.444 1.504-1.22v-1.065h-.078c-.332.581-.928.909-1.65.909-1.363 0-2.207-1.055-2.207-2.53v-.01c0-1.474.849-2.543 2.226-2.543.742 0 1.318.366 1.641.962h.058v-.87h.85v5.19c0 1.177-.908 1.93-2.344 1.93Zm-.039-2.881c.977 0 1.563-.733 1.563-1.778v-.01c0-1.044-.591-1.791-1.563-1.791-.976 0-1.523.747-1.523 1.791v.01c0 1.045.547 1.778 1.523 1.778Zm6.777 2.783v-7.022h.85v.84h.078c.322-.586.908-.932 1.641-.932 1.333 0 2.207 1.079 2.207 2.72v.009c0 1.65-.869 2.72-2.207 2.72-.723 0-1.353-.362-1.641-.923h-.078v2.588h-.85Zm2.374-2.417c.961 0 1.533-.742 1.533-1.968v-.01c0-1.225-.572-1.968-1.533-1.968-.957 0-1.543.752-1.543 1.968v.01c0 1.216.586 1.968 1.543 1.968Zm5.893.752c-1.499 0-2.427-1.035-2.427-2.72v-.01c0-1.69.928-2.72 2.427-2.72s2.427 1.03 2.427 2.72v.01c0 1.685-.928 2.72-2.427 2.72Zm0-.752c.996 0 1.558-.728 1.558-1.968v-.01c0-1.245-.562-1.968-1.558-1.968s-1.558.723-1.558 1.968v.01c0 1.24.562 1.968 1.558 1.968Zm5.552.752c-1.172 0-1.978-.567-2.075-1.436h.869c.141.44.561.728 1.235.728.708 0 1.211-.337 1.211-.816v-.01c0-.356-.268-.605-.918-.761l-.815-.195c-.987-.235-1.431-.664-1.431-1.421v-.005c0-.874.84-1.533 1.958-1.533 1.104 0 1.87.551 1.987 1.41h-.835c-.112-.414-.522-.702-1.157-.702-.625 0-1.084.322-1.084.786v.01c0 .356.264.58.884.732l.81.195c.992.24 1.47.67 1.47 1.421v.01c0 .937-.913 1.587-2.109 1.587Zm3.877-6.372a.588.588 0 0 1-.586-.586c0-.323.264-.586.586-.586.322 0 .586.263.586.586a.588.588 0 0 1-.586.586Zm-.43 6.279v-5.264h.85V79h-.85Zm4.321.04c-1.084 0-1.538-.401-1.538-1.407v-3.194h-.83v-.703h.83v-1.362h.879v1.362h1.153v.703h-1.153v2.979c0 .62.215.87.762.87.151 0 .234-.006.391-.02v.722c-.166.03-.328.05-.494.05Zm2.212-6.32a.588.588 0 0 1-.586-.585.587.587 0 0 1 1.172 0 .587.587 0 0 1-.586.586Zm-.429 6.28v-5.264h.849V79h-.849Zm4.614.093c-1.499 0-2.427-1.035-2.427-2.72v-.01c0-1.69.928-2.72 2.427-2.72s2.427 1.03 2.427 2.72v.01c0 1.685-.928 2.72-2.427 2.72Zm0-.752c.996 0 1.557-.728 1.557-1.968v-.01c0-1.245-.561-1.968-1.557-1.968-.996 0-1.558.723-1.558 1.968v.01c0 1.24.562 1.968 1.558 1.968ZM238.5 79v-5.264h.85v.791h.078c.263-.556.757-.883 1.533-.883 1.182 0 1.841.698 1.841 1.948V79h-.85v-3.203c0-.947-.39-1.401-1.23-1.401s-1.372.566-1.372 1.489V79h-.85Zm6.299 1.758h-.713c.708-.903 1.235-2.847 1.235-4.556 0-1.694-.527-3.652-1.235-4.555h.713c.957 1.264 1.387 2.744 1.387 4.555 0 1.817-.435 3.291-1.387 4.556Z" fill="#202020"/><path d="m271.929 76.071 14.142-14.142m-14.142 0 14.142 14.142m-281.142 40.5 14.142-14.142m-14.142 0 14.142 14.142" stroke="#202020" stroke-linecap="round"/><path d="M96.889 103.166c-1.543 0-2.54-.811-2.642-1.958l-.005-.054h.88l.004.054c.063.703.796 1.147 1.811 1.147.957 0 1.656-.493 1.656-1.21v-.005c0-.586-.406-.987-1.372-1.201l-.782-.171c-1.41-.313-2.021-.962-2.021-1.983v-.005c.005-1.167 1.025-1.992 2.48-1.992 1.407 0 2.388.83 2.461 1.88l.005.068h-.879l-.01-.063c-.097-.62-.683-1.08-1.601-1.074-.879.004-1.558.42-1.558 1.157v.005c0 .561.386.942 1.343 1.152l.781.176c1.47.327 2.051.918 2.051 1.933v.005c0 1.319-1.03 2.139-2.602 2.139Zm5.722-.073c-1.196 0-1.811-.703-1.811-1.948v-3.409h.849v3.203c0 .948.342 1.402 1.182 1.402.928 0 1.421-.567 1.421-1.489v-3.116h.85V103h-.85v-.786h-.078c-.259.561-.791.879-1.563.879Zm6.231 0c-1.475 0-2.417-1.07-2.417-2.739v-.01c0-1.636.937-2.7 2.412-2.7 1.279 0 2.046.737 2.202 1.674l.005.03h-.845l-.005-.015c-.132-.518-.6-.938-1.357-.938-.947 0-1.543.762-1.543 1.949v.01c0 1.21.605 1.987 1.543 1.987.708 0 1.157-.313 1.352-.899l.01-.029.84-.005-.01.054c-.215.952-.923 1.631-2.187 1.631Zm5.596 0c-1.475 0-2.417-1.07-2.417-2.739v-.01c0-1.636.937-2.7 2.412-2.7 1.279 0 2.046.737 2.202 1.674l.005.03h-.845l-.005-.015c-.132-.518-.601-.938-1.357-.938-.948 0-1.543.762-1.543 1.949v.01c0 1.21.605 1.987 1.543 1.987.708 0 1.157-.313 1.352-.899l.01-.029.84-.005-.01.054c-.215.952-.923 1.631-2.187 1.631Zm5.59 0c-1.504 0-2.412-1.055-2.412-2.705v-.005c0-1.626.928-2.74 2.359-2.74 1.43 0 2.299 1.065 2.299 2.637v.332h-3.789c.025 1.089.625 1.724 1.563 1.724.713 0 1.152-.337 1.294-.654l.019-.044h.85l-.01.039c-.18.713-.932 1.416-2.173 1.416Zm-.058-4.693c-.782 0-1.377.533-1.47 1.534h2.91c-.088-1.04-.664-1.534-1.44-1.534Zm5.429 4.693c-1.171 0-1.977-.567-2.075-1.436h.869c.142.44.562.728 1.236.728.708 0 1.211-.337 1.211-.816v-.009c0-.357-.269-.606-.918-.762l-.816-.195c-.986-.235-1.43-.664-1.43-1.421v-.005c0-.874.839-1.533 1.958-1.533 1.103 0 1.87.551 1.987 1.41h-.835c-.112-.414-.523-.702-1.157-.702-.625 0-1.084.322-1.084.786v.01c0 .356.263.58.884.732l.81.195c.991.239 1.47.669 1.47 1.421v.01c0 .937-.913 1.587-2.11 1.587Zm5.137 0c-1.172 0-1.977-.567-2.075-1.436h.869c.142.44.562.728 1.235.728.708 0 1.211-.337 1.211-.816v-.009c0-.357-.268-.606-.918-.762l-.815-.195c-.986-.235-1.431-.664-1.431-1.421v-.005c0-.874.84-1.533 1.958-1.533 1.104 0 1.87.551 1.988 1.41h-.835c-.113-.414-.523-.702-1.158-.702-.625 0-1.084.322-1.084.786v.01c0 .356.264.58.884.732l.811.195c.991.239 1.47.669 1.47 1.421v.01c0 .937-.914 1.587-2.11 1.587Zm6.24-.093v-5.264h.85v.782h.078c.2-.552.693-.874 1.406-.874.161 0 .342.02.425.034v.825a3.058 3.058 0 0 0-.522-.049c-.811 0-1.387.513-1.387 1.284V103h-.85Zm5.254.093c-1.001 0-1.758-.606-1.758-1.563v-.009c0-.938.694-1.48 1.919-1.553l1.509-.093v-.478c0-.65-.395-1.002-1.181-1.002-.63 0-1.045.235-1.182.645l-.005.015h-.85l.005-.03c.137-.825.938-1.381 2.061-1.381 1.284 0 2.002.659 2.002 1.752V103h-.85v-.776h-.078c-.332.561-.884.869-1.592.869Zm-.888-1.582c0 .532.454.844 1.064.844.864 0 1.494-.566 1.494-1.318v-.478l-1.406.087c-.801.049-1.152.333-1.152.855v.01Zm6.831 1.528c-1.084 0-1.538-.4-1.538-1.406v-3.194h-.831v-.703h.831v-1.362h.878v1.362h1.153v.703h-1.153v2.979c0 .62.215.869.762.869.152 0 .235-.005.391-.019v.722c-.166.03-.327.049-.493.049Zm3.833.054c-1.504 0-2.412-1.055-2.412-2.705v-.005c0-1.626.927-2.74 2.358-2.74s2.3 1.065 2.3 2.637v.332h-3.789c.024 1.089.625 1.724 1.562 1.724.713 0 1.153-.337 1.294-.654l.02-.044h.849l-.009.039c-.181.713-.933 1.416-2.173 1.416Zm-.059-4.693c-.781 0-1.377.533-1.47 1.534h2.911c-.088-1.04-.665-1.534-1.441-1.534Zm8.599 4.693c-1.499 0-2.427-1.035-2.427-2.72v-.01c0-1.69.928-2.72 2.427-2.72s2.426 1.03 2.426 2.72v.01c0 1.685-.927 2.72-2.426 2.72Zm0-.752c.996 0 1.557-.728 1.557-1.968v-.01c0-1.245-.561-1.968-1.557-1.968-.996 0-1.558.723-1.558 1.968v.01c0 1.24.562 1.968 1.558 1.968Zm4.096.659v-4.56h-.874v-.704h.874v-.586c0-1.05.528-1.552 1.529-1.552.205 0 .39.014.566.049v.678a2.307 2.307 0 0 0-.395-.024c-.606 0-.85.298-.85.874v.561h1.196v.703h-1.196V103h-.85Zm7.891.093c-1.172 0-1.978-.567-2.075-1.436h.869c.142.44.561.728 1.235.728.708 0 1.211-.337 1.211-.816v-.009c0-.357-.268-.606-.918-.762l-.815-.195c-.986-.235-1.431-.664-1.431-1.421v-.005c0-.874.84-1.533 1.958-1.533 1.104 0 1.87.551 1.987 1.41h-.834c-.113-.414-.523-.702-1.158-.702-.625 0-1.084.322-1.084.786v.01c0 .356.264.58.884.732l.811.195c.991.239 1.469.669 1.469 1.421v.01c0 .937-.913 1.587-2.109 1.587Zm5.576 0c-1.504 0-2.412-1.055-2.412-2.705v-.005c0-1.626.928-2.74 2.358-2.74 1.431 0 2.3 1.065 2.3 2.637v.332h-3.789c.025 1.089.625 1.724 1.563 1.724.713 0 1.152-.337 1.294-.654l.019-.044h.85l-.01.039c-.181.713-.933 1.416-2.173 1.416Zm-.058-4.693c-.782 0-1.377.533-1.47 1.534h2.91c-.088-1.04-.664-1.534-1.44-1.534Zm3.671 4.6v-7.353h.85V103h-.85Zm4.629.093c-1.504 0-2.412-1.055-2.412-2.705v-.005c0-1.626.928-2.74 2.359-2.74 1.43 0 2.299 1.065 2.299 2.637v.332h-3.789c.025 1.089.625 1.724 1.563 1.724.713 0 1.152-.337 1.294-.654l.019-.044h.85l-.01.039c-.18.713-.932 1.416-2.173 1.416Zm-.058-4.693c-.781 0-1.377.533-1.47 1.534h2.91c-.088-1.04-.664-1.534-1.44-1.534Zm5.776 4.693c-1.474 0-2.417-1.07-2.417-2.739v-.01c0-1.636.938-2.7 2.412-2.7 1.28 0 2.046.737 2.202 1.674l.005.03h-.844l-.005-.015c-.132-.518-.601-.938-1.358-.938-.947 0-1.543.762-1.543 1.949v.01c0 1.21.606 1.987 1.543 1.987.708 0 1.157-.313 1.353-.899l.01-.029.839-.005-.009.054c-.215.952-.923 1.631-2.188 1.631Zm5.41-.054c-1.084 0-1.538-.4-1.538-1.406v-3.194h-.83v-.703h.83v-1.362h.879v1.362h1.152v.703h-1.152v2.979c0 .62.215.869.762.869a3.7 3.7 0 0 0 .39-.019v.722c-.166.03-.327.049-.493.049Zm3.833.054c-1.504 0-2.412-1.055-2.412-2.705v-.005c0-1.626.928-2.74 2.359-2.74 1.43 0 2.299 1.065 2.299 2.637v.332h-3.789c.025 1.089.625 1.724 1.563 1.724.713 0 1.152-.337 1.294-.654l.019-.044h.85l-.01.039c-.181.713-.932 1.416-2.173 1.416Zm-.058-4.693c-.782 0-1.377.533-1.47 1.534h2.91c-.088-1.04-.664-1.534-1.44-1.534Zm5.566 4.693c-1.333 0-2.207-1.079-2.207-2.72v-.01c0-1.65.869-2.72 2.207-2.72.723 0 1.353.362 1.641.923h.078v-2.92h.849V103h-.849v-.84h-.078c-.323.586-.908.933-1.641.933Zm.195-.752c.957 0 1.543-.752 1.543-1.968v-.01c0-1.216-.586-1.968-1.543-1.968-.961 0-1.533.743-1.533 1.968v.01c0 1.226.572 1.968 1.533 1.968Zm8.687.698c-1.084 0-1.538-.4-1.538-1.406v-3.194h-.83v-.703h.83v-1.362h.879v1.362h1.152v.703h-1.152v2.979c0 .62.215.869.761.869.152 0 .235-.005.391-.019v.722c-.166.03-.327.049-.493.049Zm3.208.054c-1.001 0-1.758-.606-1.758-1.563v-.009c0-.938.694-1.48 1.919-1.553l1.509-.093v-.478c0-.65-.396-1.002-1.182-1.002-.63 0-1.045.235-1.181.645l-.005.015h-.85l.005-.03c.137-.825.937-1.381 2.061-1.381 1.284 0 2.001.659 2.001 1.752V103h-.849v-.776h-.078c-.332.561-.884.869-1.592.869Zm-.889-1.582c0 .532.454.844 1.065.844.864 0 1.494-.566 1.494-1.318v-.478l-1.406.087c-.801.049-1.153.333-1.153.855v.01Zm7.129 3.344c-1.269 0-2.08-.571-2.212-1.435l.01-.005h.879l.005.005c.093.4.561.684 1.318.684.943 0 1.504-.445 1.504-1.221v-1.065h-.078c-.332.581-.928.909-1.65.909-1.363 0-2.207-1.055-2.207-2.53v-.009c0-1.475.849-2.544 2.226-2.544.742 0 1.318.366 1.641.962h.058v-.87h.85v5.191c0 1.177-.908 1.928-2.344 1.928Zm-.039-2.88c.977 0 1.563-.733 1.563-1.778v-.009c0-1.045-.591-1.793-1.563-1.793-.976 0-1.523.748-1.523 1.793v.009c0 1.045.547 1.778 1.523 1.778Zm5.772 1.118c-1.172 0-1.978-.567-2.076-1.436h.87c.141.44.561.728 1.235.728.708 0 1.211-.337 1.211-.816v-.009c0-.357-.269-.606-.918-.762l-.816-.195c-.986-.235-1.43-.664-1.43-1.421v-.005c0-.874.84-1.533 1.958-1.533 1.103 0 1.87.551 1.987 1.41h-.835c-.112-.414-.522-.702-1.157-.702-.625 0-1.084.322-1.084.786v.01c0 .356.264.58.884.732l.81.195c.991.239 1.47.669 1.47 1.421v.01c0 .937-.913 1.587-2.109 1.587ZM36 109h255v1H36zm45.371 15v-7.046h2.69c1.358 0 2.247.83 2.247 2.095v.01c0 .976-.533 1.738-1.416 2.016l1.63 2.925h-1.03l-1.509-2.788H82.25V124h-.879Zm.879-3.569h1.733c.904 0 1.416-.484 1.416-1.343v-.01c0-.84-.546-1.343-1.455-1.343H82.25v2.696Zm7.549 3.662c-1.504 0-2.412-1.055-2.412-2.705v-.005c0-1.626.927-2.739 2.358-2.739 1.43 0 2.3 1.064 2.3 2.636v.332h-3.79c.025 1.089.626 1.724 1.563 1.724.713 0 1.153-.337 1.294-.654l.02-.044h.85l-.01.039c-.181.713-.933 1.416-2.173 1.416Zm-.059-4.693c-.781 0-1.377.533-1.47 1.534h2.91c-.087-1.04-.663-1.534-1.44-1.534Zm3.672 4.6v-7.354h.85V124h-.85Zm4.629.093c-1.504 0-2.412-1.055-2.412-2.705v-.005c0-1.626.928-2.739 2.358-2.739 1.431 0 2.3 1.064 2.3 2.636v.332h-3.789c.024 1.089.625 1.724 1.563 1.724.712 0 1.152-.337 1.293-.654l.02-.044h.85l-.01.039c-.181.713-.933 1.416-2.173 1.416Zm-.059-4.693c-.78 0-1.376.533-1.47 1.534h2.91c-.087-1.04-.663-1.534-1.44-1.534Zm5.015 4.6-1.948-5.264h.898l1.441 4.336h.078l1.44-4.336h.899L103.856 124h-.859Zm5.181.093c-1.001 0-1.758-.606-1.758-1.563v-.009c0-.938.693-1.48 1.919-1.553l1.509-.093v-.479c0-.649-.396-1-1.182-1-.63 0-1.045.234-1.182.644l-.005.015h-.849l.005-.03c.136-.825.937-1.381 2.06-1.381 1.284 0 2.002.659 2.002 1.752V124h-.849v-.776h-.078c-.332.561-.884.869-1.592.869Zm-.889-1.582c0 .532.454.844 1.065.844.864 0 1.494-.566 1.494-1.318v-.478l-1.407.087c-.8.049-1.152.333-1.152.855v.01ZM112.25 124v-5.264h.85v.791h.078c.263-.556.757-.883 1.533-.883 1.182 0 1.841.698 1.841 1.948V124h-.85v-3.203c0-.947-.39-1.401-1.23-1.401s-1.372.566-1.372 1.489V124h-.85Zm7.993.093c-1.474 0-2.417-1.07-2.417-2.739v-.01c0-1.636.938-2.7 2.412-2.7 1.28 0 2.046.737 2.202 1.674l.005.03h-.844l-.005-.015c-.132-.518-.601-.937-1.358-.937-.947 0-1.543.761-1.543 1.948v.01c0 1.21.606 1.987 1.543 1.987.708 0 1.158-.313 1.353-.899l.01-.029.839-.005-.009.054c-.215.952-.923 1.631-2.188 1.631Zm5.591 0c-1.504 0-2.412-1.055-2.412-2.705v-.005c0-1.626.928-2.739 2.358-2.739 1.431 0 2.3 1.064 2.3 2.636v.332h-3.789c.024 1.089.625 1.724 1.563 1.724.712 0 1.152-.337 1.293-.654l.02-.044h.85l-.01.039c-.181.713-.933 1.416-2.173 1.416Zm-.059-4.693c-.781 0-1.377.533-1.469 1.534h2.91c-.088-1.04-.664-1.534-1.441-1.534Zm8.599 4.693c-1.499 0-2.427-1.035-2.427-2.72v-.01c0-1.689.928-2.719 2.427-2.719s2.427 1.03 2.427 2.719v.01c0 1.685-.928 2.72-2.427 2.72Zm0-.752c.996 0 1.558-.728 1.558-1.968v-.01c0-1.245-.562-1.967-1.558-1.967s-1.558.722-1.558 1.967v.01c0 1.24.562 1.968 1.558 1.968Zm4.097.659v-4.561h-.874v-.703h.874v-.586c0-1.049.527-1.552 1.528-1.552.205 0 .391.014.566.048v.679a2.364 2.364 0 0 0-.395-.024c-.606 0-.85.298-.85.874v.561h1.197v.703h-1.197V124h-.849Zm7.89.093c-1.172 0-1.977-.567-2.075-1.436h.869c.142.44.562.728 1.236.728.708 0 1.211-.337 1.211-.816v-.009c0-.357-.269-.606-.918-.762l-.816-.195c-.986-.235-1.43-.665-1.43-1.421v-.005c0-.874.839-1.533 1.958-1.533 1.103 0 1.87.551 1.987 1.411h-.835c-.112-.415-.523-.703-1.157-.703-.625 0-1.084.322-1.084.786v.009c0 .357.263.582.883.733l.811.195c.991.239 1.47.669 1.47 1.421v.01c0 .937-.913 1.587-2.11 1.587Zm5.577 0c-1.504 0-2.413-1.055-2.413-2.705v-.005c0-1.626.928-2.739 2.359-2.739 1.43 0 2.3 1.064 2.3 2.636v.332h-3.789c.024 1.089.625 1.724 1.562 1.724.713 0 1.152-.337 1.294-.654l.02-.044h.849l-.01.039c-.18.713-.932 1.416-2.172 1.416Zm-.059-4.693c-.781 0-1.377.533-1.47 1.534h2.91c-.088-1.04-.664-1.534-1.44-1.534Zm3.672 4.6v-7.354h.849V124h-.849Zm4.629.093c-1.504 0-2.412-1.055-2.412-2.705v-.005c0-1.626.927-2.739 2.358-2.739s2.3 1.064 2.3 2.636v.332h-3.789c.024 1.089.625 1.724 1.562 1.724.713 0 1.153-.337 1.294-.654l.02-.044h.849l-.009.039c-.181.713-.933 1.416-2.173 1.416Zm-.059-4.693c-.781 0-1.377.533-1.47 1.534h2.911c-.088-1.04-.665-1.534-1.441-1.534Zm5.776 4.693c-1.474 0-2.417-1.07-2.417-2.739v-.01c0-1.636.938-2.7 2.413-2.7 1.279 0 2.045.737 2.202 1.674l.005.03h-.845l-.005-.015c-.132-.518-.601-.937-1.357-.937-.948 0-1.543.761-1.543 1.948v.01c0 1.21.605 1.987 1.543 1.987.708 0 1.157-.313 1.352-.899l.01-.029.84-.005-.01.054c-.215.952-.923 1.631-2.188 1.631Zm5.411-.054c-1.084 0-1.538-.4-1.538-1.406v-3.194h-.831v-.703h.831v-1.362h.878v1.362h1.153v.703h-1.153v2.979c0 .62.215.869.762.869.152 0 .235-.005.391-.019v.722c-.166.03-.327.049-.493.049Zm3.833.054c-1.504 0-2.412-1.055-2.412-2.705v-.005c0-1.626.927-2.739 2.358-2.739s2.3 1.064 2.3 2.636v.332h-3.789c.024 1.089.625 1.724 1.562 1.724.713 0 1.152-.337 1.294-.654l.02-.044h.849l-.01.039c-.18.713-.932 1.416-2.172 1.416Zm-.059-4.693c-.781 0-1.377.533-1.47 1.534h2.91c-.087-1.04-.664-1.534-1.44-1.534Zm5.566 4.693c-1.333 0-2.207-1.079-2.207-2.72v-.01c0-1.65.87-2.719 2.207-2.719.723 0 1.353.361 1.641.922h.078v-2.92h.85V124h-.85v-.84h-.078c-.322.586-.908.933-1.641.933Zm.196-.752c.957 0 1.543-.752 1.543-1.968v-.01c0-1.216-.586-1.967-1.543-1.967-.962 0-1.533.742-1.533 1.967v.01c0 1.226.571 1.968 1.533 1.968Zm8.686.698c-1.084 0-1.538-.4-1.538-1.406v-3.194h-.83v-.703h.83v-1.362h.879v1.362h1.152v.703h-1.152v2.979c0 .62.215.869.762.869a3.7 3.7 0 0 0 .39-.019v.722c-.166.03-.327.049-.493.049Zm3.208.054c-1.001 0-1.758-.606-1.758-1.563v-.009c0-.938.694-1.48 1.919-1.553l1.509-.093v-.479c0-.649-.395-1-1.181-1-.63 0-1.045.234-1.182.644l-.005.015h-.85l.005-.03c.137-.825.938-1.381 2.061-1.381 1.284 0 2.002.659 2.002 1.752V124h-.85v-.776h-.078c-.332.561-.884.869-1.592.869Zm-.888-1.582c0 .532.454.844 1.064.844.864 0 1.494-.566 1.494-1.318v-.478l-1.406.087c-.801.049-1.152.333-1.152.855v.01Zm7.129 3.344c-1.27 0-2.081-.571-2.212-1.435l.009-.005h.879l.005.005c.093.4.562.684 1.319.684.942 0 1.503-.445 1.503-1.221v-1.065h-.078c-.332.581-.927.909-1.65.909-1.362 0-2.207-1.055-2.207-2.53v-.009c0-1.475.849-2.544 2.226-2.544.743 0 1.319.366 1.641.961h.059v-.869h.849v5.191c0 1.177-.908 1.928-2.343 1.928Zm-.04-2.88c.977 0 1.563-.733 1.563-1.778v-.009c0-1.045-.591-1.792-1.563-1.792-.976 0-1.523.747-1.523 1.792v.009c0 1.045.547 1.778 1.523 1.778Zm5.772 1.118c-1.172 0-1.978-.567-2.075-1.436h.869c.141.44.561.728 1.235.728.708 0 1.211-.337 1.211-.816v-.009c0-.357-.268-.606-.918-.762l-.815-.195c-.987-.235-1.431-.665-1.431-1.421v-.005c0-.874.84-1.533 1.958-1.533 1.104 0 1.87.551 1.987 1.411h-.835c-.112-.415-.522-.703-1.157-.703-.625 0-1.084.322-1.084.786v.009c0 .357.264.582.884.733l.811.195c.991.239 1.469.669 1.469 1.421v.01c0 .937-.913 1.587-2.109 1.587Zm8.018 1.665c-.953-1.265-1.387-2.739-1.387-4.556 0-1.811.429-3.291 1.387-4.556h.712c-.708.904-1.235 2.862-1.235 4.556 0 1.709.527 3.652 1.235 4.556h-.712Zm3.486-1.665c-1.001 0-1.758-.606-1.758-1.563v-.009c0-.938.693-1.48 1.919-1.553l1.509-.093v-.479c0-.649-.396-1-1.182-1-.63 0-1.045.234-1.182.644l-.004.015h-.85l.005-.03c.137-.825.937-1.381 2.06-1.381 1.285 0 2.002.659 2.002 1.752V124h-.849v-.776h-.078c-.332.561-.884.869-1.592.869Zm-.889-1.582c0 .532.454.844 1.065.844.864 0 1.494-.566 1.494-1.318v-.478l-1.406.087c-.801.049-1.153.333-1.153.855v.01Zm7.114 1.582c-1.474 0-2.417-1.07-2.417-2.739v-.01c0-1.636.938-2.7 2.413-2.7 1.279 0 2.045.737 2.202 1.674l.005.03h-.845l-.005-.015c-.132-.518-.601-.937-1.357-.937-.948 0-1.543.761-1.543 1.948v.01c0 1.21.605 1.987 1.543 1.987.708 0 1.157-.313 1.352-.899l.01-.029.84-.005-.01.054c-.215.952-.923 1.631-2.188 1.631Zm5.411-.054c-1.084 0-1.539-.4-1.539-1.406v-3.194h-.83v-.703h.83v-1.362h.879v1.362h1.153v.703h-1.153v2.979c0 .62.215.869.762.869.151 0 .235-.005.391-.019v.722c-.166.03-.327.049-.493.049Zm3.525.054c-1.196 0-1.812-.703-1.812-1.948v-3.409h.85v3.203c0 .948.342 1.402 1.182 1.402.927 0 1.421-.567 1.421-1.489v-3.116h.849V124h-.849v-.786h-.079c-.258.561-.791.879-1.562.879Zm5.522 0c-1.001 0-1.757-.606-1.757-1.563v-.009c0-.938.693-1.48 1.919-1.553l1.508-.093v-.479c0-.649-.395-1-1.181-1-.63 0-1.045.234-1.182.644l-.005.015h-.849l.004-.03c.137-.825.938-1.381 2.061-1.381 1.284 0 2.002.659 2.002 1.752V124h-.85v-.776h-.078c-.332.561-.884.869-1.592.869Zm-.888-1.582c0 .532.454.844 1.064.844.864 0 1.494-.566 1.494-1.318v-.478l-1.406.087c-.801.049-1.152.333-1.152.855v.01Zm5.01 1.489v-7.354h.849V124h-.849Zm2.939 1.758h-.713c.708-.904 1.235-2.847 1.235-4.556 0-1.694-.527-3.652-1.235-4.556h.713c.957 1.265 1.387 2.745 1.387 4.556 0 1.817-.435 3.291-1.387 4.556ZM0 138h291v2H0zm113.273 24.199c-1.853 0-3.023-.887-3.115-2.261l-.005-.086h1.563l.005.053c.059.58.688.972 1.595.972.865 0 1.461-.413 1.461-1.009v-.006c0-.51-.381-.795-1.342-.993l-.817-.167c-1.611-.327-2.304-1.079-2.304-2.256v-.005c0-1.44 1.235-2.39 2.954-2.39 1.81 0 2.874.956 2.976 2.25l.005.07h-1.525l-.011-.064c-.091-.554-.629-.94-1.445-.94-.8.005-1.332.37-1.332.95v.006c0 .505.376.805 1.289.993l.822.167c1.638.338 2.352.994 2.352 2.202v.005c0 1.537-1.192 2.509-3.126 2.509Zm7.106-.075c-1.799 0-2.889-1.177-2.889-3.073v-.005c0-1.88 1.101-3.088 2.825-3.088 1.724 0 2.798 1.181 2.798 2.97v.489h-4.071c.016.972.537 1.536 1.37 1.536.687 0 1.068-.366 1.176-.591l.016-.032h1.461l-.011.053c-.182.742-.945 1.741-2.675 1.741Zm-.037-4.99c-.682 0-1.187.462-1.284 1.3h2.551c-.096-.86-.585-1.3-1.267-1.3Zm6.66 4.99c-1.848 0-2.895-1.123-2.895-3.089v-.011c0-1.944 1.042-3.066 2.895-3.066 1.568 0 2.498.854 2.637 2.175v.016h-1.461l-.005-.011c-.102-.575-.494-.95-1.166-.95-.843 0-1.305.655-1.305 1.836v.011c0 1.198.467 1.859 1.305 1.859.645 0 1.026-.307 1.166-.897l.011-.022h1.45l-.006.032c-.161 1.289-1.085 2.117-2.626 2.117Zm3.862-.124v-5.914h1.568v.919h.097c.188-.639.725-1.015 1.493-1.015.209 0 .43.032.585.075v1.37a3.242 3.242 0 0 0-.719-.092c-.892 0-1.456.511-1.456 1.348V162h-1.568Zm7.251.124c-1.8 0-2.89-1.177-2.89-3.073v-.005c0-1.88 1.101-3.088 2.825-3.088 1.724 0 2.799 1.181 2.799 2.97v.489h-4.072c.016.972.537 1.536 1.37 1.536.687 0 1.069-.366 1.176-.591l.016-.032h1.461l-.01.053c-.183.742-.946 1.741-2.675 1.741Zm-.038-4.99c-.682 0-1.187.462-1.284 1.3h2.552c-.097-.86-.586-1.3-1.268-1.3Zm6.51 4.887c-1.44 0-2.02-.467-2.02-1.616v-3.137h-.913v-1.182h.913v-1.412h1.585v1.412h1.219v1.182h-1.219v2.777c0 .532.225.768.757.768.204 0 .312-.011.462-.027v1.166a4.422 4.422 0 0 1-.784.069Zm7.278.103c-1.606 0-2.519-.72-2.632-1.735l-.005-.022h1.541l.011.022c.123.365.483.628 1.101.628.601 0 1.01-.258 1.01-.65v-.011c0-.316-.237-.515-.838-.649l-.989-.21c-1.127-.242-1.686-.795-1.686-1.681v-.005c0-1.112.988-1.853 2.465-1.853 1.553 0 2.412.773 2.476 1.724v.021h-1.455l-.006-.027c-.086-.317-.435-.612-1.02-.612-.543 0-.929.252-.929.65v.005c0 .317.22.5.832.634l.983.209c1.182.253 1.735.747 1.735 1.623v.005c0 1.171-1.08 1.934-2.594 1.934Zm5.489-.033c-1.128 0-1.928-.698-1.928-1.772v-.011c0-1.063.822-1.686 2.293-1.772l1.429-.086v-.489c0-.51-.349-.8-.994-.8-.564 0-.924.198-1.047.547l-.011.022h-1.45l.005-.048c.124-1.037 1.101-1.724 2.589-1.724 1.569 0 2.455.741 2.455 2.003V162h-1.547v-.784h-.097c-.301.548-.924.875-1.697.875Zm-.397-1.869c0 .451.381.725.923.725.725 0 1.268-.478 1.268-1.101v-.435l-1.192.075c-.672.043-.999.296-.999.725v.011Zm7.229 1.902c-1.327 0-2.009-.806-2.009-2.213v-3.825h1.569v3.465c0 .838.316 1.273 1.058 1.273.773 0 1.192-.521 1.192-1.322v-3.416h1.568V162h-1.568v-.913h-.097c-.268.644-.87 1.037-1.713 1.037Zm7.557 0c-1.847 0-2.895-1.123-2.895-3.089v-.011c0-1.944 1.042-3.066 2.895-3.066 1.569 0 2.498.854 2.637 2.175v.016h-1.461l-.005-.011c-.102-.575-.494-.95-1.165-.95-.844 0-1.306.655-1.306 1.836v.011c0 1.198.468 1.859 1.306 1.859.644 0 1.025-.307 1.165-.897l.011-.022h1.45l-.005.032c-.162 1.289-1.085 2.117-2.627 2.117Zm6.462 0c-1.8 0-2.89-1.177-2.89-3.073v-.005c0-1.88 1.101-3.088 2.825-3.088 1.724 0 2.798 1.181 2.798 2.97v.489h-4.071c.016.972.537 1.536 1.37 1.536.687 0 1.069-.366 1.176-.591l.016-.032h1.461l-.011.053c-.182.742-.945 1.741-2.674 1.741Zm-.038-4.99c-.682 0-1.187.462-1.284 1.3h2.552c-.097-.86-.586-1.3-1.268-1.3Z" fill="#202020"/></svg>