<svg width="1224" height="72" fill="none" xmlns="http://www.w3.org/2000/svg"><path d="M92.03 10.166c-1.748 0-2.802-1.055-2.802-2.588V2.954h.878V7.52c0 1.084.704 1.835 1.924 1.835 1.221 0 1.914-.751 1.914-1.835V2.954h.88v4.624c0 1.533-1.046 2.588-2.794 2.588Zm6.28-.073c-1.172 0-1.978-.567-2.076-1.436h.87c.141.44.561.728 1.235.728.708 0 1.21-.337 1.21-.816v-.01c0-.356-.268-.605-.917-.761l-.816-.195c-.986-.235-1.43-.665-1.43-1.421v-.005c0-.874.84-1.533 1.958-1.533 1.103 0 1.87.551 1.987 1.41h-.835c-.112-.414-.522-.702-1.157-.702-.625 0-1.084.322-1.084.786v.01c0 .356.264.58.884.732l.81.195c.991.24 1.47.67 1.47 1.421v.01c0 .937-.913 1.587-2.11 1.587Zm5.576 0c-1.504 0-2.412-1.055-2.412-2.705v-.005c0-1.626.927-2.74 2.358-2.74s2.3 1.065 2.3 2.637v.332h-3.789c.024 1.09.625 1.724 1.562 1.724.713 0 1.153-.337 1.294-.654l.02-.044h.849l-.009.039c-.181.713-.933 1.416-2.173 1.416Zm-.059-4.693c-.781 0-1.377.533-1.47 1.534h2.911c-.088-1.04-.664-1.534-1.441-1.534Zm3.623 4.6V4.736h.85v.782h.078c.2-.552.693-.874 1.406-.874.161 0 .342.02.425.034v.825a3.058 3.058 0 0 0-.522-.049c-.811 0-1.387.513-1.387 1.284V10h-.85Zm8.77.093c-1.504 0-2.412-1.055-2.412-2.705v-.005c0-1.626.927-2.74 2.358-2.74s2.3 1.065 2.3 2.637v.332h-3.789c.024 1.09.625 1.724 1.562 1.724.713 0 1.153-.337 1.294-.654l.02-.044h.849l-.009.039c-.181.713-.933 1.416-2.173 1.416Zm-.059-4.693c-.781 0-1.377.533-1.47 1.534h2.911c-.088-1.04-.664-1.534-1.441-1.534Zm3.623 4.6V4.736h.85v.791h.078c.264-.556.757-.883 1.533-.883 1.182 0 1.841.698 1.841 1.948V10h-.85V6.797c0-.947-.39-1.401-1.23-1.401s-1.372.566-1.372 1.489V10h-.85Zm7.71.04c-1.084 0-1.538-.401-1.538-1.407V5.439h-.83v-.703h.83V3.374h.879v1.362h1.152v.703h-1.152v2.979c0 .62.215.87.762.87.151 0 .234-.006.39-.02v.722c-.166.03-.327.05-.493.05Zm3.833.053c-1.504 0-2.412-1.055-2.412-2.705v-.005c0-1.626.928-2.74 2.358-2.74 1.431 0 2.3 1.065 2.3 2.637v.332h-3.789c.025 1.09.625 1.724 1.563 1.724.713 0 1.152-.337 1.294-.654l.019-.044h.85l-.01.039c-.181.713-.933 1.416-2.173 1.416Zm-.058-4.693c-.782 0-1.377.533-1.47 1.534h2.91c-.088-1.04-.664-1.534-1.44-1.534Zm3.623 4.6V4.736h.849v.782h.078c.201-.552.694-.874 1.407-.874.161 0 .341.02.424.034v.825a3.049 3.049 0 0 0-.522-.049c-.811 0-1.387.513-1.387 1.284V10h-.849Zm5.81.093c-1.504 0-2.412-1.055-2.412-2.705v-.005c0-1.626.928-2.74 2.358-2.74 1.431 0 2.3 1.065 2.3 2.637v.332h-3.789c.025 1.09.625 1.724 1.563 1.724.713 0 1.152-.337 1.294-.654l.019-.044h.85l-.01.039c-.181.713-.933 1.416-2.173 1.416Zm-.058-4.693c-.782 0-1.377.533-1.47 1.534h2.91c-.088-1.04-.664-1.534-1.44-1.534Zm5.566 4.693c-1.333 0-2.207-1.08-2.207-2.72v-.01c0-1.65.869-2.72 2.207-2.72.723 0 1.352.362 1.641.923h.078v-2.92h.849V10h-.849v-.84h-.078c-.323.586-.909.933-1.641.933Zm.195-.752c.957 0 1.543-.752 1.543-1.968v-.01c0-1.216-.586-1.967-1.543-1.967-.962 0-1.533.742-1.533 1.967v.01c0 1.226.571 1.968 1.533 1.968Zm6.866.659V2.646h.849v4.39h.078l2.276-2.3h1.03l-2.295 2.212L157.655 10h-1.069l-1.973-2.476-.493.479V10h-.849Zm7.285.093c-1.504 0-2.412-1.055-2.412-2.705v-.005c0-1.626.927-2.74 2.358-2.74s2.3 1.065 2.3 2.637v.332h-3.789c.024 1.09.625 1.724 1.562 1.724.713 0 1.153-.337 1.294-.654l.02-.044h.849l-.009.039c-.181.713-.933 1.416-2.173 1.416Zm-.059-4.693c-.781 0-1.377.533-1.47 1.534h2.911c-.088-1.04-.665-1.534-1.441-1.534Zm3.975 6.446a2.42 2.42 0 0 1-.376-.03v-.698c.102.02.234.025.351.025.484 0 .777-.22.967-.826l.098-.312-1.949-5.269h.909l1.445 4.331h.078l1.441-4.33h.893l-2.056 5.585c-.434 1.182-.869 1.524-1.801 1.524ZM0 16h257v1H0zm60.043 15 2.598-7.046h.869L66.107 31h-.922l-.708-2.017h-2.803L60.966 31h-.923Zm2.993-5.908-1.103 3.144h2.285l-1.104-3.144h-.078ZM68.041 31l-1.948-5.264h.898l1.44 4.336h.079l1.44-4.336h.899L68.9 31h-.859Zm5.884.093c-1.504 0-2.412-1.055-2.412-2.705v-.005c0-1.626.927-2.74 2.358-2.74 1.43 0 2.3 1.065 2.3 2.637v.332h-3.79c.025 1.09.626 1.724 1.563 1.724.713 0 1.153-.337 1.294-.654l.02-.044h.85l-.01.039c-.181.713-.933 1.416-2.173 1.416Zm-.059-4.693c-.781 0-1.377.533-1.47 1.534h2.91c-.087-1.04-.663-1.534-1.44-1.534ZM77.49 31v-5.264h.85v.782h.078c.2-.552.693-.874 1.406-.874.161 0 .342.02.425.034v.825a3.055 3.055 0 0 0-.522-.049c-.811 0-1.387.513-1.387 1.284V31h-.85Zm5.254.093c-1 0-1.758-.606-1.758-1.563v-.01c0-.937.694-1.479 1.92-1.552l1.508-.093v-.479c0-.649-.395-1-1.182-1-.63 0-1.044.234-1.181.644l-.005.015h-.85l.005-.03c.137-.825.938-1.381 2.06-1.381 1.285 0 2.003.659 2.003 1.753V31h-.85v-.776h-.078c-.332.561-.884.869-1.592.869Zm-.888-1.582c0 .532.454.845 1.064.845.864 0 1.494-.567 1.494-1.319v-.478l-1.406.087c-.8.05-1.153.332-1.153.855v.01ZM86.814 31v-5.264h.85v.791h.078c.264-.556.757-.883 1.533-.883 1.182 0 1.841.698 1.841 1.948V31h-.85v-3.203c0-.947-.39-1.402-1.23-1.402s-1.372.567-1.372 1.49V31h-.85Zm8.008 1.855c-1.27 0-2.08-.57-2.212-1.435l.01-.005h.879l.005.005c.093.4.561.683 1.318.683.943 0 1.504-.444 1.504-1.22v-1.065h-.078c-.332.581-.928.909-1.65.909-1.363 0-2.207-1.055-2.207-2.53v-.01c0-1.474.85-2.543 2.226-2.543.742 0 1.319.366 1.64.962h.06v-.87h.849v5.19c0 1.177-.908 1.93-2.344 1.93Zm-.039-2.88c.977 0 1.563-.733 1.563-1.778v-.01c0-1.044-.591-1.792-1.563-1.792-.976 0-1.523.748-1.523 1.793v.01c0 1.044.547 1.777 1.523 1.777Zm6.113 1.118c-1.503 0-2.412-1.055-2.412-2.705v-.005c0-1.626.928-2.74 2.359-2.74 1.43 0 2.3 1.065 2.3 2.637v.332h-3.79c.025 1.09.626 1.724 1.563 1.724.713 0 1.152-.337 1.294-.654l.019-.044h.85l-.01.039c-.18.713-.932 1.416-2.173 1.416Zm-.058-4.693c-.781 0-1.377.533-1.47 1.534h2.91c-.088-1.04-.664-1.534-1.44-1.534Zm8.306 4.64c-1.084 0-1.539-.401-1.539-1.407v-3.194h-.83v-.703h.83v-1.362h.879v1.362h1.153v.703h-1.153v2.979c0 .62.215.87.762.87.151 0 .234-.006.391-.02v.722c-.166.03-.327.05-.493.05Zm3.208.053c-1.001 0-1.758-.606-1.758-1.563v-.01c0-.937.693-1.479 1.919-1.552l1.508-.093v-.479c0-.649-.395-1-1.181-1-.63 0-1.045.234-1.182.644l-.005.015h-.849l.005-.03c.136-.825.937-1.381 2.06-1.381 1.284 0 2.002.659 2.002 1.753V31h-.85v-.776h-.078c-.332.561-.883.869-1.591.869Zm-.889-1.582c0 .532.454.845 1.064.845.865 0 1.494-.567 1.494-1.319v-.478l-1.406.087c-.801.05-1.152.332-1.152.855v.01Zm7.129 3.345c-1.27 0-2.08-.572-2.212-1.436l.01-.005h.879l.004.005c.093.4.562.683 1.319.683.942 0 1.504-.444 1.504-1.22v-1.065h-.078c-.332.581-.928.909-1.651.909-1.362 0-2.207-1.055-2.207-2.53v-.01c0-1.474.85-2.543 2.227-2.543.742 0 1.318.366 1.64.962h.059v-.87h.85v5.19c0 1.177-.909 1.93-2.344 1.93Zm-.039-2.881c.976 0 1.562-.733 1.562-1.778v-.01c0-1.044-.591-1.792-1.562-1.792-.977 0-1.524.748-1.524 1.793v.01c0 1.044.547 1.777 1.524 1.777Zm8.54 1.118c-1.197 0-1.812-.703-1.812-1.948v-3.409h.85v3.203c0 .948.342 1.402 1.181 1.402.928 0 1.421-.567 1.421-1.49v-3.115h.85V31h-.85v-.786h-.078c-.259.561-.791.879-1.562.879Zm5.884 0c-1.172 0-1.978-.567-2.076-1.436h.869c.142.44.562.728 1.236.728.708 0 1.211-.337 1.211-.816v-.01c0-.356-.269-.605-.918-.761l-.816-.195c-.986-.235-1.43-.665-1.43-1.421v-.005c0-.874.84-1.533 1.958-1.533 1.103 0 1.87.551 1.987 1.41h-.835c-.112-.414-.522-.702-1.157-.702-.625 0-1.084.322-1.084.786v.01c0 .356.264.58.884.732l.81.195c.991.24 1.47.67 1.47 1.421v.01c0 .937-.913 1.587-2.109 1.587Zm4.873 0c-1.001 0-1.758-.606-1.758-1.563v-.01c0-.937.693-1.479 1.919-1.552l1.509-.093v-.479c0-.649-.396-1-1.182-1-.63 0-1.045.234-1.182.644l-.005.015h-.849l.005-.03c.136-.825.937-1.381 2.06-1.381 1.284 0 2.002.659 2.002 1.753V31h-.849v-.776h-.079c-.332.561-.883.869-1.591.869Zm-.889-1.582c0 .532.454.845 1.064.845.865 0 1.495-.567 1.495-1.319v-.478l-1.407.087c-.801.05-1.152.332-1.152.855v.01Zm7.129 3.345c-1.27 0-2.08-.572-2.212-1.436l.01-.005h.879l.004.005c.093.4.562.683 1.319.683.942 0 1.504-.444 1.504-1.22v-1.065h-.078c-.332.581-.928.909-1.651.909-1.362 0-2.207-1.055-2.207-2.53v-.01c0-1.474.85-2.543 2.227-2.543.742 0 1.318.366 1.64.962h.059v-.87h.85v5.19c0 1.177-.909 1.93-2.344 1.93Zm-.039-2.881c.976 0 1.562-.733 1.562-1.778v-.01c0-1.044-.591-1.792-1.562-1.792-.977 0-1.524.748-1.524 1.793v.01c0 1.044.547 1.777 1.524 1.777Zm6.113 1.118c-1.504 0-2.412-1.055-2.412-2.705v-.005c0-1.626.928-2.74 2.358-2.74 1.431 0 2.3 1.065 2.3 2.637v.332h-3.789c.024 1.09.625 1.724 1.563 1.724.712 0 1.152-.337 1.294-.654l.019-.044h.85l-.01.039c-.181.713-.933 1.416-2.173 1.416Zm-.059-4.693c-.781 0-1.377.533-1.469 1.534h2.91c-.088-1.04-.664-1.534-1.441-1.534Zm8.213 6.358c-.952-1.265-1.386-2.74-1.386-4.556 0-1.811.429-3.29 1.386-4.556h.713c-.708.904-1.235 2.862-1.235 4.556 0 1.71.527 3.652 1.235 4.556h-.713Zm3.487-1.665c-1.001 0-1.758-.606-1.758-1.563v-.01c0-.937.693-1.479 1.919-1.552l1.509-.093v-.479c0-.649-.396-1-1.182-1-.63 0-1.045.234-1.182.644l-.005.015h-.849l.005-.03c.136-.825.937-1.381 2.06-1.381 1.284 0 2.002.659 2.002 1.753V31h-.849v-.776h-.079c-.332.561-.883.869-1.591.869Zm-.889-1.582c0 .532.454.845 1.064.845.865 0 1.495-.567 1.495-1.319v-.478l-1.407.087c-.8.05-1.152.332-1.152.855v.01Zm5.01 1.489v-7.354h.849V31h-.849Zm2.529 0v-7.354h.85V31h-.85Zm7.163.04c-1.084 0-1.538-.401-1.538-1.407v-3.194h-.83v-.703h.83v-1.362h.879v1.362h1.152v.703h-1.152v2.979c0 .62.215.87.762.87.151 0 .234-.006.39-.02v.722c-.166.03-.327.05-.493.05Zm2.212-6.32a.588.588 0 0 1-.586-.585c0-.323.264-.586.586-.586.322 0 .586.264.586.586a.588.588 0 0 1-.586.586ZM177.4 31v-5.264h.85V31h-.85Zm2.452 0v-5.264h.849v.801h.078c.235-.566.733-.893 1.421-.893.713 0 1.211.376 1.455.922h.078c.284-.556.884-.922 1.612-.922 1.074 0 1.675.615 1.675 1.718V31h-.85v-3.442c0-.777-.357-1.163-1.099-1.163-.732 0-1.216.552-1.216 1.221V31h-.849v-3.574c0-.625-.43-1.03-1.094-1.03-.688 0-1.211.6-1.211 1.342V31h-.849Zm10.849.093c-1.504 0-2.412-1.055-2.412-2.705v-.005c0-1.626.928-2.74 2.358-2.74 1.431 0 2.3 1.065 2.3 2.637v.332h-3.789c.025 1.09.625 1.724 1.563 1.724.713 0 1.152-.337 1.294-.654l.019-.044h.85l-.01.039c-.181.713-.933 1.416-2.173 1.416Zm-.058-4.693c-.782 0-1.377.533-1.47 1.534h2.91c-.088-1.04-.664-1.534-1.44-1.534Zm4.082 6.358h-.713c.708-.904 1.235-2.847 1.235-4.556 0-1.694-.527-3.652-1.235-4.556h.713c.957 1.265 1.386 2.745 1.386 4.556 0 1.817-.434 3.291-1.386 4.556Z" fill="#202020"/><path d="m273.929 23.571 14.142-14.142m-14.142 0 14.142 14.142" stroke="#202020" stroke-linecap="round"/><path d="M395.297 10V2.954h.879v3.423h.078l3.086-3.423h1.103l-2.817 3.042L400.702 10h-1.138l-2.543-3.394-.845.933V10h-.879Zm8.242.093c-1.504 0-2.412-1.055-2.412-2.705v-.005c0-1.626.928-2.74 2.358-2.74 1.431 0 2.3 1.065 2.3 2.637v.332h-3.789c.025 1.09.625 1.724 1.563 1.724.712 0 1.152-.337 1.294-.654l.019-.044h.85l-.01.039c-.181.713-.933 1.416-2.173 1.416ZM403.48 5.4c-.781 0-1.376.533-1.469 1.534h2.91c-.088-1.04-.664-1.534-1.441-1.534Zm3.975 6.446a2.43 2.43 0 0 1-.376-.03v-.698c.103.02.234.025.352.025.483 0 .776-.22.966-.826l.098-.312-1.948-5.269h.908l1.445 4.331h.079l1.44-4.33h.893l-2.055 5.585c-.435 1.182-.869 1.524-1.802 1.524Zm9.941-1.753c-1.503 0-2.412-1.055-2.412-2.705v-.005c0-1.626.928-2.74 2.359-2.74 1.43 0 2.3 1.065 2.3 2.637v.332h-3.789c.024 1.09.625 1.724 1.562 1.724.713 0 1.152-.337 1.294-.654l.019-.044h.85l-.01.039c-.18.713-.932 1.416-2.173 1.416Zm-.058-4.693c-.781 0-1.377.533-1.47 1.534h2.91c-.088-1.04-.664-1.534-1.44-1.534Zm3.974 4.6V5.44h-.874v-.704h.874V4.15c0-1.05.528-1.552 1.529-1.552.205 0 .39.014.566.048v.68a2.303 2.303 0 0 0-.395-.025c-.606 0-.85.298-.85.874v.561h1.196v.703h-1.196V10h-.85Zm3.624 0V5.44h-.874v-.704h.874V4.15c0-1.05.527-1.552 1.528-1.552.205 0 .39.014.566.048v.68a2.303 2.303 0 0 0-.395-.025c-.606 0-.85.298-.85.874v.561h1.196v.703h-1.196V10h-.849Zm3.72-6.28a.588.588 0 0 1-.586-.585.587.587 0 0 1 1.172 0 .587.587 0 0 1-.586.586Zm-.429 6.28V4.736h.849V10h-.849Zm4.604.093c-1.475 0-2.417-1.07-2.417-2.74v-.01c0-1.635.938-2.7 2.412-2.7 1.279 0 2.046.738 2.202 1.675l.005.03h-.845l-.004-.015c-.132-.518-.601-.937-1.358-.937-.947 0-1.543.761-1.543 1.948v.01c0 1.21.606 1.987 1.543 1.987.708 0 1.157-.313 1.353-.899l.009-.029.84-.005-.009.054c-.215.952-.923 1.63-2.188 1.63Zm3.892-6.372a.587.587 0 0 1-.586-.586.587.587 0 0 1 1.172 0 .588.588 0 0 1-.586.586Zm-.43 6.279V4.736h.85V10h-.85Zm4.6.093c-1.504 0-2.413-1.055-2.413-2.705v-.005c0-1.626.928-2.74 2.359-2.74s2.3 1.065 2.3 2.637v.332h-3.789c.024 1.09.625 1.724 1.562 1.724.713 0 1.152-.337 1.294-.654l.02-.044h.849l-.01.039c-.18.713-.932 1.416-2.172 1.416Zm-.059-4.693c-.781 0-1.377.533-1.47 1.534h2.91c-.087-1.04-.664-1.534-1.44-1.534Zm3.623 4.6V4.736h.85v.791h.078c.263-.556.757-.883 1.533-.883 1.182 0 1.841.698 1.841 1.948V10h-.85V6.797c0-.947-.39-1.401-1.23-1.401s-1.372.566-1.372 1.489V10h-.85Zm7.993.093c-1.474 0-2.417-1.07-2.417-2.74v-.01c0-1.635.938-2.7 2.412-2.7 1.28 0 2.046.738 2.202 1.675l.005.03h-.844l-.005-.015c-.132-.518-.601-.937-1.358-.937-.947 0-1.543.761-1.543 1.948v.01c0 1.21.606 1.987 1.543 1.987.708 0 1.158-.313 1.353-.899l.01-.029.839-.005-.009.054c-.215.952-.923 1.63-2.188 1.63Zm3.892 1.753a2.42 2.42 0 0 1-.376-.03v-.698c.102.02.234.025.351.025.484 0 .777-.22.967-.826l.098-.312-1.948-5.269h.908l1.445 4.331h.078l1.441-4.33h.893l-2.055 5.585c-.435 1.182-.87 1.524-1.802 1.524Zm9.101-5.186c-.898 0-1.44-.732-1.44-1.9v-.004c0-1.167.542-1.895 1.44-1.895.899 0 1.446.728 1.446 1.895v.005c0 1.167-.547 1.9-1.446 1.9Zm.528 3.34h-.791l4.795-7.046h.791L465.971 10Zm-.528-3.92c.484 0 .767-.494.767-1.32v-.004c0-.825-.283-1.314-.767-1.314-.483 0-.761.489-.761 1.314v.005c0 .825.278 1.318.761 1.318Zm5.049 4.013c-.898 0-1.44-.733-1.44-1.9v-.005c0-1.167.542-1.894 1.44-1.894.899 0 1.446.727 1.446 1.894v.005c0 1.167-.547 1.9-1.446 1.9Zm0-.581c.484 0 .767-.493.767-1.319v-.005c0-.825-.283-1.313-.767-1.313-.483 0-.762.488-.762 1.313v.005c0 .826.279 1.319.762 1.319ZM305 16h257v1H305zm73.593 15v-7.046h2.417c2.09 0 3.325 1.304 3.325 3.516v.01c0 2.216-1.231 3.52-3.325 3.52h-2.417Zm.879-.791h1.479c1.572 0 2.486-1.006 2.486-2.72v-.01c0-1.718-.923-2.734-2.486-2.734h-1.479v5.464Zm7.724.884c-1.001 0-1.758-.606-1.758-1.563v-.01c0-.937.694-1.479 1.919-1.552l1.509-.093v-.479c0-.649-.395-1-1.181-1-.63 0-1.045.234-1.182.644l-.005.015h-.85l.005-.03c.137-.825.938-1.381 2.061-1.381 1.284 0 2.002.659 2.002 1.753V31h-.85v-.776h-.078c-.332.561-.884.869-1.592.869Zm-.888-1.582c0 .532.454.845 1.064.845.864 0 1.494-.567 1.494-1.319v-.478l-1.406.087c-.801.05-1.152.332-1.152.855v.01Zm5.41-4.79a.588.588 0 0 1-.586-.586c0-.323.264-.586.586-.586.322 0 .586.264.586.586a.588.588 0 0 1-.586.586Zm-.43 6.279v-5.264h.85V31h-.85Zm2.5 0v-7.354h.85V31h-.85Zm2.93 1.846a2.42 2.42 0 0 1-.376-.03v-.698c.102.02.234.025.351.025.484 0 .777-.22.967-.826l.098-.312-1.948-5.269h.908l1.445 4.331h.078l1.441-4.33h.893l-2.055 5.585c-.435 1.182-.87 1.524-1.802 1.524ZM404.56 31v-7.354h.849v4.39h.078l2.276-2.3h1.03l-2.295 2.212L408.944 31h-1.069l-1.973-2.476-.493.479V31h-.849Zm7.285.093c-1.504 0-2.412-1.055-2.412-2.705v-.005c0-1.626.927-2.74 2.358-2.74s2.3 1.065 2.3 2.637v.332h-3.789c.024 1.09.625 1.724 1.562 1.724.713 0 1.153-.337 1.294-.654l.02-.044h.849l-.009.039c-.181.713-.933 1.416-2.173 1.416Zm-.059-4.693c-.781 0-1.377.533-1.47 1.534h2.911c-.088-1.04-.665-1.534-1.441-1.534Zm3.975 6.446a2.42 2.42 0 0 1-.376-.03v-.698c.102.02.234.025.351.025.484 0 .777-.22.967-.826l.098-.312-1.948-5.269h.908l1.445 4.331h.078l1.441-4.33h.893l-2.056 5.585c-.434 1.182-.869 1.524-1.801 1.524ZM423.554 31v-5.264h.849v.782h.078c.201-.552.694-.874 1.407-.874.161 0 .341.02.424.034v.825a3.04 3.04 0 0 0-.522-.049c-.811 0-1.387.513-1.387 1.284V31h-.849Zm5.254.093c-1.001 0-1.758-.606-1.758-1.563v-.01c0-.937.693-1.479 1.919-1.552l1.509-.093v-.479c0-.649-.396-1-1.182-1-.63 0-1.045.234-1.182.644l-.005.015h-.849l.005-.03c.136-.825.937-1.381 2.06-1.381 1.284 0 2.002.659 2.002 1.753V31h-.849v-.776h-.079c-.332.561-.883.869-1.591.869Zm-.889-1.582c0 .532.454.845 1.064.845.865 0 1.495-.567 1.495-1.319v-.478l-1.407.087c-.8.05-1.152.332-1.152.855v.01Zm6.831 1.528c-1.084 0-1.538-.4-1.538-1.406v-3.194h-.83v-.703h.83v-1.362h.879v1.362h1.152v.703h-1.152v2.979c0 .62.215.87.762.87.151 0 .234-.006.39-.02v.722c-.166.03-.327.05-.493.05Zm2.212-6.318a.588.588 0 0 1-.586-.586c0-.323.264-.586.586-.586.322 0 .586.264.586.586a.588.588 0 0 1-.586.586Zm-.43 6.279v-5.264h.85V31h-.85Zm2.451 0v-5.264h.85v.791h.078c.264-.556.757-.883 1.533-.883 1.182 0 1.841.698 1.841 1.948V31h-.849v-3.203c0-.947-.391-1.402-1.231-1.402-.84 0-1.372.567-1.372 1.49V31h-.85Zm8.008 1.855c-1.269 0-2.08-.57-2.212-1.435l.01-.005h.879l.005.005c.093.4.561.683 1.318.683.943 0 1.504-.444 1.504-1.22v-1.065h-.078c-.332.581-.928.909-1.65.909-1.363 0-2.207-1.055-2.207-2.53v-.01c0-1.474.849-2.543 2.226-2.543.742 0 1.318.366 1.641.962h.058v-.87h.85v5.19c0 1.177-.908 1.93-2.344 1.93Zm-.039-2.88c.977 0 1.563-.733 1.563-1.778v-.01c0-1.044-.591-1.792-1.563-1.792-.976 0-1.523.748-1.523 1.793v.01c0 1.044.547 1.777 1.523 1.777Zm8.555 2.783c-.952-1.265-1.387-2.74-1.387-4.556 0-1.811.43-3.29 1.387-4.556h.713c-.708.904-1.236 2.862-1.236 4.556 0 1.71.528 3.652 1.236 4.556h-.713Zm3.486-1.665c-1.001 0-1.758-.606-1.758-1.563v-.01c0-.937.694-1.479 1.919-1.552l1.509-.093v-.479c0-.649-.395-1-1.182-1-.629 0-1.044.234-1.181.644l-.005.015h-.85l.005-.03c.137-.825.938-1.381 2.061-1.381 1.284 0 2.002.659 2.002 1.753V31h-.85v-.776h-.078c-.332.561-.884.869-1.592.869Zm-.889-1.582c0 .532.455.845 1.065.845.864 0 1.494-.567 1.494-1.319v-.478l-1.406.087c-.801.05-1.153.332-1.153.855v.01Zm7.115 1.582c-1.475 0-2.417-1.07-2.417-2.74v-.01c0-1.635.937-2.7 2.412-2.7 1.279 0 2.046.738 2.202 1.675l.005.03h-.845l-.005-.015c-.132-.518-.6-.938-1.357-.938-.947 0-1.543.762-1.543 1.949v.01c0 1.21.605 1.987 1.543 1.987.708 0 1.157-.313 1.352-.899l.01-.029.84-.005-.01.054c-.215.952-.923 1.63-2.187 1.63Zm5.41-.054c-1.084 0-1.538-.4-1.538-1.406v-3.194h-.83v-.703h.83v-1.362h.879v1.362h1.152v.703h-1.152v2.979c0 .62.215.87.761.87.152 0 .235-.006.391-.02v.722c-.166.03-.327.05-.493.05Zm3.525.054c-1.196 0-1.811-.703-1.811-1.948v-3.409h.849v3.203c0 .948.342 1.402 1.182 1.402.928 0 1.421-.567 1.421-1.49v-3.115h.85V31h-.85v-.786h-.078c-.259.561-.791.879-1.563.879Zm5.523 0c-1.001 0-1.758-.606-1.758-1.563v-.01c0-.937.693-1.479 1.919-1.552l1.509-.093v-.479c0-.649-.396-1-1.182-1-.63 0-1.045.234-1.182.644l-.004.015h-.85l.005-.03c.137-.825.937-1.381 2.06-1.381 1.285 0 2.002.659 2.002 1.753V31h-.849v-.776h-.078c-.332.561-.884.869-1.592.869Zm-.889-1.582c0 .532.454.845 1.065.845.864 0 1.494-.567 1.494-1.319v-.478l-1.407.087c-.8.05-1.152.332-1.152.855v.01Zm5.01 1.489v-7.354h.849V31h-.849Zm2.939 1.758h-.713c.708-.904 1.236-2.847 1.236-4.556 0-1.694-.528-3.652-1.236-4.556h.713c.957 1.265 1.387 2.745 1.387 4.556 0 1.817-.435 3.291-1.387 4.556Z" fill="#202020"/><path d="m578.929 23.571 14.142-14.142m-14.142 0 14.142 14.142" stroke="#202020" stroke-linecap="round"/><path d="M611.166 20.5v-7.046h1.021l2.412 5.879h.078l2.412-5.879h1.02V20.5h-.82v-5.38h-.054l-2.226 5.38h-.742l-2.227-5.38h-.054v5.38h-.82Zm8.179 0 2.597-7.046h.87l2.597 7.046h-.923l-.708-2.017h-2.802l-.708 2.017h-.923Zm2.993-5.908-1.104 3.144h2.286l-1.104-3.144h-.078Zm3.843 5.908 2.402-3.54v-.02l-2.373-3.486h1.06l1.884 2.837h.03l1.904-2.837h1.001l-2.437 3.53v.02l2.383 3.496h-1.055l-1.875-2.813h-.029l-1.899 2.813h-.996Zm12.104.093c-1.504 0-2.412-1.055-2.412-2.705v-.005c0-1.626.928-2.74 2.358-2.74 1.431 0 2.3 1.065 2.3 2.637v.332h-3.789c.025 1.09.625 1.724 1.563 1.724.713 0 1.152-.337 1.294-.654l.019-.044h.85l-.01.039c-.181.713-.933 1.416-2.173 1.416Zm-.058-4.693c-.782 0-1.377.533-1.47 1.534h2.91c-.088-1.04-.664-1.534-1.44-1.534Zm3.623 4.6v-5.264h.849v.791h.078c.264-.556.757-.883 1.534-.883 1.181 0 1.84.698 1.84 1.948V20.5h-.849v-3.203c0-.947-.391-1.402-1.231-1.402-.84 0-1.372.567-1.372 1.49V20.5h-.849Zm7.71.04c-1.084 0-1.539-.401-1.539-1.407V15.94h-.83v-.704h.83v-1.362h.879v1.362h1.153v.704H648.9v2.978c0 .62.215.87.762.87.151 0 .234-.006.391-.02v.722c-.166.03-.327.05-.493.05Zm3.833.053c-1.504 0-2.413-1.055-2.413-2.705v-.005c0-1.626.928-2.74 2.359-2.74s2.3 1.065 2.3 2.637v.332h-3.789c.024 1.09.625 1.724 1.562 1.724.713 0 1.152-.337 1.294-.654l.02-.044h.849l-.01.039c-.18.713-.932 1.416-2.172 1.416Zm-.059-4.693c-.781 0-1.377.533-1.47 1.534h2.91c-.087-1.04-.664-1.534-1.44-1.534Zm3.623 4.6v-5.264h.85v.782h.078c.2-.552.693-.874 1.406-.874.161 0 .342.02.425.034v.825a3.06 3.06 0 0 0-.523-.049c-.81 0-1.386.513-1.386 1.284V20.5h-.85Zm5.811.093c-1.504 0-2.413-1.055-2.413-2.705v-.005c0-1.626.928-2.74 2.359-2.74s2.3 1.065 2.3 2.637v.332h-3.789c.024 1.09.625 1.724 1.562 1.724.713 0 1.152-.337 1.294-.654l.02-.044h.849l-.01.039c-.18.713-.932 1.416-2.172 1.416Zm-.059-4.693c-.781 0-1.377.533-1.47 1.534h2.91c-.087-1.04-.664-1.534-1.44-1.534Zm5.566 4.693c-1.333 0-2.207-1.08-2.207-2.72v-.01c0-1.65.87-2.72 2.207-2.72.723 0 1.353.362 1.641.923h.078v-2.92h.85V20.5h-.85v-.84h-.078c-.322.586-.908.933-1.641.933Zm.196-.752c.957 0 1.543-.752 1.543-1.968v-.01c0-1.215-.586-1.967-1.543-1.967-.962 0-1.533.742-1.533 1.967v.01c0 1.226.571 1.968 1.533 1.968Zm6.865.659v-7.354h.85v4.39h.078l2.275-2.3h1.03l-2.295 2.212 2.447 3.052h-1.07l-1.972-2.476-.493.479V20.5h-.85Zm7.285.093c-1.504 0-2.412-1.055-2.412-2.705v-.005c0-1.626.928-2.74 2.358-2.74 1.431 0 2.3 1.065 2.3 2.637v.332h-3.789c.025 1.09.625 1.724 1.563 1.724.713 0 1.152-.337 1.294-.654l.019-.044h.85l-.01.039c-.181.713-.933 1.416-2.173 1.416Zm-.059-4.693c-.781 0-1.376.533-1.469 1.534h2.91c-.088-1.04-.664-1.534-1.441-1.534Zm3.975 6.446a2.43 2.43 0 0 1-.376-.03v-.698c.103.02.235.025.352.025.483 0 .776-.22.966-.826l.098-.312-1.948-5.269h.908l1.445 4.331h.079l1.44-4.33h.894l-2.056 5.585c-.435 1.182-.869 1.524-1.802 1.524Zm9.238-1.753c-1.001 0-1.757-.606-1.757-1.563v-.01c0-.937.693-1.479 1.919-1.552l1.508-.093v-.479c0-.649-.395-1-1.181-1-.63 0-1.045.234-1.182.644l-.005.015h-.849l.004-.03c.137-.825.938-1.381 2.061-1.381 1.284 0 2.002.659 2.002 1.752V20.5h-.85v-.776h-.078c-.332.561-.884.869-1.592.869Zm-.888-1.582c0 .532.454.845 1.064.845.864 0 1.494-.567 1.494-1.319v-.478l-1.406.087c-.801.05-1.152.332-1.152.855v.01Zm7.578 1.582c-.733 0-1.319-.347-1.641-.933h-.078v.84h-.85v-7.354h.85v2.92h.078c.288-.561.918-.922 1.641-.922 1.338 0 2.207 1.069 2.207 2.72v.009c0 1.64-.874 2.72-2.207 2.72Zm-.195-.752c.961 0 1.533-.742 1.533-1.968v-.01c0-1.225-.572-1.967-1.533-1.967-.958 0-1.543.752-1.543 1.967v.01c0 1.216.585 1.968 1.543 1.968Zm4.169-5.62a.587.587 0 0 1 0-1.172c.323 0 .586.264.586.586a.587.587 0 0 1-.586.586Zm-.429 6.279v-5.264h.849V20.5h-.849Zm2.5 0v-7.354h.849V20.5h-.849Zm2.929-6.28a.587.587 0 0 1 0-1.171c.323 0 .586.264.586.586a.587.587 0 0 1-.586.586Zm-.429 6.28v-5.264h.849V20.5h-.849Zm4.321.04c-1.084 0-1.538-.401-1.538-1.407V15.94h-.83v-.704h.83v-1.362h.879v1.362h1.152v.704h-1.152v2.978c0 .62.215.87.762.87.151 0 .234-.006.39-.02v.722c-.166.03-.327.05-.493.05Zm2.212 1.806a2.43 2.43 0 0 1-.376-.03v-.698c.103.02.234.025.352.025.483 0 .776-.22.966-.826l.098-.312-1.948-5.269h.908l1.445 4.331h.078l1.441-4.33h.893l-2.055 5.585c-.435 1.182-.869 1.524-1.802 1.524Z" fill="#202020"/><path d="m738.929 23.571 14.142-14.142m-14.142 0 14.142 14.142" stroke="#202020" stroke-linecap="round"/><path d="M773.006 22.258c-.952-1.265-1.387-2.74-1.387-4.556 0-1.811.43-3.29 1.387-4.556h.713c-.708.904-1.236 2.862-1.236 4.556 0 1.71.528 3.652 1.236 4.556h-.713Zm3.887-1.665c-1.333 0-2.207-1.08-2.207-2.72v-.01c0-1.65.869-2.72 2.207-2.72.722 0 1.352.362 1.64.923h.078v-2.92h.85V20.5h-.85v-.84h-.078c-.322.586-.908.933-1.64.933Zm.195-.752c.957 0 1.543-.752 1.543-1.968v-.01c0-1.215-.586-1.967-1.543-1.967-.962 0-1.533.742-1.533 1.967v.01c0 1.226.571 1.968 1.533 1.968Zm5.449.752c-1.001 0-1.758-.606-1.758-1.563v-.01c0-.937.694-1.479 1.919-1.552l1.509-.093v-.479c0-.649-.395-1-1.182-1-.629 0-1.045.234-1.181.644l-.005.015h-.85l.005-.03c.137-.825.938-1.381 2.061-1.381 1.284 0 2.002.659 2.002 1.752V20.5h-.85v-.776h-.078c-.332.561-.884.869-1.592.869Zm-.889-1.582c0 .532.455.845 1.065.845.864 0 1.494-.567 1.494-1.319v-.478l-1.406.087c-.801.05-1.153.332-1.153.855v.01Zm5.411-4.79a.587.587 0 0 1-.586-.586c0-.322.263-.586.586-.586.322 0 .586.264.586.586a.588.588 0 0 1-.586.586Zm-.43 6.279v-5.264h.85V20.5h-.85Zm2.5 0v-7.354h.85V20.5h-.85Zm2.93 1.846a2.42 2.42 0 0 1-.376-.03v-.698c.102.02.234.025.351.025.484 0 .777-.22.967-.826l.098-.312-1.949-5.269h.909l1.445 4.331h.078l1.44-4.33h.894l-2.056 5.585c-.434 1.182-.869 1.524-1.801 1.524Zm9.663-1.807c-1.084 0-1.538-.4-1.538-1.406V15.94h-.83v-.704h.83v-1.362h.878v1.362h1.153v.704h-1.153v2.978c0 .62.215.87.762.87.152 0 .235-.006.391-.02v.722c-.166.03-.327.05-.493.05Zm3.208.054c-1.001 0-1.758-.606-1.758-1.563v-.01c0-.937.693-1.479 1.919-1.552l1.509-.093v-.479c0-.649-.396-1-1.182-1-.63 0-1.045.234-1.182.644l-.005.015h-.849l.005-.03c.136-.825.937-1.381 2.06-1.381 1.284 0 2.002.659 2.002 1.752V20.5h-.849v-.776h-.079c-.332.561-.883.869-1.591.869Zm-.889-1.582c0 .532.454.845 1.064.845.865 0 1.495-.567 1.495-1.319v-.478l-1.407.087c-.8.05-1.152.332-1.152.855v.01Zm7.129 3.345c-1.27 0-2.08-.572-2.212-1.436l.01-.005h.879l.005.005c.092.4.561.683 1.318.683.942 0 1.504-.444 1.504-1.22v-1.065h-.078c-.332.581-.928.909-1.651.909-1.362 0-2.207-1.055-2.207-2.53v-.01c0-1.474.85-2.543 2.227-2.543.742 0 1.318.366 1.64.961h.059v-.869h.85v5.19c0 1.178-.909 1.93-2.344 1.93Zm-.039-2.881c.976 0 1.562-.733 1.562-1.778v-.01c0-1.044-.59-1.792-1.562-1.792-.977 0-1.524.748-1.524 1.793v.01c0 1.044.547 1.777 1.524 1.777Zm8.54 1.118c-1.196 0-1.812-.703-1.812-1.948v-3.409h.85v3.203c0 .948.342 1.402 1.182 1.402.927 0 1.421-.567 1.421-1.49v-3.115h.849V20.5h-.849v-.786h-.079c-.258.561-.791.879-1.562.879Zm5.884 0c-1.172 0-1.978-.567-2.076-1.436h.87c.141.44.561.728 1.235.728.708 0 1.211-.337 1.211-.816v-.01c0-.356-.269-.605-.918-.761l-.815-.195c-.987-.235-1.431-.665-1.431-1.421v-.005c0-.874.84-1.533 1.958-1.533 1.103 0 1.87.551 1.987 1.41h-.835c-.112-.414-.522-.702-1.157-.702-.625 0-1.084.322-1.084.786v.01c0 .356.264.58.884.732l.81.195c.992.24 1.47.67 1.47 1.421v.01c0 .937-.913 1.587-2.109 1.587Zm4.873 0c-1.001 0-1.758-.606-1.758-1.563v-.01c0-.937.693-1.479 1.919-1.552l1.509-.093v-.479c0-.649-.396-1-1.182-1-.63 0-1.045.234-1.182.644l-.005.015h-.849l.005-.03c.136-.825.937-1.381 2.06-1.381 1.284 0 2.002.659 2.002 1.752V20.5h-.849v-.776h-.078c-.332.561-.884.869-1.592.869Zm-.889-1.582c0 .532.454.845 1.065.845.864 0 1.494-.567 1.494-1.319v-.478l-1.407.087c-.8.05-1.152.332-1.152.855v.01Zm7.129 3.345c-1.27 0-2.08-.572-2.212-1.436l.01-.005h.879l.005.005c.092.4.561.683 1.318.683.942 0 1.504-.444 1.504-1.22v-1.065h-.078c-.332.581-.928.909-1.651.909-1.362 0-2.207-1.055-2.207-2.53v-.01c0-1.474.85-2.543 2.227-2.543.742 0 1.318.366 1.641.961h.058v-.869h.85v5.19c0 1.178-.908 1.93-2.344 1.93Zm-.039-2.881c.976 0 1.562-.733 1.562-1.778v-.01c0-1.044-.59-1.792-1.562-1.792-.977 0-1.524.748-1.524 1.793v.01c0 1.044.547 1.777 1.524 1.777Zm6.113 1.118c-1.504 0-2.412-1.055-2.412-2.705v-.005c0-1.626.928-2.74 2.358-2.74 1.431 0 2.3 1.065 2.3 2.637v.332h-3.789c.025 1.09.625 1.724 1.563 1.724.713 0 1.152-.337 1.294-.654l.019-.044h.85l-.01.039c-.181.713-.933 1.416-2.173 1.416Zm-.058-4.693c-.782 0-1.377.533-1.47 1.534h2.91c-.088-1.04-.664-1.534-1.44-1.534Zm6.46-.078.532-.522 1.802 1.83 1.796-1.83.533.522L852 17.663l1.807 1.846-.533.522-1.796-1.83-1.802 1.83-.532-.522 1.806-1.846-1.806-1.84Zm11.025 4.678v-6.255h-2.271v-.79h5.42v.79h-2.27V20.5h-.879Zm4.819.093c-1.001 0-1.758-.606-1.758-1.563v-.01c0-.937.694-1.479 1.919-1.552l1.509-.093v-.479c0-.649-.395-1-1.181-1-.63 0-1.045.234-1.182.644l-.005.015h-.85l.005-.03c.137-.825.938-1.381 2.061-1.381 1.284 0 2.002.659 2.002 1.752V20.5h-.85v-.776h-.078c-.332.561-.884.869-1.592.869Zm-.888-1.582c0 .532.454.845 1.064.845.864 0 1.494-.567 1.494-1.319v-.478l-1.406.087c-.801.05-1.152.332-1.152.855v.01Zm7.129 3.345c-1.27 0-2.081-.572-2.212-1.436l.009-.005h.879l.005.005c.093.4.562.683 1.319.683.942 0 1.503-.444 1.503-1.22v-1.065h-.078c-.332.581-.927.909-1.65.909-1.362 0-2.207-1.055-2.207-2.53v-.01c0-1.474.849-2.543 2.226-2.543.743 0 1.319.366 1.641.961h.059v-.869h.849v5.19c0 1.178-.908 1.93-2.343 1.93Zm-.04-2.881c.977 0 1.563-.733 1.563-1.778v-.01c0-1.044-.591-1.792-1.563-1.792-.976 0-1.523.748-1.523 1.793v.01c0 1.044.547 1.777 1.523 1.777Zm6.778 2.783v-7.022h.849v.84h.079c.322-.586.908-.932 1.64-.932 1.333 0 2.207 1.079 2.207 2.72v.009c0 1.65-.869 2.72-2.207 2.72-.723 0-1.352-.362-1.64-.923h-.079v2.588h-.849Zm2.373-2.417c.962 0 1.533-.742 1.533-1.968v-.01c0-1.225-.571-1.967-1.533-1.967-.957 0-1.543.752-1.543 1.967v.01c0 1.216.586 1.968 1.543 1.968Zm5.893.752c-1.499 0-2.426-1.035-2.426-2.72v-.01c0-1.69.927-2.72 2.426-2.72s2.427 1.03 2.427 2.72v.01c0 1.685-.928 2.72-2.427 2.72Zm0-.752c.996 0 1.558-.728 1.558-1.968v-.01c0-1.245-.562-1.967-1.558-1.967s-1.557.722-1.557 1.967v.01c0 1.24.561 1.968 1.557 1.968Zm5.552.752c-1.172 0-1.977-.567-2.075-1.436h.869c.142.44.562.728 1.235.728.708 0 1.211-.337 1.211-.816v-.01c0-.356-.268-.605-.918-.761l-.815-.195c-.986-.235-1.431-.665-1.431-1.421v-.005c0-.874.84-1.533 1.958-1.533 1.104 0 1.87.551 1.988 1.41h-.835c-.113-.414-.523-.702-1.158-.702-.625 0-1.084.322-1.084.786v.01c0 .356.264.58.884.732l.811.195c.991.24 1.47.67 1.47 1.421v.01c0 .937-.914 1.587-2.11 1.587Zm3.877-6.372a.588.588 0 0 1-.586-.586c0-.322.264-.586.586-.586.322 0 .586.264.586.586a.588.588 0 0 1-.586.586Zm-.43 6.279v-5.264h.85V20.5h-.85Zm4.322.04c-1.084 0-1.538-.401-1.538-1.407V15.94h-.83v-.704h.83v-1.362h.879v1.362h1.152v.704h-1.152v2.978c0 .62.214.87.761.87.152 0 .235-.006.391-.02v.722c-.166.03-.327.05-.493.05Zm2.212-6.32a.587.587 0 0 1-.586-.585c0-.322.263-.586.586-.586.322 0 .586.264.586.586a.588.588 0 0 1-.586.586Zm-.43 6.28v-5.264h.85V20.5h-.85Zm4.614.093c-1.499 0-2.427-1.035-2.427-2.72v-.01c0-1.69.928-2.72 2.427-2.72s2.427 1.03 2.427 2.72v.01c0 1.685-.928 2.72-2.427 2.72Zm0-.752c.996 0 1.558-.728 1.558-1.968v-.01c0-1.245-.562-1.967-1.558-1.967s-1.557.722-1.557 1.967v.01c0 1.24.561 1.968 1.557 1.968Zm3.745.659v-5.264h.85v.791h.078c.264-.556.757-.883 1.533-.883 1.182 0 1.841.698 1.841 1.948V20.5h-.85v-3.203c0-.947-.39-1.402-1.23-1.402s-1.372.567-1.372 1.49V20.5h-.85Zm6.299 1.758h-.713c.708-.903 1.236-2.847 1.236-4.556 0-1.694-.528-3.652-1.236-4.556h.713c.957 1.265 1.387 2.745 1.387 4.556 0 1.817-.435 3.291-1.387 4.556Z" fill="#202020"/><path d="m935.929 23.571 14.142-14.142m-14.142 0 14.142 14.142" stroke="#202020" stroke-linecap="round"/><path d="M1028.89 10.166c-1.54 0-2.54-.81-2.64-1.958l-.01-.054h.88l.01.054c.06.703.79 1.147 1.81 1.147.95 0 1.65-.493 1.65-1.21V8.14c0-.586-.4-.987-1.37-1.202l-.78-.17c-1.41-.313-2.02-.962-2.02-1.983V4.78c0-1.167 1.02-1.992 2.48-1.992 1.4 0 2.39.83 2.46 1.88v.068h-.87l-.01-.063c-.1-.62-.69-1.08-1.61-1.074-.87.005-1.55.42-1.55 1.157v.005c0 .561.38.942 1.34 1.152l.78.176c1.47.327 2.05.918 2.05 1.933v.005c0 1.319-1.03 2.139-2.6 2.139Zm5.72-.073c-1.19 0-1.81-.703-1.81-1.948V4.736h.85V7.94c0 .948.34 1.402 1.18 1.402.93 0 1.42-.567 1.42-1.49V4.737h.85V10h-.85v-.786h-.08c-.25.561-.79.879-1.56.879Zm6.23 0c-1.47 0-2.42-1.07-2.42-2.74v-.01c0-1.635.94-2.7 2.42-2.7 1.28 0 2.04.738 2.2 1.675v.03h-.84l-.01-.015c-.13-.518-.6-.937-1.35-.937-.95 0-1.55.761-1.55 1.948v.01c0 1.21.61 1.987 1.55 1.987.7 0 1.15-.313 1.35-.899l.01-.029.84-.005-.01.054c-.22.952-.92 1.63-2.19 1.63Zm5.6 0c-1.48 0-2.42-1.07-2.42-2.74v-.01c0-1.635.94-2.7 2.41-2.7 1.28 0 2.05.738 2.2 1.675l.01.03h-.85v-.015c-.13-.518-.6-.937-1.36-.937-.94 0-1.54.761-1.54 1.948v.01c0 1.21.61 1.987 1.54 1.987.71 0 1.16-.313 1.36-.899v-.029l.84-.005-.01.054c-.21.952-.92 1.63-2.18 1.63Zm5.59 0c-1.51 0-2.41-1.055-2.41-2.705v-.005c0-1.626.92-2.74 2.35-2.74 1.44 0 2.3 1.065 2.3 2.637v.332h-3.78c.02 1.09.62 1.724 1.56 1.724.71 0 1.15-.337 1.29-.654l.02-.044h.85l-.01.039c-.18.713-.93 1.416-2.17 1.416Zm-.06-4.693c-.78 0-1.38.533-1.47 1.534h2.91c-.09-1.04-.66-1.534-1.44-1.534Zm5.43 4.693c-1.17 0-1.98-.567-2.08-1.436h.87c.14.44.56.728 1.24.728.71 0 1.21-.337 1.21-.816v-.01c0-.356-.27-.605-.92-.761l-.81-.195c-.99-.235-1.43-.665-1.43-1.421v-.005c0-.874.84-1.533 1.95-1.533 1.11 0 1.87.551 1.99 1.41h-.83c-.12-.414-.53-.702-1.16-.702-.63 0-1.09.322-1.09.786v.01c0 .356.27.58.89.732l.81.195c.99.24 1.47.67 1.47 1.421v.01c0 .937-.91 1.587-2.11 1.587Zm5.14 0c-1.18 0-1.98-.567-2.08-1.436h.87c.14.44.56.728 1.24.728.7 0 1.21-.337 1.21-.816v-.01c0-.356-.27-.605-.92-.761l-.82-.195c-.98-.235-1.43-.665-1.43-1.421v-.005c0-.874.84-1.533 1.96-1.533 1.1 0 1.87.551 1.99 1.41h-.84c-.11-.414-.52-.702-1.15-.702-.63 0-1.09.322-1.09.786v.01c0 .356.27.58.89.732l.81.195c.99.24 1.47.67 1.47 1.421v.01c0 .937-.92 1.587-2.11 1.587Zm6.24-.093V4.736h.85v.782h.07c.2-.552.7-.874 1.41-.874.16 0 .34.02.43.034v.825c-.18-.03-.34-.049-.53-.049-.81 0-1.38.513-1.38 1.284V10h-.85Zm5.25.093c-1 0-1.76-.606-1.76-1.563v-.01c0-.937.7-1.479 1.92-1.552l1.51-.093v-.479c0-.649-.4-1-1.18-1-.63 0-1.05.234-1.18.644l-.01.015h-.85l.01-.03c.13-.825.93-1.381 2.06-1.381 1.28 0 2 .659 2 1.752V10h-.85v-.776h-.08c-.33.561-.88.869-1.59.869Zm-.89-1.582c0 .532.46.844 1.07.844.86 0 1.49-.566 1.49-1.318V7.56l-1.41.087c-.8.05-1.15.333-1.15.855v.01Zm6.83 1.528c-1.08 0-1.54-.4-1.54-1.406V5.439h-.83v-.703h.83V3.374h.88v1.362h1.16v.703h-1.16v2.979c0 .62.22.87.77.87.15 0 .23-.006.39-.02v.722c-.17.03-.33.05-.5.05Zm3.84.054c-1.51 0-2.42-1.055-2.42-2.705v-.005c0-1.626.93-2.74 2.36-2.74 1.43 0 2.3 1.065 2.3 2.637v.332h-3.79c.03 1.09.63 1.724 1.57 1.724.71 0 1.15-.337 1.29-.654l.02-.044h.85l-.01.039c-.18.713-.93 1.416-2.17 1.416Zm-.06-4.693c-.78 0-1.38.533-1.47 1.534h2.91c-.09-1.04-.67-1.534-1.44-1.534Zm8.6 4.693c-1.5 0-2.43-1.035-2.43-2.72v-.01c0-1.69.93-2.72 2.43-2.72 1.49 0 2.42 1.03 2.42 2.72v.01c0 1.685-.93 2.72-2.42 2.72Zm0-.752c.99 0 1.55-.728 1.55-1.968v-.01c0-1.245-.56-1.967-1.55-1.967-1 0-1.56.722-1.56 1.967v.01c0 1.24.56 1.968 1.56 1.968Zm4.09.659V5.44h-.87v-.704h.87V4.15c0-1.05.53-1.552 1.53-1.552a3 3 0 0 1 .57.048v.68c-.11-.02-.25-.025-.4-.025-.6 0-.85.298-.85.874v.561h1.2v.703h-1.2V10h-.85Zm7.89.093c-1.17 0-1.97-.567-2.07-1.436h.87c.14.44.56.728 1.23.728.71 0 1.21-.337 1.21-.816v-.01c0-.356-.27-.605-.91-.761l-.82-.195c-.99-.235-1.43-.665-1.43-1.421v-.005c0-.874.84-1.533 1.96-1.533 1.1 0 1.87.551 1.98 1.41h-.83c-.11-.414-.52-.702-1.16-.702-.62 0-1.08.322-1.08.786v.01c0 .356.26.58.88.732l.81.195c.99.24 1.47.67 1.47 1.421v.01c0 .937-.91 1.587-2.11 1.587Zm5.58 0c-1.5 0-2.41-1.055-2.41-2.705v-.005c0-1.626.92-2.74 2.36-2.74 1.43 0 2.3 1.065 2.3 2.637v.332h-3.79c.02 1.09.62 1.724 1.56 1.724.71 0 1.15-.337 1.29-.654l.02-.044h.85l-.01.039c-.18.713-.93 1.416-2.17 1.416Zm-.06-4.693c-.78 0-1.38.533-1.47 1.534h2.91c-.09-1.04-.66-1.534-1.44-1.534Zm3.67 4.6V2.646h.85V10h-.85Zm4.63.093c-1.5 0-2.41-1.055-2.41-2.705v-.005c0-1.626.93-2.74 2.36-2.74 1.43 0 2.3 1.065 2.3 2.637v.332h-3.79c.02 1.09.62 1.724 1.56 1.724.71 0 1.15-.337 1.29-.654l.02-.044h.85l-.01.039c-.18.713-.93 1.416-2.17 1.416Zm-.06-4.693c-.78 0-1.37.533-1.47 1.534h2.91c-.08-1.04-.66-1.534-1.44-1.534Zm5.78 4.693c-1.48 0-2.42-1.07-2.42-2.74v-.01c0-1.635.94-2.7 2.41-2.7 1.28 0 2.05.738 2.21 1.675v.03h-.84l-.01-.015c-.13-.518-.6-.937-1.36-.937-.94 0-1.54.761-1.54 1.948v.01c0 1.21.61 1.987 1.54 1.987.71 0 1.16-.313 1.36-.899l.01-.029.84-.005-.01.054c-.22.952-.93 1.63-2.19 1.63Zm5.41-.054c-1.08 0-1.54-.4-1.54-1.406V5.439h-.83v-.703h.83V3.374h.88v1.362h1.15v.703h-1.15v2.979c0 .62.21.87.76.87.15 0 .24-.006.39-.02v.722c-.16.03-.32.05-.49.05Zm3.83.054c-1.5 0-2.41-1.055-2.41-2.705v-.005c0-1.626.93-2.74 2.36-2.74 1.43 0 2.3 1.065 2.3 2.637v.332h-3.79c.02 1.09.62 1.724 1.56 1.724.71 0 1.15-.337 1.3-.654l.02-.044h.84v.039c-.19.713-.94 1.416-2.18 1.416Zm-.06-4.693c-.78 0-1.37.533-1.47 1.534h2.91c-.08-1.04-.66-1.534-1.44-1.534Zm5.57 4.693c-1.33 0-2.21-1.08-2.21-2.72v-.01c0-1.65.87-2.72 2.21-2.72.72 0 1.35.362 1.64.923h.08v-2.92h.85V10h-.85v-.84h-.08c-.32.586-.91.933-1.64.933Zm.2-.752c.95 0 1.54-.752 1.54-1.968v-.01c0-1.216-.59-1.967-1.54-1.967-.97 0-1.54.742-1.54 1.967v.01c0 1.226.57 1.968 1.54 1.968Zm8.68.698c-1.08 0-1.54-.4-1.54-1.406V5.439h-.83v-.703h.83V3.374h.88v1.362h1.16v.703h-1.16v2.979c0 .62.22.87.76.87.16 0 .24-.006.4-.02v.722c-.17.03-.33.05-.5.05Zm3.21.054c-1 0-1.76-.606-1.76-1.563v-.01c0-.937.7-1.479 1.92-1.552l1.51-.093v-.479c0-.649-.4-1-1.18-1-.63 0-1.05.234-1.18.644l-.01.015h-.85l.01-.03c.13-.825.93-1.381 2.06-1.381 1.28 0 2 .659 2 1.752V10h-.85v-.776h-.08c-.33.561-.88.869-1.59.869Zm-.89-1.582c0 .532.46.844 1.07.844.86 0 1.49-.566 1.49-1.318V7.56l-1.41.087c-.8.05-1.15.333-1.15.855v.01Zm7.13 3.345c-1.27 0-2.08-.572-2.21-1.436l.01-.005h.88v.005c.09.4.56.684 1.32.684.94 0 1.5-.445 1.5-1.221V8.818h-.07c-.34.581-.93.909-1.65.909-1.37 0-2.21-1.055-2.21-2.53v-.01c0-1.474.85-2.543 2.23-2.543.74 0 1.31.366 1.64.961h.05v-.869h.85v5.19c0 1.178-.9 1.93-2.34 1.93Zm-.04-2.881c.98 0 1.56-.733 1.56-1.778v-.01c0-1.044-.59-1.791-1.56-1.791-.98 0-1.52.747-1.52 1.792v.01c0 1.044.54 1.777 1.52 1.777Zm5.77 1.118c-1.17 0-1.97-.567-2.07-1.436h.87c.14.44.56.728 1.23.728.71 0 1.21-.337 1.21-.816v-.01c0-.356-.27-.605-.92-.761l-.81-.195c-.99-.235-1.43-.665-1.43-1.421v-.005c0-.874.84-1.533 1.96-1.533 1.1 0 1.87.551 1.98 1.41h-.83c-.11-.414-.52-.702-1.16-.702-.62 0-1.08.322-1.08.786v.01c0 .356.26.58.88.732l.81.195c.99.24 1.47.67 1.47 1.421v.01c0 .937-.91 1.587-2.11 1.587ZM967 16h257v1H967zm46.37 15v-7.046h2.69c1.36 0 2.25.83 2.25 2.095v.01c0 .976-.53 1.738-1.42 2.016l1.63 2.925h-1.03l-1.51-2.788h-1.73V31h-.88Zm.88-3.57h1.73c.91 0 1.42-.483 1.42-1.342v-.01c0-.84-.55-1.343-1.46-1.343h-1.69v2.696Zm7.55 3.663c-1.51 0-2.41-1.055-2.41-2.705v-.005c0-1.626.92-2.74 2.36-2.74 1.43 0 2.29 1.065 2.29 2.637v.332h-3.78c.02 1.09.62 1.724 1.56 1.724.71 0 1.15-.337 1.29-.654l.02-.044h.85l-.01.039c-.18.713-.93 1.416-2.17 1.416Zm-.06-4.693c-.78 0-1.38.533-1.47 1.534h2.91c-.09-1.04-.66-1.534-1.44-1.534Zm3.67 4.6v-7.354h.85V31h-.85Zm4.63.093c-1.5 0-2.41-1.055-2.41-2.705v-.005c0-1.626.93-2.74 2.36-2.74 1.43 0 2.3 1.065 2.3 2.637v.332h-3.79c.02 1.09.62 1.724 1.56 1.724.71 0 1.15-.337 1.29-.654l.02-.044h.85l-.01.039c-.18.713-.93 1.416-2.17 1.416Zm-.06-4.693c-.78 0-1.37.533-1.47 1.534h2.91c-.09-1.04-.66-1.534-1.44-1.534ZM1035 31l-1.95-5.264h.9l1.44 4.336h.08l1.44-4.336h.89L1035.86 31h-.86Zm5.18.093c-1 0-1.76-.606-1.76-1.563v-.01c0-.937.69-1.479 1.92-1.552l1.51-.093v-.479c0-.649-.4-1-1.18-1-.63 0-1.05.234-1.19.644v.015h-.85v-.03c.14-.825.94-1.381 2.07-1.381 1.28 0 2 .659 2 1.753V31h-.85v-.776h-.08c-.33.561-.88.869-1.59.869Zm-.89-1.582c0 .532.45.845 1.06.845.87 0 1.5-.567 1.5-1.319v-.478l-1.41.087c-.8.05-1.15.332-1.15.855v.01Zm4.96 1.489v-5.264h.85v.791h.08c.26-.556.75-.883 1.53-.883 1.18 0 1.84.698 1.84 1.948V31h-.85v-3.203c0-.947-.39-1.402-1.23-1.402s-1.37.567-1.37 1.49V31h-.85Zm7.99.093c-1.47 0-2.41-1.07-2.41-2.74v-.01c0-1.635.93-2.7 2.41-2.7 1.28 0 2.04.738 2.2 1.675l.01.03h-.85v-.015c-.14-.518-.6-.938-1.36-.938-.95 0-1.54.762-1.54 1.949v.01c0 1.21.6 1.987 1.54 1.987.71 0 1.16-.313 1.35-.899l.01-.029.84-.005-.01.054c-.21.952-.92 1.63-2.19 1.63Zm5.59 0c-1.5 0-2.41-1.055-2.41-2.705v-.005c0-1.626.93-2.74 2.36-2.74 1.43 0 2.3 1.065 2.3 2.637v.332h-3.79c.03 1.09.63 1.724 1.56 1.724.72 0 1.16-.337 1.3-.654l.02-.044h.85l-.01.039c-.18.713-.94 1.416-2.18 1.416Zm-.05-4.693c-.79 0-1.38.533-1.47 1.534h2.91c-.09-1.04-.67-1.534-1.44-1.534Zm8.59 4.693c-1.49 0-2.42-1.035-2.42-2.72v-.01c0-1.69.93-2.72 2.42-2.72 1.5 0 2.43 1.03 2.43 2.72v.01c0 1.685-.93 2.72-2.43 2.72Zm0-.752c1 0 1.56-.728 1.56-1.968v-.01c0-1.245-.56-1.968-1.56-1.968-.99 0-1.55.723-1.55 1.968v.01c0 1.24.56 1.968 1.55 1.968Zm4.1.659v-4.56h-.87v-.704h.87v-.586c0-1.05.53-1.552 1.53-1.552.2 0 .39.014.57.049v.678c-.11-.02-.25-.024-.4-.024-.61 0-.85.298-.85.874v.561h1.2v.703h-1.2V31h-.85Zm7.89.093c-1.17 0-1.98-.567-2.07-1.436h.87c.14.44.56.728 1.23.728.71 0 1.21-.337 1.21-.816v-.01c0-.356-.27-.605-.92-.761l-.81-.195c-.99-.235-1.43-.665-1.43-1.421v-.005c0-.874.84-1.533 1.96-1.533 1.1 0 1.87.551 1.98 1.41h-.83c-.11-.414-.52-.702-1.16-.702-.62 0-1.08.322-1.08.786v.01c0 .356.26.58.88.732l.81.195c.99.24 1.47.67 1.47 1.421v.01c0 .937-.91 1.587-2.11 1.587Zm5.58 0c-1.51 0-2.41-1.055-2.41-2.705v-.005c0-1.626.92-2.74 2.35-2.74 1.43 0 2.3 1.065 2.3 2.637v.332h-3.79c.03 1.09.63 1.724 1.57 1.724.71 0 1.15-.337 1.29-.654l.02-.044h.85l-.01.039c-.18.713-.93 1.416-2.17 1.416Zm-.06-4.693c-.78 0-1.38.533-1.47 1.534h2.91c-.09-1.04-.66-1.534-1.44-1.534Zm3.67 4.6v-7.354h.85V31h-.85Zm4.63.093c-1.5 0-2.41-1.055-2.41-2.705v-.005c0-1.626.93-2.74 2.36-2.74 1.43 0 2.3 1.065 2.3 2.637v.332h-3.79c.02 1.09.62 1.724 1.56 1.724.71 0 1.15-.337 1.29-.654l.02-.044h.85l-.01.039c-.18.713-.93 1.416-2.17 1.416Zm-.06-4.693c-.78 0-1.38.533-1.47 1.534h2.91c-.09-1.04-.66-1.534-1.44-1.534Zm5.78 4.693c-1.48 0-2.42-1.07-2.42-2.74v-.01c0-1.635.94-2.7 2.41-2.7 1.28 0 2.05.738 2.2 1.675l.01.03h-.85v-.015c-.13-.518-.6-.938-1.36-.938-.94 0-1.54.762-1.54 1.949v.01c0 1.21.61 1.987 1.54 1.987.71 0 1.16-.313 1.36-.899v-.029l.84-.005-.01.054c-.21.952-.92 1.63-2.18 1.63Zm5.41-.054c-1.09 0-1.54-.4-1.54-1.406v-3.194h-.83v-.703h.83v-1.362h.88v1.362h1.15v.703h-1.15v2.979c0 .62.21.87.76.87.15 0 .23-.006.39-.02v.722c-.17.03-.33.05-.49.05Zm3.83.054c-1.5 0-2.41-1.055-2.41-2.705v-.005c0-1.626.93-2.74 2.36-2.74 1.43 0 2.3 1.065 2.3 2.637v.332h-3.79c.02 1.09.62 1.724 1.56 1.724.71 0 1.15-.337 1.29-.654l.02-.044h.85l-.01.039c-.18.713-.93 1.416-2.17 1.416Zm-.06-4.693c-.78 0-1.37.533-1.47 1.534h2.91c-.09-1.04-.66-1.534-1.44-1.534Zm5.57 4.693c-1.33 0-2.21-1.08-2.21-2.72v-.01c0-1.65.87-2.72 2.21-2.72.72 0 1.35.362 1.64.923h.08v-2.92h.85V31h-.85v-.84h-.08c-.32.586-.91.933-1.64.933Zm.19-.752c.96 0 1.55-.752 1.55-1.968v-.01c0-1.215-.59-1.968-1.55-1.968-.96 0-1.53.743-1.53 1.968v.01c0 1.226.57 1.968 1.53 1.968Zm8.69.698c-1.08 0-1.54-.4-1.54-1.406v-3.194h-.83v-.703h.83v-1.362h.88v1.362h1.15v.703h-1.15v2.979c0 .62.22.87.76.87.15 0 .24-.006.39-.02v.722c-.16.03-.32.05-.49.05Zm3.21.054c-1 0-1.76-.606-1.76-1.563v-.01c0-.937.69-1.479 1.92-1.552l1.51-.093v-.479c0-.649-.4-1-1.18-1-.63 0-1.05.234-1.19.644v.015h-.85l.01-.03c.13-.825.93-1.381 2.06-1.381 1.28 0 2 .659 2 1.753V31h-.85v-.776h-.08c-.33.561-.88.869-1.59.869Zm-.89-1.582c0 .532.45.845 1.06.845.87 0 1.5-.567 1.5-1.319v-.478l-1.41.087c-.8.05-1.15.332-1.15.855v.01Zm7.13 3.345c-1.27 0-2.08-.572-2.21-1.436l.01-.005h.88v.005c.09.4.56.683 1.32.683.94 0 1.5-.444 1.5-1.22v-1.065h-.08c-.33.581-.92.909-1.65.909-1.36 0-2.2-1.055-2.2-2.53v-.01c0-1.474.85-2.543 2.22-2.543.75 0 1.32.366 1.64.962h.06v-.87h.85v5.19c0 1.177-.91 1.93-2.34 1.93Zm-.04-2.881c.98 0 1.56-.733 1.56-1.778v-.01c0-1.044-.59-1.792-1.56-1.792-.98 0-1.52.748-1.52 1.793v.01c0 1.044.54 1.777 1.52 1.777Zm5.77 1.118c-1.17 0-1.98-.567-2.07-1.436h.86c.15.44.57.728 1.24.728.71 0 1.21-.337 1.21-.816v-.01c0-.356-.27-.605-.92-.761l-.81-.195c-.99-.235-1.43-.665-1.43-1.421v-.005c0-.874.84-1.533 1.96-1.533 1.1 0 1.87.551 1.98 1.41h-.83c-.11-.414-.52-.702-1.16-.702-.62 0-1.08.322-1.08.786v.01c0 .356.26.58.88.732l.81.195c.99.24 1.47.67 1.47 1.421v.01c0 .937-.91 1.587-2.11 1.587Zm8.02 1.665c-.95-1.265-1.39-2.74-1.39-4.556 0-1.811.43-3.29 1.39-4.556h.71c-.71.904-1.23 2.862-1.23 4.556 0 1.71.52 3.652 1.23 4.556h-.71Zm3.48-1.665c-1 0-1.75-.606-1.75-1.563v-.01c0-.937.69-1.479 1.92-1.552l1.5-.093v-.479c0-.649-.39-1-1.18-1-.63 0-1.04.234-1.18.644v.015h-.85v-.03c.14-.825.94-1.381 2.06-1.381 1.29 0 2 .659 2 1.753V31h-.85v-.776h-.07c-.34.561-.89.869-1.6.869Zm-.88-1.582c0 .532.45.845 1.06.845.86 0 1.49-.567 1.49-1.319v-.478l-1.4.087c-.8.05-1.15.332-1.15.855v.01Zm7.11 1.582c-1.47 0-2.42-1.07-2.42-2.74v-.01c0-1.635.94-2.7 2.42-2.7 1.27 0 2.04.738 2.2 1.675v.03h-.84l-.01-.015c-.13-.518-.6-.938-1.35-.938-.95 0-1.55.762-1.55 1.949v.01c0 1.21.61 1.987 1.55 1.987.7 0 1.15-.313 1.35-.899l.01-.029.84-.005-.01.054c-.22.952-.92 1.63-2.19 1.63Zm5.41-.054c-1.08 0-1.54-.4-1.54-1.406v-3.194h-.83v-.703h.83v-1.362h.88v1.362h1.15v.703h-1.15v2.979c0 .62.22.87.76.87.15 0 .24-.006.39-.02v.722c-.16.03-.32.05-.49.05Zm3.53.054c-1.2 0-1.82-.703-1.82-1.948v-3.409h.85v3.203c0 .948.35 1.402 1.19 1.402.92 0 1.42-.567 1.42-1.49v-3.115h.85V31h-.85v-.786h-.08c-.26.561-.79.879-1.56.879Zm5.52 0c-1 0-1.76-.606-1.76-1.563v-.01c0-.937.69-1.479 1.92-1.552l1.51-.093v-.479c0-.649-.4-1-1.18-1-.63 0-1.05.234-1.18.644l-.01.015h-.85l.01-.03c.13-.825.93-1.381 2.06-1.381 1.28 0 2 .659 2 1.753V31h-.85v-.776h-.08c-.33.561-.88.869-1.59.869Zm-.89-1.582c0 .532.45.845 1.06.845.87 0 1.5-.567 1.5-1.319v-.478l-1.41.087c-.8.05-1.15.332-1.15.855v.01Zm5.01 1.489v-7.354h.85V31h-.85Zm2.94 1.758h-.71c.7-.904 1.23-2.847 1.23-4.556 0-1.694-.53-3.652-1.23-4.556h.71c.96 1.265 1.39 2.745 1.39 4.556 0 1.817-.44 3.291-1.39 4.556ZM0 45h1224v2H0zm579.773 24.199c-1.853 0-3.023-.886-3.115-2.261l-.005-.086h1.563l.005.053c.059.58.688.972 1.595.972.865 0 1.461-.413 1.461-1.01v-.005c0-.51-.381-.795-1.342-.993l-.817-.167c-1.611-.328-2.304-1.08-2.304-2.256v-.005c0-1.44 1.235-2.39 2.954-2.39 1.81 0 2.874.956 2.976 2.25l.005.07h-1.525l-.011-.064c-.091-.554-.629-.94-1.445-.94-.8.005-1.332.37-1.332.95v.006c0 .505.376.805 1.289.993l.822.167c1.638.338 2.352.994 2.352 2.202v.005c0 1.537-1.192 2.509-3.126 2.509Zm7.106-.075c-1.799 0-2.889-1.177-2.889-3.073v-.005c0-1.88 1.101-3.089 2.825-3.089 1.724 0 2.798 1.182 2.798 2.97v.49h-4.071c.016.972.537 1.536 1.37 1.536.687 0 1.068-.366 1.176-.591l.016-.032h1.461l-.011.053c-.182.742-.945 1.74-2.675 1.74Zm-.037-4.99c-.682 0-1.187.462-1.284 1.3h2.551c-.096-.86-.585-1.3-1.267-1.3Zm6.66 4.99c-1.848 0-2.895-1.123-2.895-3.089v-.01c0-1.945 1.042-3.068 2.895-3.068 1.568 0 2.498.855 2.637 2.176v.016h-1.461l-.005-.01c-.102-.575-.494-.951-1.166-.951-.843 0-1.305.655-1.305 1.836v.011c0 1.198.467 1.859 1.305 1.859.645 0 1.026-.307 1.166-.897l.011-.022h1.45l-.006.032c-.161 1.29-1.085 2.117-2.626 2.117Zm3.862-.124v-5.914h1.568v.919h.097c.188-.64.725-1.015 1.493-1.015.209 0 .43.032.585.075v1.37a3.259 3.259 0 0 0-.719-.092c-.892 0-1.456.51-1.456 1.348V69h-1.568Zm7.251.124c-1.8 0-2.89-1.177-2.89-3.073v-.005c0-1.88 1.101-3.089 2.825-3.089 1.724 0 2.799 1.182 2.799 2.97v.49h-4.072c.016.972.537 1.536 1.37 1.536.687 0 1.069-.366 1.176-.591l.016-.032h1.461l-.01.053c-.183.742-.946 1.74-2.675 1.74Zm-.038-4.99c-.682 0-1.187.462-1.284 1.3h2.552c-.097-.86-.586-1.3-1.268-1.3Zm6.51 4.888c-1.44 0-2.02-.468-2.02-1.617v-3.137h-.913v-1.182h.913v-1.412h1.585v1.412h1.219v1.182h-1.219v2.777c0 .532.225.768.757.768.204 0 .312-.01.462-.027v1.166a4.41 4.41 0 0 1-.784.07Zm7.278.102c-1.606 0-2.519-.72-2.632-1.735l-.005-.022h1.541l.011.022c.123.365.483.628 1.101.628.601 0 1.01-.258 1.01-.65v-.01c0-.317-.237-.516-.838-.65l-.989-.21c-1.127-.242-1.686-.795-1.686-1.681v-.005c0-1.112.988-1.854 2.465-1.854 1.553 0 2.412.774 2.476 1.725v.021h-1.455l-.006-.027c-.086-.317-.435-.612-1.02-.612-.543 0-.929.252-.929.65v.005c0 .317.22.5.832.634l.983.21c1.182.252 1.735.746 1.735 1.622v.005c0 1.17-1.08 1.934-2.594 1.934Zm5.489-.033c-1.128 0-1.928-.698-1.928-1.772v-.01c0-1.064.822-1.687 2.293-1.773l1.429-.086v-.49c0-.51-.349-.8-.994-.8-.564 0-.924.2-1.047.549l-.011.021h-1.45l.005-.048c.124-1.037 1.101-1.724 2.589-1.724 1.569 0 2.455.74 2.455 2.003V69h-1.547v-.784h-.097c-.301.548-.924.875-1.697.875Zm-.397-1.869c0 .451.381.725.923.725.725 0 1.268-.478 1.268-1.1v-.436l-1.192.075c-.672.043-.999.296-.999.725v.011Zm7.229 1.902c-1.327 0-2.009-.806-2.009-2.213v-3.825h1.569v3.465c0 .838.316 1.273 1.058 1.273.773 0 1.192-.521 1.192-1.322v-3.416h1.568V69h-1.568v-.913h-.097c-.268.644-.87 1.037-1.713 1.037Zm7.557 0c-1.847 0-2.895-1.123-2.895-3.089v-.01c0-1.945 1.042-3.068 2.895-3.068 1.569 0 2.498.855 2.637 2.176v.016h-1.461l-.005-.01c-.102-.575-.494-.951-1.165-.951-.844 0-1.306.655-1.306 1.836v.011c0 1.198.468 1.859 1.306 1.859.644 0 1.025-.307 1.165-.897l.011-.022h1.45l-.005.032c-.162 1.29-1.085 2.117-2.627 2.117Zm6.462 0c-1.8 0-2.89-1.177-2.89-3.073v-.005c0-1.88 1.101-3.089 2.825-3.089 1.724 0 2.798 1.182 2.798 2.97v.49h-4.071c.016.972.537 1.536 1.37 1.536.687 0 1.069-.366 1.176-.591l.016-.032h1.461l-.011.053c-.182.742-.945 1.74-2.674 1.74Zm-.038-4.99c-.682 0-1.187.462-1.284 1.3h2.552c-.097-.86-.586-1.3-1.268-1.3Z" fill="#202020"/></svg>