<svg width="160" height="160" fill="none" xmlns="http://www.w3.org/2000/svg"><rect width="160" height="160" rx="28" fill="#fff"/><g clip-path="url(#a)"><path d="M138 20H22v120h116V20Z" fill="#fff"/><path d="M56.486 26.486h-3.135v3.244h3.136v-3.244Zm9.406 0h-3.135v3.244h3.135v-3.244Zm3.135 0h-3.135v3.244h3.135v-3.244Zm3.135 0h-3.135v3.244h3.135v-3.244Zm6.271 0h-3.136v3.244h3.136v-3.244Zm9.405 0h-3.135v3.244h3.135v-3.244Zm15.676 0h-3.136v3.244h3.136v-3.244ZM59.622 29.73h-3.135v3.243h3.135V29.73Zm3.135 0h-3.135v3.243h3.135V29.73Zm3.135 0h-3.135v3.243h3.135V29.73Zm3.135 0h-3.135v3.243h3.135V29.73Zm3.135 0h-3.135v3.243h3.135V29.73Z" fill="#000"/><path d="M75.297 29.73h-3.135v3.243h3.135V29.73Zm12.541 0h-3.135v3.243h3.135V29.73Zm3.135 0h-3.135v3.243h3.135V29.73Zm-28.216 3.243h-3.135v3.243h3.135v-3.243Zm6.27 0h-3.135v3.243h3.135v-3.243Zm6.27 0h-3.135v3.243h3.135v-3.243Zm3.136 0h-3.136v3.243h3.136v-3.243Z" fill="#000"/><path d="M81.567 32.973h-3.135v3.243h3.135v-3.243Zm3.136 0h-3.135v3.243h3.135v-3.243Zm3.135 0h-3.135v3.243h3.135v-3.243Zm3.135 0h-3.135v3.243h3.135v-3.243Zm6.27 0h-3.135v3.243h3.135v-3.243Zm6.271 0h-3.136v3.243h3.136v-3.243Zm-47.028 3.243h-3.135v3.243h3.136v-3.243Zm3.136 0h-3.135v3.243h3.135v-3.243Zm6.27 0h-3.135v3.243h3.135v-3.243Zm3.135 0h-3.135v3.243h3.135v-3.243Zm12.54 0h-3.135v3.243h3.135v-3.243Zm3.136 0h-3.135v3.243h3.135v-3.243Zm12.54 0h-3.135v3.243h3.135v-3.243Zm3.135 0h-3.135v3.243h3.135v-3.243ZM56.486 39.46h-3.135v3.243h3.136v-3.244Zm3.136 0h-3.135v3.243h3.135v-3.244Zm21.945 0h-3.135v3.243h3.135v-3.244Zm3.136 0h-3.135v3.243h3.135v-3.244Zm6.27 0h-3.135v3.243h3.135v-3.244Zm6.27 0h-3.135v3.243h3.135v-3.244Zm3.135 0h-3.135v3.243h3.135v-3.244Zm-43.892 3.243h-3.135v3.243h3.136v-3.243Zm3.136 0h-3.135v3.243h3.135v-3.243Zm3.135 0h-3.135v3.243h3.135v-3.243Zm6.27 0h-3.135v3.243h3.135v-3.243Zm9.406 0h-3.136v3.243h3.136v-3.243Zm6.27 0h-3.135v3.243h3.135v-3.243Zm9.405 0h-3.135v3.243h3.135v-3.243Z" fill="#000"/><path d="M97.243 42.703h-3.135v3.243h3.135v-3.243Zm3.135 0h-3.135v3.243h3.135v-3.243Zm3.136 0h-3.136v3.243h3.136v-3.243Z" fill="#000"/><path d="M106.649 42.703h-3.136v3.243h3.136v-3.243Zm-50.163 3.243h-3.135v3.243h3.136v-3.243Zm6.271 0h-3.135v3.243h3.135v-3.243Zm6.27 0h-3.135v3.243h3.135v-3.243Zm6.27 0h-3.135v3.243h3.135v-3.243Zm6.27 0h-3.135v3.243h3.135v-3.243Zm6.271 0h-3.135v3.243h3.135v-3.243Zm6.27 0h-3.135v3.243h3.135v-3.243Zm6.27 0h-3.135v3.243h3.135v-3.243Z" fill="#000"/><path d="M106.649 45.946h-3.136v3.243h3.136v-3.243ZM56.486 49.19h-3.135v3.242h3.136V49.19Zm9.406 0h-3.135v3.242h3.135V49.19Zm9.405 0h-3.135v3.242h3.135V49.19Zm9.406 0h-3.135v3.242h3.135V49.19Z" fill="#000"/><path d="M87.838 49.19h-3.135v3.242h3.135V49.19Zm3.135 0h-3.135v3.242h3.135V49.19Zm3.135 0h-3.135v3.242h3.135V49.19Z" fill="#000"/><path d="M97.243 49.19h-3.135v3.242h3.135V49.19Zm9.406 0h-3.136v3.242h3.136V49.19Zm-75.244 3.242H28.27v3.244h3.135v-3.244Zm12.541 0H40.81v3.244h3.135v-3.244Zm6.27 0h-3.135v3.244h3.135v-3.244Zm3.135 0h-3.135v3.244h3.135v-3.244Zm3.135 0h-3.135v3.244h3.136v-3.244Zm6.271 0h-3.135v3.244h3.135v-3.244Zm6.27 0h-3.135v3.244h3.135v-3.244Zm9.406 0h-3.136v3.244h3.136v-3.244Zm6.27 0h-3.135v3.244h3.135v-3.244Zm9.405 0h-3.135v3.244h3.135v-3.244Zm3.135 0h-3.135v3.244h3.135v-3.244Zm3.135 0h-3.135v3.244h3.135v-3.244Zm3.136 0h-3.136v3.244h3.136v-3.244Zm6.27 0h-3.135v3.244h3.135v-3.244Zm3.135 0h-3.135v3.244h3.135v-3.244Zm3.135 0h-3.135v3.244h3.135v-3.244Z" fill="#000"/><path d="M119.189 52.432h-3.135v3.244h3.135v-3.244Zm3.135 0h-3.135v3.244h3.135v-3.244Zm9.406 0h-3.136v3.244h3.136v-3.244Zm-97.19 3.244h-3.134v3.243h3.135v-3.243Zm12.541 0h-3.135v3.243h3.135v-3.243Zm6.27 0h-3.135v3.243h3.135v-3.243Zm9.406 0h-3.135v3.243h3.135v-3.243Zm3.135 0h-3.135v3.243h3.135v-3.243Zm12.541 0h-3.136v3.243h3.136v-3.243Z" fill="#000"/><path d="M81.567 55.676h-3.135v3.243h3.135v-3.243Zm3.136 0h-3.135v3.243h3.135v-3.243Zm3.135 0h-3.135v3.243h3.135v-3.243Zm9.405 0h-3.135v3.243h3.135v-3.243Zm3.135 0h-3.135v3.243h3.135v-3.243Zm3.136 0h-3.136v3.243h3.136v-3.243Zm6.27 0h-3.135v3.243h3.135v-3.243Zm12.54 0h-3.135v3.243h3.135v-3.243Zm3.135 0h-3.135v3.243h3.135v-3.243Zm6.271 0h-3.136v3.243h3.136v-3.243ZM31.405 58.919H28.27v3.243h3.135V58.92Zm6.271 0H34.54v3.243h3.136V58.92Zm6.27 0H40.81v3.243h3.135V58.92Zm3.135 0h-3.135v3.243h3.135V58.92Zm3.135 0h-3.135v3.243h3.135V58.92Zm3.135 0h-3.135v3.243h3.135V58.92Zm3.135 0h-3.135v3.243h3.136V58.92Zm15.676 0h-3.135v3.243h3.135V58.92Z" fill="#000"/><path d="M75.297 58.919h-3.135v3.243h3.135V58.92Zm3.136 0h-3.136v3.243h3.136V58.92Zm9.405 0h-3.135v3.243h3.135V58.92Zm15.676 0h-3.136v3.243h3.136V58.92Zm6.27 0h-3.135v3.243h3.135V58.92Zm12.54 0h-3.135v3.243h3.135V58.92Zm6.271 0h-3.136v3.243h3.136V58.92Zm-90.919 3.243H34.54v3.243h3.136v-3.243Zm6.27 0H40.81v3.243h3.135v-3.243Zm9.405 0h-3.135v3.243h3.135v-3.243Zm9.406 0h-3.135v3.243h3.135v-3.243Zm6.27 0h-3.135v3.243h3.135v-3.243Zm3.135 0h-3.135v3.243h3.135v-3.243Zm9.405 0h-3.135v3.243h3.135v-3.243Zm9.406 0h-3.135v3.243h3.135v-3.243Zm3.135 0h-3.135v3.243h3.135v-3.243Zm6.27 0h-3.135v3.243h3.135v-3.243Zm6.271 0h-3.136v3.243h3.136v-3.243Zm3.135 0h-3.135v3.243h3.135v-3.243Zm3.135 0h-3.135v3.243h3.135v-3.243Zm-81.514 3.243H28.27v3.244h3.135v-3.244Zm6.271 0H34.54v3.244h3.136v-3.244Zm3.134 0h-3.134v3.244h3.135v-3.244Zm9.406 0h-3.135v3.244h3.135v-3.244Zm6.27 0h-3.135v3.244h3.136v-3.244Zm6.271 0h-3.135v3.244h3.135v-3.244Zm6.27 0h-3.135v3.244h3.135v-3.244Zm3.135 0h-3.135v3.244h3.135v-3.244Zm9.405 0h-3.135v3.244h3.135v-3.244Zm18.811 0h-3.135v3.244h3.135v-3.244Zm3.136 0h-3.136v3.244h3.136v-3.244Z" fill="#000"/><path d="M106.649 65.405h-3.136v3.244h3.136v-3.244Zm6.27 0h-3.135v3.244h3.135v-3.244Zm3.135 0h-3.135v3.244h3.135v-3.244Zm6.27 0h-3.135v3.244h3.135v-3.244Zm9.406 0h-3.136v3.244h3.136v-3.244ZM31.405 68.649H28.27v3.243h3.135v-3.243Zm6.271 0H34.54v3.243h3.136v-3.243Zm3.134 0h-3.134v3.243h3.135v-3.243Z" fill="#000"/><path d="M43.946 68.649H40.81v3.243h3.135v-3.243Zm3.135 0h-3.135v3.243h3.135v-3.243Zm6.27 0h-3.135v3.243h3.135v-3.243Zm9.406 0h-3.135v3.243h3.135v-3.243Zm3.135 0h-3.135v3.243h3.135v-3.243Zm9.405 0h-3.135v3.243h3.135v-3.243Zm9.406 0h-3.135v3.243h3.135v-3.243Z" fill="#000"/><path d="M87.838 68.649h-3.135v3.243h3.135v-3.243Zm3.135 0h-3.135v3.243h3.135v-3.243Zm3.135 0h-3.135v3.243h3.135v-3.243Zm12.541 0h-3.136v3.243h3.136v-3.243Zm3.135 0h-3.135v3.243h3.135v-3.243Zm6.27 0h-3.135v3.243h3.135v-3.243Zm9.405 0h-3.135v3.243h3.135v-3.243Zm-87.783 3.243H34.54v3.243h3.136v-3.243Zm6.27 0H40.81v3.243h3.135v-3.243Zm3.135 0h-3.135v3.243h3.135v-3.243Zm3.135 0h-3.135v3.243h3.135v-3.243Zm12.541 0h-3.135v3.243h3.135v-3.243Zm3.135 0h-3.135v3.243h3.135v-3.243Zm3.135 0h-3.135v3.243h3.135v-3.243Zm6.27 0h-3.135v3.243h3.135v-3.243Zm3.136 0h-3.136v3.243h3.136v-3.243Zm6.27 0h-3.135v3.243h3.135v-3.243Zm3.135 0h-3.135v3.243h3.135v-3.243Zm6.27 0h-3.135v3.243h3.135v-3.243Zm3.135 0h-3.135v3.243h3.135v-3.243Zm6.271 0h-3.136v3.243h3.136v-3.243Z" fill="#000"/><path d="M106.649 71.892h-3.136v3.243h3.136v-3.243Zm3.135 0h-3.135v3.243h3.135v-3.243Z" fill="#000"/><path d="M112.919 71.892h-3.135v3.243h3.135v-3.243Zm6.27 0h-3.135v3.243h3.135v-3.243Zm9.406 0h-3.136v3.243h3.136v-3.243Zm-97.19 3.243H28.27v3.243h3.135v-3.243Zm3.135 0h-3.134v3.243h3.135v-3.243Z" fill="#000"/><path d="M37.676 75.135H34.54v3.243h3.136v-3.243Zm3.134 0h-3.134v3.243h3.135v-3.243Z" fill="#000"/><path d="M43.946 75.135H40.81v3.243h3.135v-3.243Zm9.405 0h-3.135v3.243h3.135v-3.243Zm9.406 0h-3.135v3.243h3.135v-3.243Zm3.135 0h-3.135v3.243h3.135v-3.243Zm6.27 0h-3.135v3.243h3.135v-3.243Zm3.135 0h-3.135v3.243h3.135v-3.243Zm3.136 0h-3.136v3.243h3.136v-3.243Z" fill="#000"/><path d="M81.567 75.135h-3.135v3.243h3.135v-3.243Zm3.136 0h-3.135v3.243h3.135v-3.243Zm3.135 0h-3.135v3.243h3.135v-3.243Zm9.405 0h-3.135v3.243h3.135v-3.243Zm6.271 0h-3.136v3.243h3.136v-3.243Zm6.27 0h-3.135v3.243h3.135v-3.243Zm3.135 0h-3.135v3.243h3.135v-3.243Zm3.135 0h-3.135v3.243h3.135v-3.243Zm-84.649 3.243H28.27v3.243h3.135v-3.243Zm3.135 0h-3.134v3.243h3.135v-3.243Zm6.27 0h-3.134v3.243h3.135v-3.243Z" fill="#000"/><path d="M43.946 78.378H40.81v3.243h3.135v-3.243Zm3.135 0h-3.135v3.243h3.135v-3.243Zm3.135 0h-3.135v3.243h3.135v-3.243Zm6.27 0h-3.135v3.243h3.136v-3.243Zm3.136 0h-3.135v3.243h3.135v-3.243Zm9.405 0h-3.135v3.243h3.135v-3.243Zm15.676 0h-3.135v3.243h3.135v-3.243Zm3.135 0h-3.135v3.243h3.135v-3.243Zm3.135 0h-3.135v3.243h3.135v-3.243Zm3.135 0h-3.135v3.243h3.135v-3.243Z" fill="#000"/><path d="M97.243 78.378h-3.135v3.243h3.135v-3.243Zm3.135 0h-3.135v3.243h3.135v-3.243Zm6.271 0h-3.136v3.243h3.136v-3.243Zm6.27 0h-3.135v3.243h3.135v-3.243Zm6.27 0h-3.135v3.243h3.135v-3.243Zm3.135 0h-3.135v3.243h3.135v-3.243Zm6.271 0h-3.136v3.243h3.136v-3.243Zm-97.19 3.244H28.27v3.243h3.135v-3.243Zm3.135 0h-3.134v3.243h3.135v-3.243Zm9.406 0H40.81v3.243h3.135v-3.243Zm3.135 0h-3.135v3.243h3.135v-3.243Zm6.27 0h-3.135v3.243h3.135v-3.243Zm3.135 0h-3.135v3.243h3.136v-3.243Zm3.136 0h-3.135v3.243h3.135v-3.243Zm3.135 0h-3.135v3.243h3.135v-3.243Zm15.676 0h-3.136v3.243h3.136v-3.243Z" fill="#000"/><path d="M81.567 81.622h-3.135v3.243h3.135v-3.243Zm6.271 0h-3.135v3.243h3.135v-3.243Zm6.27 0h-3.135v3.243h3.135v-3.243Zm6.27 0h-3.135v3.243h3.135v-3.243Zm3.136 0h-3.136v3.243h3.136v-3.243Z" fill="#000"/><path d="M106.649 81.622h-3.136v3.243h3.136v-3.243Zm15.675 0h-3.135v3.243h3.135v-3.243Zm3.135 0h-3.135v3.243h3.135v-3.243Zm3.136 0h-3.136v3.243h3.136v-3.243Zm-97.19 3.243H28.27v3.243h3.135v-3.243Zm6.271 0H34.54v3.243h3.136v-3.243Zm3.134 0h-3.134v3.243h3.135v-3.243Z" fill="#000"/><path d="M43.946 84.865H40.81v3.243h3.135v-3.243Zm6.27 0h-3.135v3.243h3.135v-3.243Zm3.135 0h-3.135v3.243h3.135v-3.243Zm9.406 0h-3.135v3.243h3.135v-3.243Zm6.27 0h-3.135v3.243h3.135v-3.243Zm3.135 0h-3.135v3.243h3.135v-3.243Zm6.271 0h-3.136v3.243h3.136v-3.243Z" fill="#000"/><path d="M81.567 84.865h-3.135v3.243h3.135v-3.243Zm3.136 0h-3.135v3.243h3.135v-3.243Zm9.405 0h-3.135v3.243h3.135v-3.243Zm3.135 0h-3.135v3.243h3.135v-3.243Zm3.135 0h-3.135v3.243h3.135v-3.243Zm3.136 0h-3.136v3.243h3.136v-3.243Z" fill="#000"/><path d="M106.649 84.865h-3.136v3.243h3.136v-3.243Zm3.135 0h-3.135v3.243h3.135v-3.243Zm6.27 0h-3.135v3.243h3.135v-3.243Zm6.27 0h-3.135v3.243h3.135v-3.243Zm6.271 0h-3.136v3.243h3.136v-3.243ZM34.54 88.108h-3.134v3.243h3.135v-3.243Z" fill="#000"/><path d="M37.676 88.108H34.54v3.243h3.136v-3.243Zm6.27 0H40.81v3.243h3.135v-3.243Zm9.405 0h-3.135v3.243h3.135v-3.243Zm9.406 0h-3.135v3.243h3.135v-3.243Zm6.27 0h-3.135v3.243h3.135v-3.243Zm3.135 0h-3.135v3.243h3.135v-3.243Zm6.271 0h-3.136v3.243h3.136v-3.243Zm6.27 0h-3.135v3.243h3.135v-3.243Z" fill="#000"/><path d="M87.838 88.108h-3.135v3.243h3.135v-3.243Zm6.27 0h-3.135v3.243h3.135v-3.243Zm3.135 0h-3.135v3.243h3.135v-3.243Zm9.406 0h-3.136v3.243h3.136v-3.243Zm3.135 0h-3.135v3.243h3.135v-3.243Z" fill="#000"/><path d="M112.919 88.108h-3.135v3.243h3.135v-3.243Zm3.135 0h-3.135v3.243h3.135v-3.243Zm12.541 0h-3.136v3.243h3.136v-3.243Zm-97.19 3.243H28.27v3.244h3.135V91.35Zm6.271 0H34.54v3.244h3.136V91.35Zm9.405 0h-3.135v3.244h3.135V91.35Zm3.135 0h-3.135v3.244h3.135V91.35Zm3.135 0h-3.135v3.244h3.135V91.35Zm6.271 0h-3.135v3.244h3.135V91.35Zm6.27 0h-3.135v3.244h3.135V91.35Zm6.27 0h-3.135v3.244h3.135V91.35Z" fill="#000"/><path d="M75.297 91.351h-3.135v3.244h3.135V91.35Zm12.541 0h-3.135v3.244h3.135V91.35Zm3.135 0h-3.135v3.244h3.135V91.35Zm3.135 0h-3.135v3.244h3.135V91.35Zm18.811 0h-3.135v3.244h3.135V91.35Zm3.135 0h-3.135v3.244h3.135V91.35Z" fill="#000"/><path d="M119.189 91.351h-3.135v3.244h3.135V91.35Zm3.135 0h-3.135v3.244h3.135V91.35Zm-90.919 3.244H28.27v3.243h3.135v-3.243Zm9.405 0h-3.134v3.243h3.135v-3.243Zm6.271 0h-3.135v3.243h3.135v-3.243Zm21.946 0h-3.135v3.243h3.135v-3.243Zm12.54 0h-3.135v3.243h3.135v-3.243Zm3.136 0h-3.135v3.243h3.135v-3.243Zm6.27 0h-3.135v3.243h3.135v-3.243Zm9.405 0h-3.135v3.243h3.135v-3.243Zm12.541 0h-3.135v3.243h3.135v-3.243Zm9.405 0h-3.135v3.243h3.135v-3.243Zm3.135 0h-3.135v3.243h3.135v-3.243Zm3.136 0h-3.136v3.243h3.136v-3.243Zm-84.649 3.243H40.81v3.243h3.135v-3.243Zm3.135 0h-3.135v3.243h3.135v-3.243Zm3.135 0h-3.135v3.243h3.135v-3.243Zm3.135 0h-3.135v3.243h3.135v-3.243Zm12.541 0h-3.135v3.243h3.135v-3.243Zm3.135 0h-3.135v3.243h3.135v-3.243Zm6.27 0h-3.135v3.243h3.135v-3.243Zm6.27 0h-3.135v3.243h3.135v-3.243Zm6.271 0h-3.135v3.243h3.135v-3.243Zm3.135 0h-3.135v3.243h3.135v-3.243Zm6.27 0h-3.135v3.243h3.135v-3.243Zm6.271 0h-3.136v3.243h3.136v-3.243Z" fill="#000"/><path d="M106.649 97.838h-3.136v3.243h3.136v-3.243Zm3.135 0h-3.135v3.243h3.135v-3.243Zm15.675 0h-3.135v3.243h3.135v-3.243Zm3.136 0h-3.136v3.243h3.136v-3.243Zm-87.785 3.243h-3.134v3.243h3.135v-3.243Z" fill="#000"/><path d="M43.946 101.081H40.81v3.243h3.135v-3.243Zm3.135 0h-3.135v3.243h3.135v-3.243Zm6.27 0h-3.135v3.243h3.135v-3.243Zm3.135 0h-3.135v3.243h3.136v-3.243Zm6.271 0h-3.135v3.243h3.135v-3.243Zm9.405 0h-3.135v3.243h3.135v-3.243Zm12.541 0h-3.135v3.243h3.135v-3.243Zm3.135 0h-3.135v3.243h3.135v-3.243Zm3.135 0h-3.135v3.243h3.135v-3.243Zm3.135 0h-3.135v3.243h3.135v-3.243Z" fill="#000"/><path d="M97.243 101.081h-3.135v3.243h3.135v-3.243Zm3.135 0h-3.135v3.243h3.135v-3.243Zm9.406 0h-3.135v3.243h3.135v-3.243Z" fill="#000"/><path d="M112.919 101.081h-3.135v3.243h3.135v-3.243Zm6.27 0h-3.135v3.243h3.135v-3.243Zm3.135 0h-3.135v3.243h3.135v-3.243Zm6.271 0h-3.136v3.243h3.136v-3.243Z" fill="#000"/><path d="M131.73 101.081h-3.136v3.243h3.136v-3.243Zm-100.325 3.243H28.27v3.244h3.135v-3.244Zm3.135 0h-3.134v3.244h3.135v-3.244Z" fill="#000"/><path d="M37.676 104.324H34.54v3.244h3.136v-3.244Zm6.27 0H40.81v3.244h3.135v-3.244Zm6.27 0h-3.135v3.244h3.135v-3.244Zm3.135 0h-3.135v3.244h3.135v-3.244Zm9.406 0h-3.135v3.244h3.135v-3.244Zm3.135 0h-3.135v3.244h3.135v-3.244Zm6.27 0h-3.135v3.244h3.135v-3.244Zm3.135 0h-3.135v3.244h3.135v-3.244Zm3.136 0h-3.136v3.244h3.136v-3.244Z" fill="#000"/><path d="M81.567 104.324h-3.135v3.244h3.135v-3.244Zm3.136 0h-3.135v3.244h3.135v-3.244Zm9.405 0h-3.135v3.244h3.135v-3.244Zm3.135 0h-3.135v3.244h3.135v-3.244Zm3.135 0h-3.135v3.244h3.135v-3.244Zm6.271 0h-3.136v3.244h3.136v-3.244Zm3.135 0h-3.135v3.244h3.135v-3.244Z" fill="#000"/><path d="M112.919 104.324h-3.135v3.244h3.135v-3.244Zm3.135 0h-3.135v3.244h3.135v-3.244Z" fill="#000"/><path d="M119.189 104.324h-3.135v3.244h3.135v-3.244Zm3.135 0h-3.135v3.244h3.135v-3.244Zm6.271 0h-3.136v3.244h3.136v-3.244Zm-72.109 3.244h-3.135v3.243h3.136v-3.243Zm6.271 0h-3.135v3.243h3.135v-3.243Zm3.135 0h-3.135v3.243h3.135v-3.243Zm6.27 0h-3.135v3.243h3.135v-3.243Z" fill="#000"/><path d="M75.297 107.568h-3.135v3.243h3.135v-3.243Zm3.136 0h-3.136v3.243h3.136v-3.243Z" fill="#000"/><path d="M81.567 107.568h-3.135v3.243h3.135v-3.243Zm3.136 0h-3.135v3.243h3.135v-3.243Zm12.54 0h-3.135v3.243h3.135v-3.243Zm3.135 0h-3.135v3.243h3.135v-3.243Zm3.136 0h-3.136v3.243h3.136v-3.243Z" fill="#000"/><path d="M106.649 107.568h-3.136v3.243h3.136v-3.243Zm12.54 0h-3.135v3.243h3.135v-3.243Zm6.27 0h-3.135v3.243h3.135v-3.243Zm-68.973 3.243h-3.135v3.243h3.136v-3.243Zm3.136 0h-3.135v3.243h3.135v-3.243Zm3.135 0h-3.135v3.243h3.135v-3.243Zm12.54 0h-3.135v3.243h3.135v-3.243Zm3.136 0h-3.136v3.243h3.136v-3.243Zm9.405 0h-3.135v3.243h3.135v-3.243Zm18.811 0h-3.136v3.243h3.136v-3.243Zm6.27 0h-3.135v3.243h3.135v-3.243Zm6.27 0h-3.135v3.243h3.135v-3.243Zm3.135 0h-3.135v3.243h3.135v-3.243Zm-56.432 3.243h-3.135v3.243h3.135v-3.243Zm9.405 0h-3.135v3.243h3.135v-3.243Zm3.136 0h-3.136v3.243h3.136v-3.243Z" fill="#000"/><path d="M81.567 114.054h-3.135v3.243h3.135v-3.243Zm9.406 0h-3.135v3.243h3.135v-3.243Zm9.405 0h-3.135v3.243h3.135v-3.243Zm6.271 0h-3.136v3.243h3.136v-3.243Zm12.54 0h-3.135v3.243h3.135v-3.243Zm12.541 0h-3.136v3.243h3.136v-3.243Zm-75.244 3.243h-3.135v3.243h3.136v-3.243Zm9.406 0h-3.135v3.243h3.135v-3.243Zm3.135 0h-3.135v3.243h3.135v-3.243Zm3.135 0h-3.135v3.243h3.135v-3.243Z" fill="#000"/><path d="M75.297 117.297h-3.135v3.243h3.135v-3.243Zm6.27 0h-3.135v3.243h3.135v-3.243Zm9.406 0h-3.135v3.243h3.135v-3.243Zm9.405 0h-3.135v3.243h3.135v-3.243Zm6.271 0h-3.136v3.243h3.136v-3.243Zm3.135 0h-3.135v3.243h3.135v-3.243Z" fill="#000"/><path d="M112.919 117.297h-3.135v3.243h3.135v-3.243Zm3.135 0h-3.135v3.243h3.135v-3.243Z" fill="#000"/><path d="M119.189 117.297h-3.135v3.243h3.135v-3.243Zm3.135 0h-3.135v3.243h3.135v-3.243Zm9.406 0h-3.136v3.243h3.136v-3.243Zm-72.108 3.244h-3.135v3.243h3.135v-3.243Zm3.135 0h-3.135v3.243h3.135v-3.243Zm6.27 0h-3.135v3.243h3.135v-3.243Zm3.135 0h-3.135v3.243h3.135v-3.243Zm15.676 0h-3.135v3.243h3.135v-3.243Zm3.135 0h-3.135v3.243h3.135v-3.243Zm3.135 0h-3.135v3.243h3.135v-3.243Zm9.406 0h-3.136v3.243h3.136v-3.243Zm9.405 0h-3.135v3.243h3.135v-3.243Zm3.135 0h-3.135v3.243h3.135v-3.243Z" fill="#000"/><path d="M119.189 120.541h-3.135v3.243h3.135v-3.243Zm3.135 0h-3.135v3.243h3.135v-3.243Zm3.135 0h-3.135v3.243h3.135v-3.243Zm3.136 0h-3.136v3.243h3.136v-3.243Zm-68.973 3.243h-3.135v3.243h3.135v-3.243Zm9.405 0h-3.135v3.243h3.135v-3.243Zm6.27 0h-3.135v3.243h3.135v-3.243Zm3.136 0h-3.136v3.243h3.136v-3.243Zm9.405 0h-3.135v3.243h3.135v-3.243Zm6.27 0h-3.135v3.243h3.135v-3.243Zm3.135 0h-3.135v3.243h3.135v-3.243Zm12.541 0h-3.135v3.243h3.135v-3.243Zm3.135 0h-3.135v3.243h3.135v-3.243Zm3.135 0h-3.135v3.243h3.135v-3.243Z" fill="#000"/><path d="M119.189 123.784h-3.135v3.243h3.135v-3.243Zm3.135 0h-3.135v3.243h3.135v-3.243Zm-56.432 3.243h-3.135v3.243h3.135v-3.243Zm3.135 0h-3.135v3.243h3.135v-3.243Zm3.135 0h-3.135v3.243h3.135v-3.243Zm6.271 0h-3.136v3.243h3.136v-3.243Z" fill="#000"/><path d="M81.567 127.027h-3.135v3.243h3.135v-3.243Zm3.136 0h-3.135v3.243h3.135v-3.243Zm3.135 0h-3.135v3.243h3.135v-3.243Zm9.405 0h-3.135v3.243h3.135v-3.243Zm6.271 0h-3.136v3.243h3.136v-3.243Z" fill="#000"/><path d="M106.649 127.027h-3.136v3.243h3.136v-3.243Zm6.27 0h-3.135v3.243h3.135v-3.243Zm-56.433 3.243h-3.135v3.244h3.136v-3.244Zm6.271 0h-3.135v3.244h3.135v-3.244Zm21.946 0h-3.135v3.244h3.135v-3.244Zm6.27 0h-3.135v3.244h3.135v-3.244Zm3.135 0h-3.135v3.244h3.135v-3.244Z" fill="#000"/><path d="M97.243 130.27h-3.135v3.244h3.135v-3.244Zm3.135 0h-3.135v3.244h3.135v-3.244Zm3.136 0h-3.136v3.244h3.136v-3.244Z" fill="#000"/><path d="M106.649 130.27h-3.136v3.244h3.136v-3.244Zm3.135 0h-3.135v3.244h3.135v-3.244Z" fill="#000"/><path d="M112.919 130.27h-3.135v3.244h3.135v-3.244Zm9.405 0h-3.135v3.244h3.135v-3.244Zm9.406 0h-3.136v3.244h3.136v-3.244ZM46.924 26.486H28.27V49.19h21.946V26.487h-3.292Zm0 19.298H31.562V29.892h15.362v15.892Zm81.514-19.298h-18.654V49.19h21.946V26.487h-3.292Zm0 19.298h-15.362V29.892h15.362v15.892Zm-81.514 65.027H28.27v22.702h21.946v-22.702h-3.292Zm0 19.297H31.562v-15.892h15.362v15.892Z" fill="#000"/><path d="M43.946 32.973H34.54v9.73h9.405v-9.73Zm81.513 0h-9.405v9.73h9.405v-9.73Zm-81.513 84.324H34.54v9.73h9.405v-9.73Z" fill="#000"/></g><defs><clipPath id="a"><path fill="#fff" transform="translate(22 20)" d="M0 0h116v120H0z"/></clipPath></defs></svg>