<svg width="38" height="34" fill="none" xmlns="http://www.w3.org/2000/svg"><path d="M34.985 3.387C33.018 1.253 30.32.078 27.385.078c-2.194 0-4.203.694-5.971 2.061A12.21 12.21 0 0 0 19 4.659a12.21 12.21 0 0 0-2.414-2.52C14.818.772 12.809.08 10.616.08 7.68.078 4.98 1.252 3.013 3.386 1.071 5.495 0 8.376 0 11.498c0 3.214 1.198 6.156 3.769 9.258 2.3 2.776 5.606 5.593 9.434 8.856a430.66 430.66 0 0 1 4.328 3.722 2.228 2.228 0 0 0 2.937 0 441.881 441.881 0 0 1 4.33-3.723c3.827-3.262 7.133-6.08 9.433-8.855C36.803 17.654 38 14.712 38 11.498c0-3.122-1.07-6.003-3.015-8.111Z" fill="#fff"/></svg>