<svg width="38" height="38" fill="none" xmlns="http://www.w3.org/2000/svg"><g clip-path="url(#a)" fill="#fff"><path d="M19 12.885A6.12 6.12 0 0 0 12.884 19 6.12 6.12 0 0 0 19 25.115 6.12 6.12 0 0 0 25.115 19 6.12 6.12 0 0 0 19 12.885Zm-.464 4.301c-.76 0-1.392.633-1.392 1.392H15.12c.042-1.898 1.56-3.416 3.416-3.416v2.024Z"/><path d="M37.557 17.735C35.491 15.162 28.11 6.769 19 6.769S2.51 15.162.443 17.735c-.59.717-.59 1.771 0 2.53C2.509 22.838 9.89 31.231 19 31.231s16.49-8.393 18.557-10.966c.59-.717.59-1.771 0-2.53ZM19 27.857A8.856 8.856 0 0 1 10.143 19 8.856 8.856 0 0 1 19 10.143 8.856 8.856 0 0 1 27.857 19 8.856 8.856 0 0 1 19 27.857Z"/></g><defs><clipPath id="a"><path fill="#fff" d="M0 0h38v38H0z"/></clipPath></defs></svg>