<svg width="38" height="38" fill="none" xmlns="http://www.w3.org/2000/svg"><path fill-rule="evenodd" clip-rule="evenodd" d="m13.263 28.302 3.53 4.588c.32.416.263 1.005-.126 1.358l-1.214 1.102a.977.977 0 0 1-.769.258.981.981 0 0 1-.71-.392l-3.913-5.065 3.202-1.849ZM32.624 16.53h3.595a1.041 1.041 0 1 0-.005-2.083h-3.595a1.041 1.041 0 1 0 .005 2.083Zm-4.267-9.464 1.798-3.113a1.041 1.041 0 1 0-1.802-1.046l-1.797 3.112a1.041 1.041 0 1 0 1.802 1.046Zm4.16 3.728 2.95-1.703a1.047 1.047 0 1 0-1.047-1.814L31.469 8.98a1.047 1.047 0 0 0 1.047 1.814Zm-4.642 4.689 3.48 6.029a2.383 2.383 0 0 1-.87 3.246 2.385 2.385 0 0 1-3.104-.653c-3.853-.586-8.872.044-13.863 1.989l-4.798-8.31c4.182-3.346 7.246-7.356 8.665-10.986a2.385 2.385 0 0 1 .976-3.041 2.383 2.383 0 0 1 3.246.87l3.481 6.029a2.812 2.812 0 1 1 2.787 4.827Zm-15.563 11.49-5.028-8.708-3.996 2.308C.859 21.975.019 25.109 1.42 27.538c1.403 2.428 4.537 3.268 6.965 1.866l3.997-2.308-.071-.123Z" fill="#fff"/></svg>