<svg width="30" height="36" fill="none" xmlns="http://www.w3.org/2000/svg"><path fill-rule="evenodd" clip-rule="evenodd" d="M20.681 14.905c-1.63 1.63-3.627 2.458-5.932 2.458-2.304 0-4.3-.827-5.931-2.458-1.632-1.631-2.459-3.627-2.459-5.932 0-2.305.827-4.301 2.458-5.932C10.448 1.411 12.444.583 14.75.583c2.305 0 4.3.827 5.932 2.458 1.631 1.631 2.458 3.627 2.458 5.932 0 2.305-.827 4.3-2.458 5.932Zm8.466 10.262c.14.782.235 1.523.282 2.201.047.664.07 1.356.07 2.058 0 1.819-.577 3.291-1.717 4.376-1.126 1.072-2.615 1.615-4.427 1.615H6.583c-1.812 0-3.301-.544-4.427-1.615-1.14-1.086-1.718-2.558-1.718-4.376 0-.699.024-1.39.07-2.057.047-.68.142-1.42.282-2.202.141-.787.324-1.532.541-2.212.226-.704.532-1.399.91-2.064a7.79 7.79 0 0 1 1.371-1.788 6.044 6.044 0 0 1 1.971-1.238 6.802 6.802 0 0 1 2.515-.456c.356 0 .7.146 1.363.578.415.27.894.579 1.422.917.456.29 1.074.563 1.837.81a7.304 7.304 0 0 0 2.248.363 7.3 7.3 0 0 0 2.248-.364c.764-.246 1.382-.519 1.838-.81.534-.34 1.012-.649 1.42-.915.665-.433 1.008-.579 1.364-.579.905 0 1.752.154 2.516.456.766.303 1.429.72 1.97 1.238a7.79 7.79 0 0 1 1.372 1.787c.378.666.685 1.36.91 2.064.218.681.4 1.426.541 2.213Z" fill="#fff"/></svg>