<svg width="33" height="33" fill="none" xmlns="http://www.w3.org/2000/svg"><g clip-path="url(#a)" fill="#FC0091"><path d="m15.765.3-11 9.899a1.1 1.1 0 0 0-.365.818v6.6a1.101 1.101 0 0 0 1.835.818L16.5 9.198l10.262 9.237a1.102 1.102 0 0 0 1.837-.818v-6.6c0-.312-.134-.607-.363-.818l-11-9.9a1.1 1.1 0 0 0-1.471 0Z"/><path d="m15.765 14.599-11 9.9a1.1 1.1 0 0 0-.365.818v6.6a1.101 1.101 0 0 0 1.835.818L16.5 23.496l10.262 9.237a1.102 1.102 0 0 0 1.837-.818v-6.6c0-.312-.134-.607-.363-.818l-11-9.9a1.1 1.1 0 0 0-1.471 0Z"/></g><defs><clipPath id="a"><path fill="#fff" d="M0 0h33v33H0z"/></clipPath></defs></svg>