<svg width="38" height="38" fill="none" xmlns="http://www.w3.org/2000/svg"><g clip-path="url(#a)" fill="#fff"><path d="M14.751 3.143c-.143-.534-.692-.853-1.217-.68a17.416 17.416 0 1 0 22.003 22.003c.173-.525-.146-1.074-.68-1.217l-4.797-1.285c-.534-.143-1.077.175-1.27.693A10.45 10.45 0 1 1 15.342 9.21c.518-.194.836-.737.693-1.27L14.75 3.142Z"/><path d="M37 19c.552 0 1.003-.448.974-1A19.002 19.002 0 0 0 20 .026c-.552-.029-1 .422-1 .974v9.4c0 .552.45.993.997 1.066a7.6 7.6 0 0 1 6.537 6.537c.073.547.514.997 1.066.997H37Z"/></g><defs><clipPath id="a"><path fill="#fff" d="M0 0h38v38H0z"/></clipPath></defs></svg>