<svg width="37" height="36" fill="none" xmlns="http://www.w3.org/2000/svg"><g clip-path="url(#a)"><path d="M18.167 36c9.94 0 18-8.059 18-18s-8.06-18-18-18c-9.941 0-18 8.059-18 18s8.059 18 18 18Z" fill="#FFE81B"/><path d="M28.474 24.199c.275-.197.439-.513.443-.85a.89.89 0 0 0-.532-.81l-.005-.003a4.21 4.21 0 0 0-.549-.205l-.01-.003-.016-.005c-.432-.137-1.041-.332-1.63-.792-.604-.473-1.153-1.199-1.529-2.353l-.146-.449.44-.172 1.045-.409.008-.003a1.4 1.4 0 0 0 .879-1.623v-.002a1.214 1.214 0 0 0-.442-.695l-.003-.002a1.22 1.22 0 0 0-1.036-.227h-.003l-.352.083-.577.134-.035-.591c-.025-.426-.025-.869-.025-1.305v-.007a6.146 6.146 0 0 0-.5-2.415L28.474 24.2Zm0 0-.005.004m.005-.004-.005.004m0 0a2.296 2.296 0 0 1-.649.335 9.484 9.484 0 0 1-1.295.308l-.37.06m2.314-.703-2.313.704m0 0-.046.371m.046-.371-.046.371m0 0a2.677 2.677 0 0 1-.083.41l-.002.006m.085-.416-.085.416m0 0-.001.007m.001-.007-.001.007m0 0a1.2 1.2 0 0 1-.677.802 1.682 1.682 0 0 1-.645.108h-.007m1.329-.91-1.329.91m0 0h-.007m.007 0h-.007m0 0a9.21 9.21 0 0 1-.612-.03l-.02-.002a2.749 2.749 0 0 0-1.894.138l-.017.006m2.543-.113-2.543.113m0 0-.016.008m.016-.008-.016.008m0 0c-.302.14-.62.325-.927.503l-.042.025-.003.002m.972-.53-.972.53m0 0c-.924.544-1.843 1.08-2.99 1.08-1.145 0-2.06-.533-2.985-1.071l-.008-.005m5.983-.004-5.983.004m0 0-.047-.027a11.877 11.877 0 0 0-.922-.501l-.016-.008m.985.536-.985-.536m0 0-.017-.006m.017.006-.017-.006m0 0a2.75 2.75 0 0 0-1.098-.178c-.277 0-.55.02-.801.04-.25.02-.438.032-.627.032h-.007m2.533.106-2.533-.106m0 0h-.007c-.22.006-.44-.03-.646-.108m.653.108-.652-.108m0 0a1.196 1.196 0 0 1-.677-.801l-.001-.008-.002-.007a2.702 2.702 0 0 1-.083-.409l-.046-.371-.37-.061a9.415 9.415 0 0 1-1.294-.308 2.293 2.293 0 0 1-.65-.335l-.005-.004a1.063 1.063 0 0 1-.442-.852.893.893 0 0 1 .535-.804l.007-.003a4 4 0 0 1 .547-.204l.012-.004.02-.006c.432-.14 1.042-.335 1.628-.796.604-.475 1.151-1.203 1.522-2.36l.144-.448-.437-.17-1.045-.41-.008-.003a1.4 1.4 0 0 1-.879-1.614v-.002c.06-.274.213-.52.433-.694a1.224 1.224 0 0 1 1.036-.227l.004.001.351.082.59.137.023-.604c.017-.416.025-.854.025-1.302m-.939 12.587.94-12.587m0 0a6.17 6.17 0 0 1 .497-2.416m-.498 2.416.498-2.417m0 0a6.336 6.336 0 0 1 3.322-3.338m-3.322 3.338 3.322-3.339m0 0a6.05 6.05 0 0 1 2.42-.497h.001m-2.42.497 2.42-.497m0 0c.827.002 1.645.17 2.405.498m-2.405-.498 2.405.498m0 0a6.373 6.373 0 0 1 3.328 3.328l-3.328-3.328Z" fill="#fff" stroke="#000"/></g><defs><clipPath id="a"><path fill="#fff" transform="translate(.167)" d="M0 0h36v36H0z"/></clipPath></defs></svg>