<svg width="37" height="36" fill="none" xmlns="http://www.w3.org/2000/svg"><g clip-path="url(#a)"><path d="M36.668 18c0 9.94-8.06 18-18.001 18h-.034C8.707 35.981.667 27.927.667 18S8.707.018 18.633 0h.034c9.941 0 18 8.057 18 18Z" fill="#000"/><path d="M18.633 0v36C8.707 35.981.667 27.927.667 18S8.707.018 18.633 0Z" fill="#0C0C0C"/><path d="m28.461 13.017-.022 3.688a8.885 8.885 0 0 1-2.13-.286 9.004 9.004 0 0 1-2.984-1.404c0 .377.005.94.005 1.623 0 .91 0 1.428-.005 1.977-.016 3.392.068 4.049-.23 5.39a6.996 6.996 0 0 1-.254.953c-.573 1.597-1.822 2.876-3.095 3.557a6.167 6.167 0 0 1-1.113.458c-2.406.73-5.297.09-6.789-1.685l-.01-.01-.011-.016c-1.268-1.53-1.545-3.914-1.571-4.524 0-.078-.006-.154-.006-.154-.02-.834.1-1.665.355-2.46.257-.82 1.105-2.536 3.007-3.577a6.577 6.577 0 0 1 3.88-.742l-.043 3.732c-.075-.02-1.898-.452-3.095.79-1.084 1.125-1.014 2.937-.245 3.963.041.055.085.109.13.158.43.48.976.66 1.344.786.488.161 1 .236 1.514.222a2.776 2.776 0 0 0 1.538-.494c1.251-.85 1.42-2.363 1.426-2.45-.016-4.871-.03-9.743-.044-14.615v-.004l2.345-.042h.038l.34-.006c.25.901.675 1.745 1.25 2.484.18.23.376.45.585.656a7.532 7.532 0 0 0 2.777 1.716h.007c.36.131.73.237 1.106.316Z" fill="#FD2854"/><path d="M27.401 14.686h-.007a8.137 8.137 0 0 1-3.773-.287 8.034 8.034 0 0 1-2.361-1.232 23.913 23.913 0 0 1 0 7.807c-.507 3.037-.824 4.94-2.52 6.159a2.949 2.949 0 0 1-.108.075c-2.34 1.585-5.612.798-6.81.052l-.018-.01-.034-.022a7.85 7.85 0 0 1-1.107-.887 6.46 6.46 0 0 1-1.961-4.566 6.92 6.92 0 0 1 .432-2.59c.2-.533.941-2.426 3.007-3.578a6.715 6.715 0 0 1 4.34-.735l-.017.887v.006l-.034 1.872a5.658 5.658 0 0 0-1.978-.11c-.532.066-1.054.127-1.608.476a3.227 3.227 0 0 0-1.4 1.997 2.69 2.69 0 0 0-.071 1.23c.021.117.178.93.834 1.514.22.196.315.204.637.505.284.266.355.394.615.615a3.263 3.263 0 0 0 .19.146c.143.105.293.2.45.283.65.34 1.813.377 2.667-.037 1.18-.574 1.824-1.894 1.822-2.678l-.044-14.62h.082l3.621-.022c-.003.283.037.564.116.835l.028.089c.01.032.016.047.024.069.056.147.12.291.194.43l.05.103v.008a.01.01 0 0 0 0 .007l.009.017.008.016c.004.01.01.02.016.03l.017.035.132.245c.033.06.068.12.103.178l.038.063.058.095.071.112c.276.436.76 1.17 1.447 1.724.965.779 2.074.999 2.77 1.064l.014.655c.026.659.045 1.317.059 1.975Z" fill="#24F6FA"/><path d="M27.413 15.728a7.911 7.911 0 0 1-5.08-1.608v7.806c-.017.3-.278 3.597-3.257 5.412a7.633 7.633 0 0 1-.444.247c-2.802 1.43-5.54.31-5.811.193a3.631 3.631 0 0 1-.988-.5l-.063-.048c-1.827-1.387-1.902-4.213-1.914-4.63-.02-.834.1-1.665.355-2.46.301-.962 1.202-2.584 3.007-3.577a6.571 6.571 0 0 1 3.25-.798v.006l-.045 2.813c-.19-.052-1.36-.346-2.502.373a3.226 3.226 0 0 0-1.4 1.998c-.112.4-.136.819-.071 1.229.101.506.34.974.69 1.353a3.228 3.228 0 0 0 .512.475c.14.108.291.203.45.283l.005.004a2.783 2.783 0 0 0 2.988 1.166c.26-.054.512-.14.751-.254.29-.138.556-.322.787-.544.898-.864 1.029-2.058 1.035-2.13L19.63 7.91l.39-.008 2.345-.046h.034l.028.07c.054.13.119.274.194.43l.051.102v.008a.01.01 0 0 0 0 .008l.008.016.008.016.016.03c.005.012.012.024.018.035.04.08.088.162.132.246.033.06.067.119.103.177l.038.063.058.095.07.113a8.718 8.718 0 0 0 1.447 1.723 8.737 8.737 0 0 0 2.777 1.716h.007l.034 1.974.026 1.05Z" fill="#fff"/><path opacity=".17" d="m28.461 13.017-.022 3.688a8.89 8.89 0 0 1-2.129-.286 9.006 9.006 0 0 1-2.985-1.404c0 .377.005.94.005 1.623 0 .91 0 1.428-.005 1.977-.016 3.392.068 4.048-.23 5.39a6.992 6.992 0 0 1-.254.953c-.573 1.597-1.822 2.876-3.095 3.557a6.172 6.172 0 0 1-1.113.458V6.957l3.621-.02c-.002.282.037.563.116.834l.028.089.34-.007a7.17 7.17 0 0 0 1.25 2.484c.18.231.376.45.585.657.965.779 2.074.999 2.77 1.064l.014.655c.36.127.73.23 1.104.304Z" fill="#000"/></g><defs><clipPath id="a"><path fill="#fff" transform="translate(.667)" d="M0 0h36v36H0z"/></clipPath></defs></svg>