<svg width="1920" height="286" fill="none" xmlns="http://www.w3.org/2000/svg"><g clip-path="url(#a)"><path fill="url(#b)" d="M0 0h1920v286H0z"/><g opacity=".28"><path d="M-116 0h250L-35 286h-250L-116 0Z" fill="url(#c)"/><path d="M402 0h250L483 286H233L402 0Z" fill="url(#d)"/><path d="M1438 0h250l-169 286h-250L1438 0Z" fill="url(#e)"/><path d="M1956 0h250l-169 286h-250L1956 0Z" fill="url(#f)"/></g></g><defs><linearGradient id="b" x1="0" y1="0" x2="1920" y2="286" gradientUnits="userSpaceOnUse"><stop stop-color="#FFDA4E"/><stop offset="1" stop-color="#F6BE2C"/></linearGradient><linearGradient id="c" x1="-75.5" y1="0" x2="-75.5" y2="286" gradientUnits="userSpaceOnUse"><stop stop-color="#fff" stop-opacity=".4"/><stop offset=".515" stop-color="#fff"/><stop offset="1" stop-color="#fff" stop-opacity=".4"/></linearGradient><linearGradient id="d" x1="442.5" y1="0" x2="442.5" y2="286" gradientUnits="userSpaceOnUse"><stop stop-color="#fff" stop-opacity=".4"/><stop offset=".515" stop-color="#fff"/><stop offset="1" stop-color="#fff" stop-opacity=".4"/></linearGradient><linearGradient id="e" x1="1478.5" y1="0" x2="1478.5" y2="286" gradientUnits="userSpaceOnUse"><stop stop-color="#fff" stop-opacity=".4"/><stop offset=".515" stop-color="#fff"/><stop offset="1" stop-color="#fff" stop-opacity=".4"/></linearGradient><linearGradient id="f" x1="1996.5" y1="0" x2="1996.5" y2="286" gradientUnits="userSpaceOnUse"><stop stop-color="#fff" stop-opacity=".4"/><stop offset=".515" stop-color="#fff"/><stop offset="1" stop-color="#fff" stop-opacity=".4"/></linearGradient><clipPath id="a"><path fill="#fff" d="M0 0h1920v286H0z"/></clipPath></defs></svg>