<svg width="37" height="36" fill="none" xmlns="http://www.w3.org/2000/svg"><g clip-path="url(#a)"><path d="M18.833-.006c-9.941 0-18 8.059-18 18 0 9.94 8.059 18 18 18 9.942 0 18-8.06 18-18 0-9.941-8.058-18-18-18Z" fill="#E02F2F"/><path d="M21.079 22.014a.492.492 0 0 0-.218.05.775.775 0 0 0-.213.16v3.262a.895.895 0 0 0 .244.184c.079.037.16.056.249.056.126 0 .218-.036.276-.111.059-.073.09-.191.09-.36v-2.702c0-.177-.037-.312-.109-.402-.073-.092-.18-.137-.32-.137Zm3.548.019c-.164 0-.281.046-.353.144-.071.092-.106.25-.106.47v.528h.91v-.529c0-.22-.037-.377-.109-.469-.07-.098-.186-.144-.342-.144Z" fill="#fff"/><path d="M26.797 17.957c-.846-.844-7.967-.855-7.967-.855s-7.121.01-7.968.854c-.848.846-.85 5.02-.85 5.044 0 .031.002 4.198.85 5.044.847.844 7.968.862 7.968.862s7.122-.018 7.967-.862c.85-.848.859-5.044.859-5.044 0-.023-.01-4.197-.859-5.043Zm-11.353 2.46h-1.2v6.064h-1.16v-6.063h-1.2v-1.03h3.559v1.03Zm3.39 6.063h-1.028v-.575a2.207 2.207 0 0 1-.595.485 1.24 1.24 0 0 1-.597.167c-.239 0-.415-.077-.538-.234-.118-.157-.18-.388-.18-.701v-4.376h1.028v4.014c0 .124.022.213.063.27.045.056.116.083.212.083a.568.568 0 0 0 .288-.111 1.43 1.43 0 0 0 .32-.28v-3.976h1.026v5.234Zm3.733-1.08c0 .37-.08.653-.242.85-.16.199-.395.297-.7.297-.202 0-.38-.036-.537-.114a1.318 1.318 0 0 1-.44-.354v.401h-1.04v-7.094h1.04v2.285c.14-.16.286-.282.441-.363a.998.998 0 0 1 .475-.125c.326 0 .575.111.746.333.173.224.257.55.257.978V25.4Zm3.569-1.41h-1.968v.985c0 .276.034.467.1.574.07.107.185.158.349.158.17 0 .29-.045.358-.135.067-.09.103-.288.103-.597v-.239h1.059v.27c0 .536-.128.94-.387 1.213-.257.271-.642.405-1.154.405-.46 0-.825-.143-1.09-.43-.264-.287-.398-.682-.398-1.188v-2.35c0-.452.148-.824.438-1.109.29-.286.665-.428 1.126-.428.471 0 .834.132 1.087.397.253.264.378.644.378 1.14v1.335h-.001Zm-1.513-9.083h-1.16v-.636a2.44 2.44 0 0 1-.665.535c-.23.123-.455.185-.672.185-.27 0-.47-.087-.605-.258-.135-.172-.204-.429-.204-.773V9.142h1.157v4.42c0 .136.027.235.075.296.047.062.127.092.235.092.085 0 .193-.04.323-.121.13-.082.25-.185.357-.311V9.142h1.159v5.765Zm-4.704-5.492c-.307-.279-.701-.42-1.18-.42-.526 0-.946.133-1.257.398-.313.264-.469.62-.468 1.067v2.988c0 .49.153.88.456 1.17.305.29.71.434 1.217.434.528 0 .94-.14 1.242-.42.3-.281.449-.667.449-1.16v-2.98c-.001-.438-.154-.798-.46-1.077Zm-.722 4.144a.486.486 0 0 1-.139.364.522.522 0 0 1-.373.132c-.154 0-.272-.043-.354-.13a.515.515 0 0 1-.124-.367v-3.14a.39.39 0 0 1 .132-.306.505.505 0 0 1 .346-.116c.152 0 .275.038.37.115a.38.38 0 0 1 .142.306v3.142Zm-5.338-6.466h-1.314l1.552 4.718v3.096h1.305v-3.242l1.518-4.572h-1.327l-.805 3.123h-.082l-.847-3.123Z" fill="#fff"/></g><defs><clipPath id="a"><path fill="#fff" transform="translate(.833)" d="M0 0h36v36H0z"/></clipPath></defs></svg>